999
dxfrw 0.6.3
  0
SECTION
  2
HEADER
  9
$ACADVER
  1
AC1021
  9
$DWGCODEPAGE
  3
ANSI_1252
  9
$INSBASE
 10
0
 20
0
 30
0
  9
$EXTMIN
 10
-543.812879427211
 20
-200.560749985102
 30
0
  9
$EXTMAX
 10
99.9119713550478
 20
539.584422674705
 30
0
  9
$LIMMIN
 10
0
 20
0
  9
$LIMMAX
 10
12
 20
9
  9
$ORTHOMODE
 70
    0
  9
$REGENMODE
 70
    1
  9
$FILLMODE
 70
    1
  9
$QTEXTMODE
 70
    0
  9
$MIRRTEXT
 70
    1
  9
$LTSCALE
 40
1
  9
$ATTMODE
 70
    1
  9
$TEXTSIZE
 40
0.2
  9
$TRACEWID
 40
0.05
  9
$TEXTSTYLE
  7
STANDARD
  9
$CLAYER
  8
0
  9
$CELTYPE
  6
BYLAYER
  9
$CECOLOR
 62
  256
  9
$CELTSCALE
 40
1
  9
$DISPSILH
 70
    0
  9
$DIMSCALE
 40
1
  9
$DIMASZ
 40
0.18
  9
$DIMEXO
 40
0.0625
  9
$DIMDLI
 40
0.38
  9
$DIMRND
 40
0
  9
$DIMDLE
 40
0
  9
$DIMEXE
 40
0.18
  9
$DIMTP
 40
0
  9
$DIMTM
 40
0
  9
$DIMTXT
 40
0.18
  9
$DIMCEN
 40
0.09
  9
$DIMTSZ
 40
0
  9
$DIMTOL
 70
    0
  9
$DIMLIM
 70
    0
  9
$DIMTIH
 70
    1
  9
$DIMTOH
 70
    1
  9
$DIMSE1
 70
    0
  9
$DIMSE2
 70
    0
  9
$DIMTAD
 70
    0
  9
$DIMZIN
 70
    0
  9
$DIMBLK
  1

  9
$DIMASO
 70
    1
  9
$DIMSHO
 70
    1
  9
$DIMPOST
  1

  9
$DIMAPOST
  1

  9
$DIMALT
 70
    0
  9
$DIMALTD
 70
    2
  9
$DIMALTF
 40
25.4
  9
$DIMLFAC
 40
1
  9
$DIMTOFL
 70
    0
  9
$DIMTVP
 40
0
  9
$DIMTIX
 70
    0
  9
$DIMSOXD
 70
    0
  9
$DIMSAH
 70
    0
  9
$DIMBLK1
  1

  9
$DIMBLK2
  1

  9
$DIMSTYLE
  2
STANDARD
  9
$DIMCLRD
 70
    0
  9
$DIMCLRE
 70
    0
  9
$DIMCLRT
 70
    0
  9
$DIMTFAC
 40
1
  9
$DIMGAP
 40
0.09
  9
$DIMJUST
 70
    0
  9
$DIMSD1
 70
    0
  9
$DIMSD2
 70
    0
  9
$DIMTOLJ
 70
    1
  9
$DIMTZIN
 70
    0
  9
$DIMALTZ
 70
    0
  9
$DIMALTTZ
 70
    0
  9
$DIMUPT
 70
    0
  9
$DIMDEC
 70
    4
  9
$DIMTDEC
 70
    4
  9
$DIMALTU
 70
    2
  9
$DIMALTTD
 70
    2
  9
$DIMTXSTY
  7
STANDARD
  9
$DIMAUNIT
 70
    0
  9
$DIMADEC
 70
    0
  9
$DIMALTRND
 40
0
  9
$DIMAZIN
 70
    0
  9
$DIMDSEP
 70
   44
  9
$DIMATFIT
 70
    3
  9
$DIMFRAC
 70
    0
  9
$DIMLDRBLK
  1
STANDARD
  9
$DIMLUNIT
 70
    2
  9
$DIMLWD
 70
   -2
  9
$DIMLWE
 70
   -2
  9
$DIMTMOVE
 70
    0
  9
$DIMFXL
 40
1
  9
$DIMFXLON
 70
    0
  9
$DIMJOGANG
 40
0.7854
  9
$DIMTFILL
 70
    0
  9
$DIMTFILLCLR
 70
    0
  9
$DIMARCSYM
 70
    0
  9
$DIMLTYPE
  6

  9
$DIMLTEX1
  6

  9
$DIMLTEX2
  6

  9
$LUNITS
 70
    2
  9
$LUPREC
 70
    4
  9
$SKETCHINC
 40
0.1
  9
$FILLETRAD
 40
0.5
  9
$AUNITS
 70
    0
  9
$AUPREC
 70
    0
  9
$MENU
  1
.
  9
$ELEVATION
 40
0
  9
$PELEVATION
 40
0
  9
$THICKNESS
 40
0
  9
$LIMCHECK
 70
    0
  9
$CHAMFERA
 40
0
  9
$CHAMFERB
 40
0
  9
$CHAMFERC
 40
0
  9
$CHAMFERD
 40
0
  9
$SKPOLY
 70
    0
  9
$USRTIMER
 70
    1
  9
$ANGBASE
 50
0
  9
$ANGDIR
 70
    0
  9
$PDMODE
 70
    0
  9
$PDSIZE
 40
0
  9
$PLINEWID
 40
0
  9
$SPLFRAME
 70
    0
  9
$SPLINETYPE
 70
    6
  9
$SPLINESEGS
 70
    8
  9
$HANDSEED
  5
20000
  9
$SURFTAB1
 70
    6
  9
$SURFTAB2
 70
    6
  9
$SURFTYPE
 70
    6
  9
$SURFU
 70
    6
  9
$SURFV
 70
    6
  9
$UCSBASE
  2

  9
$UCSNAME
  2

  9
$UCSORG
 10
0
 20
0
 30
0
  9
$UCSXDIR
 10
1
 20
0
 30
0
  9
$UCSYDIR
 10
0
 20
1
 30
0
  9
$UCSORTHOREF
  2

  9
$UCSORTHOVIEW
 70
    0
  9
$UCSORGTOP
 10
0
 20
0
 30
0
  9
$UCSORGBOTTOM
 10
0
 20
0
 30
0
  9
$UCSORGLEFT
 10
0
 20
0
 30
0
  9
$UCSORGRIGHT
 10
0
 20
0
 30
0
  9
$UCSORGFRONT
 10
0
 20
0
 30
0
  9
$UCSORGBACK
 10
0
 20
0
 30
0
  9
$PUCSBASE
  2

  9
$PUCSNAME
  2

  9
$PUCSORG
 10
0
 20
0
 30
0
  9
$PUCSXDIR
 10
1
 20
0
 30
0
  9
$PUCSYDIR
 10
0
 20
1
 30
0
  9
$PUCSORTHOREF
  2

  9
$PUCSORTHOVIEW
 70
    0
  9
$PUCSORGTOP
 10
0
 20
0
 30
0
  9
$PUCSORGBOTTOM
 10
0
 20
0
 30
0
  9
$PUCSORGLEFT
 10
0
 20
0
 30
0
  9
$PUCSORGRIGHT
 10
0
 20
0
 30
0
  9
$PUCSORGFRONT
 10
0
 20
0
 30
0
  9
$PUCSORGBACK
 10
0
 20
0
 30
0
  9
$USERI1
 70
    0
  9
$USERI2
 70
    0
  9
$USERI3
 70
    0
  9
$USERI4
 70
    0
  9
$USERI5
 70
    0
  9
$USERR1
 40
0
  9
$USERR2
 40
0
  9
$USERR3
 40
0
  9
$USERR4
 40
0
  9
$USERR5
 40
0
  9
$WORLDVIEW
 70
    1
  9
$SHADEDGE
 70
    3
  9
$SHADEDIF
 70
   70
  9
$TILEMODE
 70
    1
  9
$MAXACTVP
 70
   64
  9
$PINSBASE
 10
0
 20
0
 30
0
  9
$PLIMCHECK
 70
    0
  9
$PEXTMIN
 10
1e+020
 20
1e+020
 30
1e+020
  9
$PEXTMAX
 10
-1e+020
 20
-1e+020
 30
-1e+020
  9
$GRIDMODE
 70
    0
  9
$SNAPSTYLE
 70
    0
  9
$PLIMMIN
 10
0
 20
0
  9
$PLIMMAX
 10
12
 20
9
  9
$UNITMODE
 70
    0
  9
$VISRETAIN
 70
    1
  9
$PLINEGEN
 70
    0
  9
$PSLTSCALE
 70
    1
  9
$TREEDEPTH
 70
 3020
  9
$CMLSTYLE
  2
STANDARD
  9
$CMLJUST
 70
    0
  9
$CMLSCALE
 40
1
  9
$PROXYGRAPHICS
 70
    1
  9
$MEASUREMENT
 70
    0
  9
$CELWEIGHT
370
   -1
  9
$ENDCAPS
280
    0
  9
$JOINSTYLE
280
    0
  9
$LWDISPLAY
290
    0
  9
$INSUNITS
 70
    1
  9
$HYPERLINKBASE
  1

  9
$STYLESHEET
  1

  9
$XEDIT
290
    1
  9
$CEPSNTYPE
380
    0
  9
$PSTYLEMODE
290
    1
  9
$EXTNAMES
290
    1
  9
$PSVPSCALE
 40
1
  9
$OLESTARTUP
290
    0
  9
$SORTENTS
280
  127
  9
$INDEXCTL
280
    0
  9
$HIDETEXT
280
    1
  9
$XCLIPFRAME
290
    0
  9
$HALOGAP
280
    0
  9
$OBSCOLOR
 70
  257
  9
$OBSLTYPE
280
    0
  9
$INTERSECTIONDISPLAY
280
    0
  9
$INTERSECTIONCOLOR
 70
  257
  9
$DIMASSOC
280
    1
  9
$PROJECTNAME
  1

  9
$CAMERADISPLAY
290
    0
  9
$LENSLENGTH
 40
50
  9
$CAMERAHEIGHT
 40
0
  9
$STEPSPERSEC
 40
2
  9
$STEPSIZE
 40
50
  9
$3DDWFPREC
 40
2
  9
$PSOLWIDTH
 40
5
  9
$PSOLHEIGHT
 40
80
  9
$LOFTANG1
 40
1.570796326794897
  9
$LOFTANG2
 40
1.570796326794897
  9
$LOFTMAG1
 40
0
  9
$LOFTMAG2
 40
0
  9
$LOFTPARAM
 70
    7
  9
$LOFTNORMALS
280
    1
  9
$LATITUDE
 40
1
  9
$LONGITUDE
 40
1
  9
$NORTHDIRECTION
 40
0
  9
$TIMEZONE
 70
-8000
  9
$LIGHTGLYPHDISPLAY
280
    1
  9
$TILEMODELIGHTSYNCH
280
    1
  9
$SOLIDHIST
280
    1
  9
$SHOWHIST
280
    1
  9
$DWFFRAME
280
    2
  9
$DGNFRAME
280
    0
  9
$REALWORLDSCALE
290
    1
  9
$INTERFERECOLOR
 62
    1
  9
$CSHADOW
280
    0
  9
$SHADOWPLANELOCATION
 40
0
  0
ENDSEC
  0
SECTION
  2
CLASSES
  0
ENDSEC
  0
SECTION
  2
TABLES
  0
TABLE
  2
VPORT
  5
8
330
0
100
AcDbSymbolTable
 70
    1
  0
VPORT
  5
31
330
2
100
AcDbSymbolTableRecord
100
AcDbViewportTableRecord
  2
*ACTIVE
 70
    0
 10
0
 20
0
 11
1
 21
1
 12
504.0696330825706
 22
332.6123710267473
 13
0
 23
0
 14
10
 24
10
 15
10
 25
10
 16
0
 26
0
 36
1
 17
0
 27
0
 37
0
 40
1037.573989264853
 41
2.321985815602837
 42
50
 43
0
 44
0
 50
0
 51
0
 71
    0
 72
  100
 73
    1
 74
    3
 75
    0
 76
    0
 77
    0
 78
    0
281
    0
 65
    1
110
0
120
0
130
0
111
1
121
0
131
0
112
0
122
1
132
0
 79
    0
146
0
348
10020
 60
    7
 61
    5
292
1
282
    1
141
0
142
0
 63
  250
421
3358443
  0
ENDTAB
  0
TABLE
  2
LTYPE
  5
5
330
0
100
AcDbSymbolTable
 70
    4
  0
LTYPE
  5
14
330
5
100
AcDbSymbolTableRecord
100
AcDbLinetypeTableRecord
  2
ByBlock
 70
    0
  3

 72
   65
 73
    0
 40
0
  0
LTYPE
  5
15
330
5
100
AcDbSymbolTableRecord
100
AcDbLinetypeTableRecord
  2
ByLayer
 70
    0
  3

 72
   65
 73
    0
 40
0
  0
LTYPE
  5
16
330
5
100
AcDbSymbolTableRecord
100
AcDbLinetypeTableRecord
  2
Continuous
 70
    0
  3
Solid line
 72
   65
 73
    0
 40
0
  0
LTYPE
  5
32
330
5
100
AcDbSymbolTableRecord
100
AcDbLinetypeTableRecord
  2
DOT
 70
    0
  3
Dot . . . . . . . . . . . . . . . . . . . . . .
 72
   65
 73
    2
 40
6.35
 49
0
 74
    0
 49
-6.35
 74
    0
  0
LTYPE
  5
33
330
5
100
AcDbSymbolTableRecord
100
AcDbLinetypeTableRecord
  2
DOTTINY
 70
    0
  3
Dot (.15x) .....................................
 72
   65
 73
    2
 40
0.9525
 49
0
 74
    0
 49
-0.9525
 74
    0
  0
LTYPE
  5
34
330
5
100
AcDbSymbolTableRecord
100
AcDbLinetypeTableRecord
  2
DOT2
 70
    0
  3
Dot (.5x) .....................................
 72
   65
 73
    2
 40
3.175
 49
0
 74
    0
 49
-3.175
 74
    0
  0
LTYPE
  5
35
330
5
100
AcDbSymbolTableRecord
100
AcDbLinetypeTableRecord
  2
DOTX2
 70
    0
  3
Dot (2x) .  .  .  .  .  .  .  .  .  .  .  .  .
 72
   65
 73
    2
 40
12.7
 49
0
 74
    0
 49
-12.7
 74
    0
  0
LTYPE
  5
36
330
5
100
AcDbSymbolTableRecord
100
AcDbLinetypeTableRecord
  2
DASHED
 70
    0
  3
Dashed _ _ _ _ _ _ _ _ _ _ _ _ _ _ _ _ _
 72
   65
 73
    2
 40
19.05
 49
12.7
 74
    0
 49
-6.35
 74
    0
  0
LTYPE
  5
37
330
5
100
AcDbSymbolTableRecord
100
AcDbLinetypeTableRecord
  2
DASHEDTINY
 70
    0
  3
Dashed (.15x) _ _ _ _ _ _ _ _ _ _ _ _ _ _ _ _ _
 72
   65
 73
    2
 40
2.8575
 49
1.905
 74
    0
 49
-0.9525
 74
    0
  0
LTYPE
  5
38
330
5
100
AcDbSymbolTableRecord
100
AcDbLinetypeTableRecord
  2
DASHED2
 70
    0
  3
Dashed (.5x) _ _ _ _ _ _ _ _ _ _ _ _ _ _ _ _ _
 72
   65
 73
    2
 40
9.524999999999999
 49
6.35
 74
    0
 49
-3.175
 74
    0
  0
LTYPE
  5
39
330
5
100
AcDbSymbolTableRecord
100
AcDbLinetypeTableRecord
  2
DASHEDX2
 70
    0
  3
Dashed (2x) ____  ____  ____  ____  ____  ___
 72
   65
 73
    2
 40
38.09999999999999
 49
25.4
 74
    0
 49
-12.7
 74
    0
  0
LTYPE
  5
3A
330
5
100
AcDbSymbolTableRecord
100
AcDbLinetypeTableRecord
  2
DASHDOT
 70
    0
  3
Dash dot __ . __ . __ . __ . __ . __ . __ . __
 72
   65
 73
    4
 40
25.4
 49
12.7
 74
    0
 49
-6.35
 74
    0
 49
0
 74
    0
 49
-6.35
 74
    0
  0
LTYPE
  5
3B
330
5
100
AcDbSymbolTableRecord
100
AcDbLinetypeTableRecord
  2
DASHDOTTINY
 70
    0
  3
Dash dot (.15x) _._._._._._._._._._._._._._._.
 72
   65
 73
    4
 40
3.81
 49
1.905
 74
    0
 49
-0.9525
 74
    0
 49
0
 74
    0
 49
-0.9525
 74
    0
  0
LTYPE
  5
3C
330
5
100
AcDbSymbolTableRecord
100
AcDbLinetypeTableRecord
  2
DASHDOT2
 70
    0
  3
Dash dot (.5x) _._._._._._._._._._._._._._._.
 72
   65
 73
    4
 40
12.7
 49
6.35
 74
    0
 49
-3.175
 74
    0
 49
0
 74
    0
 49
-3.175
 74
    0
  0
LTYPE
  5
3D
330
5
100
AcDbSymbolTableRecord
100
AcDbLinetypeTableRecord
  2
DASHDOTX2
 70
    0
  3
Dash dot (2x) ____  .  ____  .  ____  .  ___
 72
   65
 73
    4
 40
50.8
 49
25.4
 74
    0
 49
-12.7
 74
    0
 49
0
 74
    0
 49
-12.7
 74
    0
  0
LTYPE
  5
3E
330
5
100
AcDbSymbolTableRecord
100
AcDbLinetypeTableRecord
  2
DIVIDE
 70
    0
  3
Divide ____ . . ____ . . ____ . . ____ . . ____
 72
   65
 73
    6
 40
31.75
 49
12.7
 74
    0
 49
-6.35
 74
    0
 49
0
 74
    0
 49
-6.35
 74
    0
 49
0
 74
    0
 49
-6.35
 74
    0
  0
LTYPE
  5
3F
330
5
100
AcDbSymbolTableRecord
100
AcDbLinetypeTableRecord
  2
DIVIDETINY
 70
    0
  3
Divide (.15x) __..__..__..__..__..__..__..__.._
 72
   65
 73
    6
 40
4.7625
 49
1.905
 74
    0
 49
-0.9525
 74
    0
 49
0
 74
    0
 49
-0.9525
 74
    0
 49
0
 74
    0
 49
-0.9525
 74
    0
  0
LTYPE
  5
40
330
5
100
AcDbSymbolTableRecord
100
AcDbLinetypeTableRecord
  2
DIVIDE2
 70
    0
  3
Divide (.5x) __..__..__..__..__..__..__..__.._
 72
   65
 73
    6
 40
15.875
 49
6.35
 74
    0
 49
-3.175
 74
    0
 49
0
 74
    0
 49
-3.175
 74
    0
 49
0
 74
    0
 49
-3.175
 74
    0
  0
LTYPE
  5
41
330
5
100
AcDbSymbolTableRecord
100
AcDbLinetypeTableRecord
  2
DIVIDEX2
 70
    0
  3
Divide (2x) ________  .  .  ________  .  .  _
 72
   65
 73
    6
 40
63.5
 49
25.4
 74
    0
 49
-12.7
 74
    0
 49
0
 74
    0
 49
-12.7
 74
    0
 49
0
 74
    0
 49
-12.7
 74
    0
  0
LTYPE
  5
42
330
5
100
AcDbSymbolTableRecord
100
AcDbLinetypeTableRecord
  2
BORDER
 70
    0
  3
Border __ __ . __ __ . __ __ . __ __ . __ __ .
 72
   65
 73
    6
 40
44.45
 49
12.7
 74
    0
 49
-6.35
 74
    0
 49
12.7
 74
    0
 49
-6.35
 74
    0
 49
0
 74
    0
 49
-6.35
 74
    0
  0
LTYPE
  5
43
330
5
100
AcDbSymbolTableRecord
100
AcDbLinetypeTableRecord
  2
BORDERTINY
 70
    0
  3
Border (.15x) __.__.__.__.__.__.__.__.__.__.__.
 72
   65
 73
    6
 40
6.6675
 49
1.905
 74
    0
 49
-0.9525
 74
    0
 49
1.905
 74
    0
 49
-0.9525
 74
    0
 49
0
 74
    0
 49
-0.9525
 74
    0
  0
LTYPE
  5
44
330
5
100
AcDbSymbolTableRecord
100
AcDbLinetypeTableRecord
  2
BORDER2
 70
    0
  3
Border (.5x) __.__.__.__.__.__.__.__.__.__.__.
 72
   65
 73
    6
 40
22.225
 49
6.35
 74
    0
 49
-3.175
 74
    0
 49
6.35
 74
    0
 49
-3.175
 74
    0
 49
0
 74
    0
 49
-3.175
 74
    0
  0
LTYPE
  5
45
330
5
100
AcDbSymbolTableRecord
100
AcDbLinetypeTableRecord
  2
BORDERX2
 70
    0
  3
Border (2x) ____  ____  .  ____  ____  .  ___
 72
   65
 73
    6
 40
88.89999999999999
 49
25.4
 74
    0
 49
-12.7
 74
    0
 49
25.4
 74
    0
 49
-12.7
 74
    0
 49
0
 74
    0
 49
-12.7
 74
    0
  0
LTYPE
  5
46
330
5
100
AcDbSymbolTableRecord
100
AcDbLinetypeTableRecord
  2
CENTER
 70
    0
  3
Center ____ _ ____ _ ____ _ ____ _ ____ _ ____
 72
   65
 73
    4
 40
50.8
 49
31.75
 74
    0
 49
-6.35
 74
    0
 49
6.35
 74
    0
 49
-6.35
 74
    0
  0
LTYPE
  5
47
330
5
100
AcDbSymbolTableRecord
100
AcDbLinetypeTableRecord
  2
CENTERTINY
 70
    0
  3
Center (.15x) ___ _ ___ _ ___ _ ___ _ ___ _ ___
 72
   65
 73
    4
 40
7.62
 49
4.7625
 74
    0
 49
-0.9525
 74
    0
 49
0.9525
 74
    0
 49
-0.9525
 74
    0
  0
LTYPE
  5
48
330
5
100
AcDbSymbolTableRecord
100
AcDbLinetypeTableRecord
  2
CENTER2
 70
    0
  3
Center (.5x) ___ _ ___ _ ___ _ ___ _ ___ _ ___
 72
   65
 73
    4
 40
28.575
 49
19.05
 74
    0
 49
-3.175
 74
    0
 49
3.175
 74
    0
 49
-3.175
 74
    0
  0
LTYPE
  5
49
330
5
100
AcDbSymbolTableRecord
100
AcDbLinetypeTableRecord
  2
CENTERX2
 70
    0
  3
Center (2x) ________  __  ________  __  _____
 72
   65
 73
    4
 40
101.6
 49
63.5
 74
    0
 49
-12.7
 74
    0
 49
12.7
 74
    0
 49
-12.7
 74
    0
  0
ENDTAB
  0
TABLE
  2
LAYER
  5
2
330
0
100
AcDbSymbolTable
 70
    1
  0
LAYER
  5
10
330
2
100
AcDbSymbolTableRecord
100
AcDbLayerTableRecord
  2
0
 70
    0
 62
   13
  6
CONTINUOUS
370
   -3
390
F
  0
LAYER
  5
4A
330
2
100
AcDbSymbolTableRecord
100
AcDbLayerTableRecord
  2
ANNOTATIONS
 70
    0
 62
  221
  6
CONTINUOUS
370
   -3
390
F
  0
ENDTAB
  0
TABLE
  2
STYLE
  5
3
330
0
100
AcDbSymbolTable
 70
    3
  0
STYLE
  5
4B
330
2
100
AcDbSymbolTableRecord
100
AcDbTextStyleTableRecord
  2
Standard
 70
    0
 40
0
 41
1
 50
0
 71
    0
 42
1
  3
txt
  4

  0
ENDTAB
  0
TABLE
  2
VIEW
  5
6
330
0
100
AcDbSymbolTable
 70
    0
  0
ENDTAB
  0
TABLE
  2
UCS
  5
7
330
0
100
AcDbSymbolTable
 70
    0
  0
ENDTAB
  0
TABLE
  2
APPID
  5
9
330
0
100
AcDbSymbolTable
 70
    1
  0
APPID
  5
12
330
9
100
AcDbSymbolTableRecord
100
AcDbRegAppTableRecord
  2
ACAD
 70
    0
  0
APPID
  5
4C
330
9
100
AcDbSymbolTableRecord
100
AcDbRegAppTableRecord
  2
LibreCad
 70
    0
  0
ENDTAB
  0
TABLE
  2
DIMSTYLE
  5
A
330
0
100
AcDbSymbolTable
 70
    1
100
AcDbDimStyleTable
 71
    1
  0
DIMSTYLE
105
4D
330
A
100
AcDbSymbolTableRecord
100
AcDbDimStyleTableRecord
  2
Standard
 70
    0
 40
1
 41
0.18
 42
0.0625
 43
0.38
 44
0.18
 45
0
 46
0
 47
0
 48
0
 49
1
140
0.18
141
0.09
142
0
143
25.4
144
1
145
0
146
1
147
0.09
148
0
 71
    0
 72
    0
 73
    1
 74
    1
 75
    0
 76
    0
 77
    0
 78
    0
 79
    0
170
    0
171
    2
172
    0
173
    0
174
    0
175
    0
176
    0
177
    0
178
    0
179
    0
271
    4
272
    4
273
    2
274
    2
275
    0
276
    0
277
    2
278
    0
279
    0
280
    0
281
    0
282
    0
283
    1
284
    0
285
    0
286
    0
288
    0
289
    3
340
STANDARD
341

371
   -2
372
   -2
  0
ENDTAB
  0
TABLE
  2
BLOCK_RECORD
  5
1
330
0
100
AcDbSymbolTable
 70
    2
  0
BLOCK_RECORD
  5
1F
330
1
100
AcDbSymbolTableRecord
100
AcDbBlockTableRecord
  2
*Model_Space
 70
    0
280
    1
281
    0
  0
BLOCK_RECORD
  5
1E
330
1
100
AcDbSymbolTableRecord
100
AcDbBlockTableRecord
  2
*Paper_Space
 70
    0
280
    1
281
    0
  0
BLOCK_RECORD
  5
4E
330
1
100
AcDbSymbolTableRecord
100
AcDbBlockTableRecord
  2
CHRIS
 70
    0
280
    1
281
    0
  0
BLOCK_RECORD
  5
51
330
1
100
AcDbSymbolTableRecord
100
AcDbBlockTableRecord
  2
GROUP1_1
 70
    0
280
    1
281
    0
  0
BLOCK_RECORD
  5
54
330
1
100
AcDbSymbolTableRecord
100
AcDbBlockTableRecord
  2
GROUP2_1
 70
    0
280
    1
281
    0
  0
BLOCK_RECORD
  5
57
330
1
100
AcDbSymbolTableRecord
100
AcDbBlockTableRecord
  2
GROUP3_1
 70
    0
280
    1
281
    0
  0
BLOCK_RECORD
  5
5A
330
1
100
AcDbSymbolTableRecord
100
AcDbBlockTableRecord
  2
GROUP4_1
 70
    0
280
    1
281
    0
  0
BLOCK_RECORD
  5
5D
330
1
100
AcDbSymbolTableRecord
100
AcDbBlockTableRecord
  2
GROUP5_1
 70
    0
280
    1
281
    0
  0
BLOCK_RECORD
  5
60
330
1
100
AcDbSymbolTableRecord
100
AcDbBlockTableRecord
  2
GROUP6_1
 70
    0
280
    1
281
    0
  0
BLOCK_RECORD
  5
63
330
1
100
AcDbSymbolTableRecord
100
AcDbBlockTableRecord
  2
GROUP7_1
 70
    0
280
    1
281
    0
  0
BLOCK_RECORD
  5
66
330
1
100
AcDbSymbolTableRecord
100
AcDbBlockTableRecord
  2
GROUP8_1
 70
    0
280
    1
281
    0
  0
BLOCK_RECORD
  5
69
330
1
100
AcDbSymbolTableRecord
100
AcDbBlockTableRecord
  2
GROUP9_1
 70
    0
280
    1
281
    0
  0
ENDTAB
  0
ENDSEC
  0
SECTION
  2
BLOCKS
  0
BLOCK
  5
20
330
1F
100
AcDbEntity
  8
0
100
AcDbBlockBegin
  2
*Model_Space
 70
    0
 10
0
 20
0
 30
0
  3
*Model_Space
  1

  0
ENDBLK
  5
21
330
1F
100
AcDbEntity
  8
0
100
AcDbBlockEnd
  0
BLOCK
  5
1C
330
1B
100
AcDbEntity
  8
0
100
AcDbBlockBegin
  2
*Paper_Space
 70
    0
 10
0
 20
0
 30
0
  3
*Paper_Space
  1

  0
ENDBLK
  5
1D
330
1F
100
AcDbEntity
  8
0
100
AcDbBlockEnd
  0
BLOCK
  5
4F
330
4E
100
AcDbEntity
  8
0
100
AcDbBlockBegin
  2
CHRIS
 70
    0
 10
0
 20
0
  3
CHRIS
  1

  0
LWPOLYLINE
  5
6C
100
AcDbEntity
  8
0
  6
ByLayer
 62
  256
370
   -1
100
AcDbPolyline
 90
    2
 70
    0
 43
0
 10
1.539119269031213
 20
6.248e-013
 10
1.231578999539453
 20
5.941e-013
  0
LWPOLYLINE
  5
6D
100
AcDbEntity
  8
0
  6
ByLayer
 62
  256
370
   -1
100
AcDbPolyline
 90
   26
 70
    0
 43
0
 10
1.231578999539453
 20
5.941e-013
 10
1.220327743205432
 20
5.811e-013
 10
1.431866251170578
 20
6.044e-013
 10
1.724401493413357
 20
6.393e-013
 10
2.079853053220698
 20
6.863e-013
 10
2.844556039124156
 20
7.94e-013
 10
3.606805552036623
 20
9.026e-013
 10
4.365532599250363
 20
1.0085e-012
 10
5.129690203058656
 20
1.1147e-012
 10
5.873920362279345
 20
1.215e-012
 10
6.575890341924598
 20
1.3154e-012
 10
7.299881513587827
 20
1.4109e-012
 10
8.057260774502272
 20
1.5161e-012
 10
8.821107260221748
 20
1.6245e-012
 10
9.048043812727347
 20
1.6547e-012
 10
9.272591623618045
 20
1.6946e-012
 10
9.493348158999071
 20
1.7186e-012
 10
9.708934565422082
 20
1.7568e-012
 10
9.9180042822545
 20
1.787e-012
 10
10.11925145234697
 20
1.8181e-012
 10
10.31141907846504
 20
1.8492e-012
 10
10.49330687454028
 20
1.8749e-012
 10
10.66377876270109
 20
1.9007e-012
 10
10.82176996925731
 20
1.9291e-012
 10
10.96629367531541
 20
1.9478e-012
 10
10.89882015011982
 20
1.9407e-012
  0
LWPOLYLINE
  5
6E
100
AcDbEntity
  8
0
  6
ByLayer
 62
  256
370
   -1
100
AcDbPolyline
 90
   34
 70
    0
 43
0
 10
3.052334310483061
 20
1.3893e-012
 10
3.03848288464935
 20
1.3891e-012
 10
3.362930096586472
 20
1.6989e-012
 10
3.69900975781886
 20
1.9567e-012
 10
4.043613876291207
 20
2.1623e-012
 10
4.393555627610385
 20
2.3106e-012
 10
4.745598826108553
 20
2.4021e-012
 10
5.096487852388675
 20
2.4345e-012
 10
5.253872051527351
 20
2.4567e-012
 10
5.336203830500714
 20
2.4665e-012
 10
5.320093585378418
 20
2.4638e-012
 10
5.21011806960038
 20
2.4478e-012
 10
5.037520185824112
 20
2.4261e-012
 10
4.783076690662191
 20
2.4292e-012
 10
4.529808157194596
 20
2.4167e-012
 10
4.277766668591685
 20
2.3825e-012
 10
4.027004055688953
 20
2.3355e-012
 10
3.77757188632909
 20
2.2662e-012
 10
3.529521454756397
 20
2.1834e-012
 10
3.431459495725634
 20
2.1432e-012
 10
3.282903771069671
 20
2.0806e-012
 10
3.037769550731162
 20
1.9604e-012
 10
2.794169204137704
 20
1.8239e-012
 10
2.552152826254503
 20
1.6689e-012
 10
2.311770186312605
 20
1.4961e-012
 10
2.073070717574428
 20
1.3065e-012
 10
1.68485866432029
 20
1.1979e-012
 10
1.284834218197411
 20
1.1418e-012
 10
0.8809082836889828
 20
1.1436e-012
 10
0.5797415981792121
 20
1.1023e-012
 10
0.3022743176565402
 20
1.0685e-012
 10
0.0323070056756337
 20
1.0356e-012
 10
-0.2297905160893169
 20
1.0037e-012
 10
-0.2849584263514021
 20
9.961e-013
  0
LWPOLYLINE
  5
6F
100
AcDbEntity
  8
0
  6
ByLayer
 62
  256
370
   -1
100
AcDbPolyline
 90
    9
 70
    0
 43
0
 10
-0.2873933264283512
 20
9.215000000000001e-013
 10
-0.1617308228034918
 20
9.369999999999999e-013
 10
-0.0301691196685568
 20
9.539e-013
 10
0.1069563513730999
 20
9.711999999999999e-013
 10
0.7528481676645182
 20
8.535e-013
 10
1.394785642064195
 20
8.368e-013
 10
2.024261270019043
 20
9.218999999999999e-013
 10
2.632932702025452
 20
1.1062e-012
 10
3.212733303581399
 20
1.3891e-012
  0
LWPOLYLINE
  5
70
100
AcDbEntity
  8
0
  6
ByLayer
 62
  256
370
   -1
100
AcDbPolyline
 90
    2
 70
    0
 43
0
 10
2.084155172470731
 20
1.6995e-012
 10
2.084155172470734
 20
1.7071e-012
  0
LWPOLYLINE
  5
71
100
AcDbEntity
  8
0
  6
ByLayer
 62
  256
370
   -1
100
AcDbPolyline
 90
   18
 70
    1
 43
0
 10
8.095731881532998
 20
2.4398e-012
 10
8.342048117348755
 20
2.4398e-012
 10
8.825812010851916
 20
2.4905e-012
 10
9.341492574418874
 20
2.5642e-012
 10
9.879933140218776
 20
2.6388e-012
 10
10.43157290306326
 20
2.7152e-012
 10
10.98661668658243
 20
2.7924e-012
 10
11.10199258247137
 20
2.7933e-012
 10
11.19851032769255
 20
2.8084e-012
 10
11.27573445562939
 20
2.8244e-012
 10
11.33331654817868
 20
2.8404e-012
 10
11.37099680773575
 20
2.8635e-012
 10
11.45087209015556
 20
-1.7346441705e-006
 10
11.49562125912643
 20
-2.0575006179e-006
 10
11.505183803441
 20
2.9061e-012
 10
10.36870274851281
 20
2.5491e-012
 10
9.232217783336729
 20
2.3874e-012
 10
8.095731881532998
 20
2.4398e-012
  0
LWPOLYLINE
  5
72
100
AcDbEntity
  8
0
  6
ByLayer
 62
  256
370
   -1
100
AcDbPolyline
 90
    2
 70
    0
 43
0
 10
7.625631904373243
 20
2.5255e-012
 10
7.625631904373257
 20
2.5433e-012
  0
LWPOLYLINE
  5
73
100
AcDbEntity
  8
0
  6
ByLayer
 62
  256
370
   -1
100
AcDbPolyline
 90
   10
 70
    0
 43
0
 10
-0.0356972601034472
 20
2.292e-013
 10
-0.0496540825089654
 20
2.647e-013
 10
-0.07600074244835769
 20
3.073e-013
 10
-0.7635881582299155
 20
2.069e-013
 10
-1.458020901444409
 20
1.066e-013
 10
-2.155087932669036
 20
6.7e-015
 10
-2.850561694102723
 20
-9.209999999999999e-014
 10
-3.540223791513049
 20
-1.856e-013
 10
-4.174262907557697
 20
-2.696e-013
 10
-4.556171902704357
 20
-3.135e-013
  0
LWPOLYLINE
  5
74
100
AcDbEntity
  8
0
  6
ByLayer
 62
  256
370
   -1
100
AcDbPolyline
 90
    2
 70
    0
 43
0
 10
1.242830255873494
 20
6.065e-013
 10
1.231578999539453
 20
5.941e-013
  0
LWPOLYLINE
  5
75
100
AcDbEntity
  8
0
  6
ByLayer
 62
  256
370
   -1
100
AcDbPolyline
 90
    3
 70
    0
 43
0
 10
6.476254238987021
 20
1.3429e-012
 10
6.728109621123413
 20
1.3785e-012
 10
5.964828129475956
 20
1.3114e-012
  0
LWPOLYLINE
  5
76
100
AcDbEntity
  8
0
  6
ByLayer
 62
  256
370
   -1
100
AcDbPolyline
 90
    2
 70
    0
 43
0
 10
-0.0562470893262984
 20
6.421e-013
 10
0.5390957367246202
 20
6.714e-013
  0
LWPOLYLINE
  5
77
100
AcDbEntity
  8
0
  6
ByLayer
 62
  256
370
   -1
100
AcDbPolyline
 90
   10
 70
    0
 43
0
 10
0.6241513013981513
 20
1.4747e-012
 10
-0.6490247277557736
 20
1.28e-012
 10
-1.920758940208602
 20
1.0856e-012
 10
-3.191046563425789
 20
8.933e-013
 10
-4.169670467587771
 20
7.327e-013
 10
-4.994664662721267
 20
5.951e-013
 10
-5.653944692374921
 20
4.778e-013
 10
-6.137853469438781
 20
3.797e-013
 10
-6.439302732471386
 20
3.082e-013
 10
-6.278311401493848
 20
3.331e-013
  0
LWPOLYLINE
  5
78
100
AcDbEntity
  8
0
  6
ByLayer
 62
  256
370
   -1
100
AcDbPolyline
 90
    2
 70
    0
 43
0
 10
7.112988985585701
 20
2.2902e-012
 10
7.112988985585726
 20
2.2449e-012
  0
LWPOLYLINE
  5
79
100
AcDbEntity
  8
0
  6
ByLayer
 62
  256
370
   -1
100
AcDbPolyline
 90
   16
 70
    0
 43
0
 10
8.311889090708849
 20
2.5562e-012
 10
9.06674098079807
 20
2.6574e-012
 10
9.825687426799096
 20
2.7551e-012
 10
10.58862426488326
 20
2.8599e-012
 10
11.35544678354888
 20
2.9594e-012
 10
12.12604973799261
 20
3.0589e-012
 10
12.32429682606849
 20
3.0855e-012
 10
12.48973442943365
 20
3.1077e-012
 10
12.61243698286317
 20
3.1237e-012
 10
13.22494681320967
 20
3.1841e-012
 10
13.77509138606631
 20
3.2401e-012
 10
14.26172229048486
 20
3.2774e-012
 10
14.68382369847032
 20
3.3094e-012
 10
15.04051448549265
 20
3.3431e-012
 10
14.73558993874385
 20
3.2934e-012
 10
14.41190342186177
 20
3.2481e-012
  0
LWPOLYLINE
  5
7A
100
AcDbEntity
  8
0
  6
ByLayer
 62
  256
370
   -1
100
AcDbPolyline
 90
    4
 70
    0
 43
0
 10
11.40677497042613
 20
2.7924e-012
 10
12.47308952095841
 20
2.9567e-012
 10
13.48539878248642
 20
3.1113e-012
 10
14.41190342186177
 20
3.2481e-012
  0
LWPOLYLINE
  5
7B
100
AcDbEntity
  8
0
  6
ByLayer
 62
  256
370
   -1
100
AcDbPolyline
 90
    4
 70
    0
 43
0
 10
-1.915741242069887
 20
9.258e-013
 10
-1.432040318200232
 20
9.807000000000001e-013
 10
-1.093784219307694
 20
1.0815e-012
 10
-0.9101019040054457
 20
1.2261e-012
  0
LWPOLYLINE
  5
7C
100
AcDbEntity
  8
0
  6
ByLayer
 62
  256
370
   -1
100
AcDbPolyline
 90
    7
 70
    0
 43
0
 10
-0.5455961554244355
 20
3.021e-013
 10
-0.1184512643660584
 20
4.073e-013
 10
0.0331671363839945
 20
4.783e-013
 10
-0.09238630750863321
 20
5.125e-013
 10
0.2291037630818668
 20
5.938e-013
 10
0.440144132422902
 20
6.475e-013
 10
0.5390957367246202
 20
6.714e-013
  0
LWPOLYLINE
  5
7D
100
AcDbEntity
  8
0
  6
ByLayer
 62
  256
370
   -1
100
AcDbPolyline
 90
    3
 70
    0
 43
0
 10
-4.603987729862268
 20
-2.283e-013
 10
-4.36806814153898
 20
-2.029e-013
 10
-4.059659824282837
 20
-1.683e-013
  0
LWPOLYLINE
  5
7E
100
AcDbEntity
  8
0
  6
ByLayer
 62
  256
370
   -1
100
AcDbPolyline
 90
   10
 70
    0
 43
0
 10
8.367202400713735
 20
1.8376e-012
 10
9.030574690164467
 20
1.954e-012
 10
9.637166405929781
 20
2.0668e-012
 10
10.18634761664857
 20
2.184e-012
 10
10.90504443725375
 20
2.3173e-012
 10
11.4442243142652
 20
2.4327e-012
 10
11.7996730394961
 20
2.5215e-012
 10
11.9686124400366
 20
2.5935e-012
 10
11.94972209234123
 20
2.6343e-012
 10
12.24811952478629
 20
2.685e-012
  0
LWPOLYLINE
  5
7F
100
AcDbEntity
  8
0
  6
ByLayer
 62
  256
370
   -1
100
AcDbPolyline
 90
    6
 70
    0
 43
0
 10
8.367202400713735
 20
1.8376e-012
 10
8.245820750793467
 20
1.8474e-012
 10
8.076543723955098
 20
1.8208e-012
 10
7.861137383068151
 20
1.763e-012
 10
7.601849056949798
 20
1.676e-012
 10
7.301383894041049
 20
1.5561e-012
  0
LWPOLYLINE
  5
80
100
AcDbEntity
  8
0
  6
ByLayer
 62
  256
370
   -1
100
AcDbPolyline
 90
   10
 70
    0
 43
0
 10
6.476254238987021
 20
1.3429e-012
 10
6.958031806317944
 20
1.4158e-012
 10
7.434395115282497
 20
1.4841e-012
 10
7.905173282789428
 20
1.5445e-012
 10
8.175786794652176
 20
1.5801e-012
 10
8.773755956352359
 20
1.6644e-012
 10
9.354685948712484
 20
1.7426e-012
 10
9.908689507771118
 20
1.8137e-012
 10
10.42633764983676
 20
1.8865e-012
 10
10.89882015011982
 20
1.9407e-012
  0
LWPOLYLINE
  5
81
100
AcDbEntity
  8
0
  6
ByLayer
 62
  256
370
   -1
100
AcDbPolyline
 90
   13
 70
    0
 43
0
 10
10.89882015011982
 20
1.9407e-012
 10
10.36618198714438
 20
1.851e-012
 10
9.775996061619001
 20
1.7719e-012
 10
9.142576348499304
 20
1.6795e-012
 10
8.481285386127642
 20
1.581e-012
 10
7.808161683496467
 20
1.4855e-012
 10
6.864570945193396
 20
1.3571e-012
 10
5.954169342054531
 20
1.2306e-012
 10
5.10240648631441
 20
1.1178e-012
 10
4.579734750987152
 20
1.0449e-012
 10
3.554655603876111
 20
9.031e-013
 10
2.536299556103953
 20
7.629e-013
 10
1.539119269031213
 20
6.248e-013
  0
LWPOLYLINE
  5
82
100
AcDbEntity
  8
0
  6
ByLayer
 62
  256
370
   -1
100
AcDbPolyline
 90
   15
 70
    0
 43
0
 10
-2.11346828497147
 20
8.675e-013
 10
-2.352026888253697
 20
8.138e-013
 10
-2.62973467388858
 20
7.618e-013
 10
-2.944633173515228
 20
7.132e-013
 10
-3.294501640073914
 20
6.69e-013
 10
-3.676872709098551
 20
6.273e-013
 10
-3.901631584342312
 20
6.013e-013
 10
-3.975370274387394
 20
5.822e-013
 10
-3.884511728049354
 20
5.76e-013
 10
-3.296748237688495
 20
6.408e-013
 10
-2.728231384927097
 20
7.07e-013
 10
-2.179218254716227
 20
7.689e-013
 10
-1.632142230817395
 20
8.344e-013
 10
-0.9982308356200007
 20
9.107999999999999e-013
 10
-0.2849584263514021
 20
9.961e-013
  0
LWPOLYLINE
  5
83
100
AcDbEntity
  8
0
  6
ByLayer
 62
  256
370
   -1
100
AcDbPolyline
 90
   11
 70
    0
 43
0
 10
14.41190342186177
 20
3.2481e-012
 10
14.55811326124443
 20
3.2498e-012
 10
14.74072412737204
 20
3.2534e-012
 10
14.95937308131172
 20
3.2703e-012
 10
15.17903146847746
 20
3.2809e-012
 10
15.26034017912934
 20
3.2658e-012
 10
15.20239577270221
 20
3.2347e-012
 10
15.00584208337901
 20
3.1868e-012
 10
14.67286306629498
 20
3.1166e-012
 10
14.39776146970688
 20
3.058e-012
 10
14.33406532209912
 20
2.979e-012
  0
LWPOLYLINE
  5
84
100
AcDbEntity
  8
0
  6
ByLayer
 62
  256
370
   -1
100
AcDbPolyline
 90
   13
 70
    0
 43
0
 10
11.40677497042613
 20
2.7924e-012
 10
11.4135365798901
 20
2.8173e-012
 10
11.5548723499972
 20
2.8129e-012
 10
11.82415011662379
 20
2.8253e-012
 10
11.93582051926337
 20
2.8324e-012
 10
11.99676044774671
 20
2.8377e-012
 10
12.00583365259836
 20
2.8253e-012
 10
11.94648360477175
 20
2.7871e-012
 10
11.99026251906956
 20
2.7738e-012
 10
12.13684693058127
 20
2.78e-012
 10
12.25306190041487
 20
2.7818e-012
 10
12.34283024399916
 20
2.7764e-012
 10
12.37444797841999
 20
2.7631e-012
  0
LWPOLYLINE
  5
85
100
AcDbEntity
  8
0
  6
ByLayer
 62
  256
370
   -1
100
AcDbPolyline
 90
    4
 70
    0
 43
0
 10
-3.585066167883858
 20
-3.53e-014
 10
-2.703038615500778
 20
8.46e-014
 10
-1.881912183720732
 20
1.937e-013
 10
-1.158401440614683
 20
2.848e-013
  0
LWPOLYLINE
  5
86
100
AcDbEntity
  8
0
  6
ByLayer
 62
  256
370
   -1
100
AcDbPolyline
 90
    4
 70
    0
 43
0
 10
2.834552201789487
 20
8.913e-013
 10
3.581381635966243
 20
1.0125e-012
 10
4.46585696828402
 20
1.1404e-012
 10
5.423288677563171
 20
1.2781e-012
  0
LWPOLYLINE
  5
87
100
AcDbEntity
  8
0
  6
ByLayer
 62
  256
370
   -1
100
AcDbPolyline
 90
    4
 70
    0
 43
0
 10
1.463251364615902
 20
1.676e-012
 10
1.317790247205291
 20
1.6548e-012
 10
1.363425127834363
 20
1.6572e-012
 10
1.582604030794727
 20
1.6815e-012
  0
LWPOLYLINE
  5
88
100
AcDbEntity
  8
0
  6
ByLayer
 62
  256
370
   -1
100
AcDbPolyline
 90
    4
 70
    0
 43
0
 10
7.991525904322009
 20
2.6117e-012
 10
8.028728113106165
 20
2.6108e-012
 10
7.988728485902156
 20
2.6015e-012
 10
7.875402093224358
 20
2.5815e-012
  0
LWPOLYLINE
  5
89
100
AcDbEntity
  8
0
  6
ByLayer
 62
  256
370
   -1
100
AcDbPolyline
 90
   15
 70
    0
 43
0
 10
1.240022721246939
 20
1.6627e-012
 10
1.244269722899008
 20
1.6636e-012
 10
1.288540939141273
 20
1.6754e-012
 10
1.374040364514628
 20
1.6984e-012
 10
1.500338561966077
 20
1.7322e-012
 10
1.665388785290718
 20
1.7755e-012
 10
2.079937545494577
 20
1.8561e-012
 10
2.549121082404039
 20
1.9458e-012
 10
3.062508299241277
 20
2.0395e-012
 10
3.608685343383497
 20
2.139e-012
 10
4.175509364203811
 20
2.24e-012
 10
4.750378478319582
 20
2.3404e-012
 10
5.32051194026088
 20
2.4376e-012
 10
5.873234289680187
 20
2.5335e-012
 10
6.39625715781672
 20
2.6192e-012
  0
LWPOLYLINE
  5
8A
100
AcDbEntity
  8
0
  6
ByLayer
 62
  256
370
   -1
100
AcDbPolyline
 90
    6
 70
    0
 43
0
 10
14.55073541057087
 20
2.9781e-012
 10
14.5974239133415
 20
2.9781e-012
 10
14.58950519336378
 20
2.9745e-012
 10
14.5271858841418
 20
2.9736e-012
 10
14.41209216481508
 20
2.971e-012
 10
14.24722732614202
 20
2.9692e-012
  0
LWPOLYLINE
  5
8B
100
AcDbEntity
  8
0
  6
ByLayer
 62
  256
370
   -1
100
AcDbPolyline
 90
    6
 70
    0
 43
0
 10
14.55073541057087
 20
2.9781e-012
 10
14.39607345518278
 20
2.979e-012
 10
14.28657243480332
 20
2.9718e-012
 10
14.22455885147196
 20
2.9727e-012
 10
14.21135027033647
 20
2.9718e-012
 10
14.24722732614202
 20
2.9692e-012
  0
LWPOLYLINE
  5
8C
100
AcDbEntity
  8
0
  6
ByLayer
 62
  256
370
   -1
100
AcDbPolyline
 90
    5
 70
    0
 43
0
 10
13.98513317320448
 20
2.9727e-012
 10
14.04214244533687
 20
2.9621e-012
 10
14.11351460848213
 20
2.971e-012
 10
14.18628300810991
 20
2.9736e-012
 10
14.24722732614202
 20
2.9692e-012
  0
LWPOLYLINE
  5
8D
100
AcDbEntity
  8
0
  6
ByLayer
 62
  256
370
   -1
100
AcDbPolyline
 90
    4
 70
    0
 43
0
 10
14.33406532209912
 20
2.979e-012
 10
14.40886115594451
 20
2.9701e-012
 10
14.48517132706278
 20
2.979e-012
 10
14.55073541057087
 20
2.9781e-012
  0
LWPOLYLINE
  5
8E
100
AcDbEntity
  8
0
  6
ByLayer
 62
  256
370
   -1
100
AcDbPolyline
 90
    4
 70
    0
 43
0
 10
12.37444797841999
 20
2.7631e-012
 10
13.01422432755242
 20
2.8439e-012
 10
13.70839597248671
 20
2.9132e-012
 10
14.33406532209912
 20
2.979e-012
  0
LWPOLYLINE
  5
8F
100
AcDbEntity
  8
0
  6
ByLayer
 62
  256
370
   -1
100
AcDbPolyline
 90
    2
 70
    0
 43
0
 10
12.37444797841999
 20
2.7631e-012
 10
12.40606571284081
 20
2.7605e-012
  0
LWPOLYLINE
  5
90
100
AcDbEntity
  8
0
  6
ByLayer
 62
  256
370
   -1
100
AcDbPolyline
 90
    4
 70
    0
 43
0
 10
14.33406532209912
 20
2.979e-012
 10
14.14128728951484
 20
2.9692e-012
 10
14.01422338556578
 20
2.9754e-012
 10
13.96100556215165
 20
2.9754e-012
  0
LWPOLYLINE
  5
91
100
AcDbEntity
  8
0
  6
ByLayer
 62
  256
370
   -1
100
AcDbPolyline
 90
    4
 70
    0
 43
0
 10
11.40677497042613
 20
2.7924e-012
 10
11.7317412891131
 20
2.9727e-012
 10
11.92848660813509
 20
2.9514e-012
 10
11.9940438490364
 20
2.7436e-012
  0
LWPOLYLINE
  5
92
100
AcDbEntity
  8
0
  6
ByLayer
 62
  256
370
   -1
100
AcDbPolyline
 90
   10
 70
    0
 43
0
 10
2.084155172470734
 20
1.7071e-012
 10
2.311572380064072
 20
1.7517e-012
 10
2.631451886479294
 20
1.7844e-012
 10
3.036585894756318
 20
1.8292e-012
 10
3.830997660241309
 20
1.9189e-012
 10
4.221450890540002
 20
1.9731e-012
 10
5.81590417651431
 20
1.9695e-012
 10
6.158585627580605
 20
2.256e-012
 10
6.89125761359585
 20
1.8288e-012
 10
7.012631826796163
 20
1.9797e-012
  0
LWPOLYLINE
  5
93
100
AcDbEntity
  8
0
  6
ByLayer
 62
  256
370
   -1
100
AcDbPolyline
 90
    8
 70
    0
 43
0
 10
0.5390957367246202
 20
6.714e-013
 10
1.120236459882955
 20
7.745e-013
 10
1.64666792303902
 20
8.652e-013
 10
2.117605919625464
 20
9.455e-013
 10
2.836483707913796
 20
1.0574e-012
 10
3.499958178486244
 20
1.1546e-012
 10
4.107494209433894
 20
1.3118e-012
 10
4.45305241971148
 20
1.3234e-012
  0
LWPOLYLINE
  5
94
100
AcDbEntity
  8
0
  6
ByLayer
 62
  256
370
   -1
100
AcDbPolyline
 90
    4
 70
    0
 43
0
 10
5.964828129475956
 20
1.3114e-012
 10
6.99832489515742
 20
1.5232e-012
 10
7.799757072339112
 20
1.6991e-012
 10
8.367202400713735
 20
1.8376e-012
  0
LWPOLYLINE
  5
95
100
AcDbEntity
  8
0
  6
ByLayer
 62
  256
370
   -1
100
AcDbPolyline
 90
   13
 70
    0
 43
0
 10
-1.354568730010465
 20
7.779e-013
 10
-1.965210690024969
 20
5.93e-013
 10
-2.249127423888292
 20
4.627e-013
 10
-2.383827943647419
 20
3.642e-013
 10
-2.624920945945834
 20
3.109e-013
 10
-3.362101626485623
 20
1.541e-013
 10
-3.953952783763342
 20
2.04e-014
 10
-4.398716619875702
 20
-8.97e-014
 10
-4.695072186254848
 20
-1.763e-013
 10
-4.842139306885635
 20
-2.403e-013
 10
-4.84312444732973
 20
-2.474e-013
 10
-4.763272853199343
 20
-2.429e-013
 10
-4.603987729862268
 20
-2.283e-013
  0
LINE
  5
96
100
AcDbEntity
  8
0
  6
ByLayer
 62
  256
370
   -1
100
AcDbLine
 10
6.924618307686466
 20
-5.9245733e-009
 11
6.242079469706129
 21
1.8807e-012
  0
LINE
  5
97
100
AcDbEntity
  8
0
  6
ByLayer
 62
  256
370
   -1
100
AcDbLine
 10
-0.9101019040054457
 20
1.2261e-012
 11
1.292257182880954
 21
1.5132e-012
  0
LINE
  5
98
100
AcDbEntity
  8
0
  6
ByLayer
 62
  256
370
   -1
100
AcDbLine
 10
11.9940438490364
 20
2.7436e-012
 11
11.9940438490364
 21
2.7436e-012
  0
LINE
  5
99
100
AcDbEntity
  8
0
  6
ByLayer
 62
  256
370
   -1
100
AcDbLine
 10
11.9940438490364
 20
2.7436e-012
 11
10.04339165690868
 21
2.764e-012
  0
LINE
  5
9A
100
AcDbEntity
  8
0
  6
ByLayer
 62
  256
370
   -1
100
AcDbLine
 10
7.012631826796163
 20
1.9797e-012
 11
7.112988985585726
 21
2.2449e-012
  0
LINE
  5
9B
100
AcDbEntity
  8
0
  6
ByLayer
 62
  256
370
   -1
100
AcDbLine
 10
7.625631904373243
 20
2.5255e-012
 11
7.623675580396798
 21
2.5793e-012
  0
LINE
  5
9C
100
AcDbEntity
  8
0
  6
ByLayer
 62
  256
370
   -1
100
AcDbLine
 10
6.318452865608144
 20
2.4469e-012
 11
6.295263357843616
 21
2.4336e-012
  0
LINE
  5
9D
100
AcDbEntity
  8
0
  6
ByLayer
 62
  256
370
   -1
100
AcDbLine
 10
-0.5455961554244355
 20
3.021e-013
 11
-1.158401440614683
 21
2.848e-013
  0
LWPOLYLINE
  5
9E
100
AcDbEntity
  8
0
  6
ByLayer
 62
  256
370
   -1
100
AcDbPolyline
 90
    3
 70
    0
 43
0
 10
2.084155172470734
 20
1.7071e-012
 10
2.035679865964193
 20
1.7319e-012
 10
1.997865419578129
 20
1.7303e-012
  0
LINE
  5
9F
100
AcDbEntity
  8
0
  6
ByLayer
 62
  256
370
   -1
100
AcDbLine
 10
-0.8309132458135493
 20
3.797e-013
 11
-0.5455961554244355
 21
3.021e-013
  0
LWPOLYLINE
  5
A0
100
AcDbEntity
  8
0
  6
ByLayer
 62
  256
370
   -1
100
AcDbPolyline
 90
   12
 70
    0
 43
0
 10
1.240022721246939
 20
1.6627e-012
 10
1.146409596314031
 20
1.6417e-012
 10
1.064323041692107
 20
1.6225e-012
 10
1.003701666495361
 20
1.6088e-012
 10
0.9377476038728724
 20
1.6043e-012
 10
0.9538383894471656
 20
1.6068e-012
 10
1.054531265186947
 20
1.6175e-012
 10
1.236528972612215
 20
1.6357e-012
 10
1.491763441919093
 20
1.6614e-012
 10
1.609215581537357
 20
1.6779e-012
 10
1.813592285987771
 20
1.7052e-012
 10
1.997865419578129
 20
1.7303e-012
  0
LWPOLYLINE
  5
A1
100
AcDbEntity
  8
0
  6
ByLayer
 62
  256
370
   -1
100
AcDbPolyline
 90
    6
 70
    0
 43
0
 10
7.112988985585726
 20
2.2449e-012
 10
7.285997311119974
 20
2.2933e-012
 10
7.424886009638909
 20
2.4434e-012
 10
7.528261717864813
 20
2.5433e-012
 10
7.593383291118435
 20
2.5873e-012
 10
7.623675580396798
 20
2.5793e-012
  0
LWPOLYLINE
  5
A2
100
AcDbEntity
  8
0
  6
ByLayer
 62
  256
370
   -1
100
AcDbPolyline
 90
    7
 70
    0
 43
0
 10
7.625631904373257
 20
2.5433e-012
 10
7.631847785159769
 20
2.776e-012
 10
7.596366979815697
 20
2.7875e-012
 10
7.519259647540045
 20
2.5846e-012
 10
7.070354686248248
 20
2.5269e-012
 10
6.660401187592941
 20
2.4767e-012
 10
6.295263357843616
 20
2.4336e-012
  0
LWPOLYLINE
  5
A3
100
AcDbEntity
  8
0
  6
ByLayer
 62
  256
370
   -1
100
AcDbPolyline
 90
    9
 70
    0
 43
0
 10
8.103794360899018
 20
2.6485e-012
 10
8.025980569748626
 20
2.6597e-012
 10
7.969494813841311
 20
2.6605e-012
 10
7.934414908517148
 20
2.6441e-012
 10
7.818064928626324
 20
2.6295e-012
 10
7.589942162144352
 20
2.6175e-012
 10
7.263408513440731
 20
2.6104e-012
 10
6.857590137500721
 20
2.613e-012
 10
6.39625715781672
 20
2.6192e-012
  0
LWPOLYLINE
  5
A4
100
AcDbEntity
  8
0
  6
ByLayer
 62
  256
370
   -1
100
AcDbPolyline
 90
    4
 70
    0
 43
0
 10
6.39625715781672
 20
2.6192e-012
 10
6.406979396071491
 20
2.5611e-012
 10
6.380878831393332
 20
2.5042e-012
 10
6.318452865608144
 20
2.4469e-012
  0
LWPOLYLINE
  5
A5
100
AcDbEntity
  8
0
  6
ByLayer
 62
  256
370
   -1
100
AcDbPolyline
 90
   11
 70
    0
 43
0
 10
7.623675580396798
 20
2.5793e-012
 10
7.879199280716668
 20
2.5873e-012
 10
8.046942675533202
 20
2.5882e-012
 10
8.110980143080813
 20
2.5997e-012
 10
8.213810923944596
 20
2.6263e-012
 10
8.277354314868843
 20
2.6432e-012
 10
8.30090034080599
 20
2.6592e-012
 10
8.284185920251524
 20
2.661e-012
 10
8.22672428855938
 20
2.6574e-012
 10
8.161376124493479
 20
2.6521e-012
 10
8.103794360899018
 20
2.6485e-012
  0
LWPOLYLINE
  5
A6
100
AcDbEntity
  8
0
  6
ByLayer
 62
  256
370
   -1
100
AcDbPolyline
 90
    7
 70
    0
 43
0
 10
5.58918103530166
 20
2.1374e-012
 10
4.801177440448548
 20
2.0308e-012
 10
3.944474203675076
 20
1.9094e-012
 10
3.030420985034278
 20
1.7759e-012
 10
2.410842106098155
 20
1.6833e-012
 10
1.824545897266507
 20
1.5945e-012
 10
1.292257182880954
 20
1.5132e-012
  0
LWPOLYLINE
  5
A7
100
AcDbEntity
  8
0
  6
ByLayer
 62
  256
370
   -1
100
AcDbPolyline
 90
    4
 70
    0
 43
0
 10
1.292257182880954
 20
1.5132e-012
 10
0.982095915086569
 20
1.4895e-012
 10
0.7588754752849391
 20
1.4765e-012
 10
0.6241513013981513
 20
1.4747e-012
  0
LWPOLYLINE
  5
A8
100
AcDbEntity
  8
0
  6
ByLayer
 62
  256
370
   -1
100
AcDbPolyline
 90
   14
 70
    0
 43
0
 10
0.6241513013981513
 20
1.4747e-012
 10
0.6125405478005145
 20
1.475e-012
 10
0.7411534776387763
 20
1.4947e-012
 10
0.8687013752591086
 20
1.5142e-012
 10
0.9951775288514157
 20
1.5334e-012
 10
1.120575283002831
 20
1.5521e-012
 10
1.244888039047895
 20
1.5712e-012
 10
1.368109255415841
 20
1.5892e-012
 10
1.490232447974622
 20
1.6088e-012
 10
1.611251190372487
 20
1.6266e-012
 10
1.731159114375659
 20
1.6449e-012
 10
1.849949910203991
 20
1.6636e-012
 10
1.967617326862525
 20
1.6817e-012
 10
2.084155172470731
 20
1.6995e-012
  0
LWPOLYLINE
  5
A9
100
AcDbEntity
  8
0
  6
ByLayer
 62
  256
370
   -1
100
AcDbPolyline
 90
   13
 70
    0
 43
0
 10
2.084155172470731
 20
1.6995e-012
 10
2.023926633772223
 20
1.6946e-012
 10
1.99316179315463
 20
1.6921e-012
 10
1.99317511981994
 20
1.6893e-012
 10
2.02394190228421
 20
1.6873e-012
 10
2.084155172470763
 20
1.6847e-012
 10
2.298984285238805
 20
1.6924e-012
 10
2.595845730151423
 20
1.7248e-012
 10
2.967711349413845
 20
1.779e-012
 10
4.145236669183982
 20
1.9011e-012
 10
4.723095311823778
 20
1.9975e-012
 10
5.211521683813965
 20
2.0783e-012
 10
5.58918103530166
 20
2.1374e-012
  0
LWPOLYLINE
  5
AA
100
AcDbEntity
  8
0
  6
ByLayer
 62
  256
370
   -1
100
AcDbPolyline
 90
   13
 70
    0
 43
0
 10
8.444396645907604
 20
2.5704e-012
 10
8.65042456177868
 20
2.5562e-012
 10
7.961949988198059
 20
2.4625e-012
 10
7.317638913069327
 20
2.3666e-012
 10
6.734356332217319
 20
2.2844e-012
 10
6.226361393600405
 20
2.2053e-012
 10
5.802645399132071
 20
2.133e-012
 10
5.755265276436795
 20
2.1085e-012
 10
5.745868345679245
 20
2.0979e-012
 10
5.651963662619006
 20
2.1325e-012
 10
5.62865669476851
 20
2.1321e-012
 10
5.607728079574057
 20
2.1347e-012
 10
5.58918103530166
 20
2.1374e-012
  0
LWPOLYLINE
  5
AB
100
AcDbEntity
  8
0
  6
ByLayer
 62
  256
370
   -1
100
AcDbPolyline
 90
   10
 70
    0
 43
0
 10
5.58918103530166
 20
2.1374e-012
 10
6.178947037290245
 20
2.208e-012
 10
6.71286373359132
 20
2.2844e-012
 10
7.187609411688827
 20
2.3626e-012
 10
7.280712267534337
 20
2.3856e-012
 10
7.319952981108591
 20
2.3963e-012
 10
7.304840092719829
 20
2.4021e-012
 10
7.235562879646546
 20
2.4034e-012
 10
7.112988985585725
 20
2.399e-012
 10
7.112988985585701
 20
2.2902e-012
  0
LWPOLYLINE
  5
AC
100
AcDbEntity
  8
0
  6
ByLayer
 62
  256
370
   -1
100
AcDbPolyline
 90
   12
 70
    0
 43
0
 10
7.112988985585701
 20
2.2902e-012
 10
7.199931220985899
 20
2.3213e-012
 10
7.291645957778188
 20
2.3532e-012
 10
7.388023064461017
 20
2.3772e-012
 10
7.488946810936354
 20
2.4021e-012
 10
7.594296007479186
 20
2.4292e-012
 10
7.703944150262442
 20
2.4518e-012
 10
7.817759573263569
 20
2.4749e-012
 10
7.935605606369567
 20
2.4962e-012
 10
8.057340739491393
 20
2.5171e-012
 10
8.182818792489723
 20
2.5384e-012
 10
8.311889090708849
 20
2.5562e-012
  0
LWPOLYLINE
  5
AD
100
AcDbEntity
  8
0
  6
ByLayer
 62
  256
370
   -1
100
AcDbPolyline
 90
   13
 70
    0
 43
0
 10
8.311889090708849
 20
2.5562e-012
 10
8.44184590858303
 20
2.5748e-012
 10
8.574493324859676
 20
2.5882e-012
 10
8.709807150011919
 20
2.6059e-012
 10
8.847762708268153
 20
2.6228e-012
 10
8.988334842110845
 20
2.637e-012
 10
9.13149791686538
 20
2.6565e-012
 10
9.277225825373867
 20
2.6734e-012
 10
9.425491992756674
 20
2.6894e-012
 10
9.576269381258189
 20
2.7063e-012
 10
9.729530495177695
 20
2.7205e-012
 10
9.885247385883321
 20
2.7391e-012
 10
10.04339165690868
 20
2.764e-012
  0
LWPOLYLINE
  5
AE
100
AcDbEntity
  8
0
  6
ByLayer
 62
  256
370
   -1
100
AcDbPolyline
 90
   13
 70
    0
 43
0
 10
10.04339165690868
 20
2.764e-012
 10
9.904621851944757
 20
2.7356e-012
 10
9.765913926716856
 20
2.7134e-012
 10
9.627554142629929
 20
2.693e-012
 10
9.489828042605474
 20
2.6779e-012
 10
9.353019861786038
 20
2.6565e-012
 10
9.217411940939073
 20
2.6397e-012
 10
9.083284143770191
 20
2.6263e-012
 10
8.950913279348571
 20
2.613e-012
 10
8.820572530836428
 20
2.6024e-012
 10
8.692530891701374
 20
2.5864e-012
 10
8.567052610575734
 20
2.5819e-012
 10
8.444396645907604
 20
2.5704e-012
  0
LWPOLYLINE
  5
AF
100
AcDbEntity
  8
0
  6
ByLayer
 62
  256
370
   -1
100
AcDbPolyline
 90
    6
 70
    0
 43
0
 10
-2.11346828497147
 20
8.675e-013
 10
-1.464278584682301
 20
8.923e-013
 10
-0.953520929816543
 20
9.172e-013
 10
-0.5850416302727272
 20
9.427e-013
 10
-0.3616155550395638
 20
9.698e-013
 10
-0.2849584263514021
 20
9.961e-013
  0
LWPOLYLINE
  5
B0
100
AcDbEntity
  8
0
  6
ByLayer
 62
  256
370
   -1
100
AcDbPolyline
 90
    5
 70
    0
 43
0
 10
6.924618307686466
 20
-5.9245733e-009
 10
7.325990031229495
 20
-3.9501074e-009
 10
7.74222936684609
 20
-1.9693553e-009
 10
8.170070864094999
 20
2.1183e-012
 10
8.82465769544833
 20
2.2249e-012
  0
LWPOLYLINE
  5
B1
100
AcDbEntity
  8
0
  6
ByLayer
 62
  256
370
   -1
100
AcDbPolyline
 90
    4
 70
    0
 43
0
 10
11.14046717317345
 20
2.5304e-012
 10
11.49320374358404
 20
2.5775e-012
 10
11.86597341423908
 20
2.6317e-012
 10
12.24811952478629
 20
2.685e-012
  0
LWPOLYLINE
  5
B2
100
AcDbEntity
  8
0
  6
ByLayer
 62
  256
370
   -1
100
AcDbPolyline
 90
   13
 70
    0
 43
0
 10
12.24811952478629
 20
2.685e-012
 10
12.40404853979856
 20
2.7027e-012
 10
12.55801950299993
 20
2.7294e-012
 10
12.7100094507639
 20
2.7471e-012
 10
12.8599957149177
 20
2.7756e-012
 10
13.00795592612317
 20
2.8004e-012
 10
13.15386801721287
 20
2.8235e-012
 10
13.29771022648122
 20
2.8493e-012
 10
13.43946110093025
 20
2.8768e-012
 10
13.57909949946898
 20
2.8963e-012
 10
13.71660459606663
 20
2.9203e-012
 10
13.85195588285843
 20
2.9488e-012
 10
13.98513317320448
 20
2.9727e-012
  0
LWPOLYLINE
  5
B3
100
AcDbEntity
  8
0
  6
ByLayer
 62
  256
370
   -1
100
AcDbPolyline
 90
    4
 70
    0
 43
0
 10
13.98513317320448
 20
2.9727e-012
 10
14.0100496553836
 20
2.9683e-012
 10
14.0100496553836
 20
2.9683e-012
 10
13.96100556215165
 20
2.9754e-012
  0
LWPOLYLINE
  5
B4
100
AcDbEntity
  8
0
  6
ByLayer
 62
  256
370
   -1
100
AcDbPolyline
 90
    5
 70
    0
 43
0
 10
13.96100556215165
 20
2.9754e-012
 10
13.86118920308772
 20
2.9718e-012
 10
13.44134858579491
 20
2.9052e-012
 10
12.92947248476869
 20
2.8395e-012
 10
12.40606571284081
 20
2.7605e-012
  0
LWPOLYLINE
  5
B5
100
AcDbEntity
  8
0
  6
ByLayer
 62
  256
370
   -1
100
AcDbPolyline
 90
    5
 70
    0
 43
0
 10
12.40606571284081
 20
2.7605e-012
 10
12.24947274606656
 20
2.7454e-012
 10
11.93688234311202
 20
2.7214e-012
 10
11.62676786355091
 20
2.685e-012
 10
11.32061690631878
 20
2.6379e-012
  0
LWPOLYLINE
  5
B6
100
AcDbEntity
  8
0
  6
ByLayer
 62
  256
370
   -1
100
AcDbPolyline
 90
    4
 70
    0
 43
0
 10
11.32061690631878
 20
2.6379e-012
 10
11.20865197544634
 20
2.6024e-012
 10
11.09673663058932
 20
2.5828e-012
 10
11.01989774326042
 20
2.5651e-012
  0
LWPOLYLINE
  5
B7
100
AcDbEntity
  8
0
  6
ByLayer
 62
  256
370
   -1
100
AcDbPolyline
 90
    9
 70
    0
 43
0
 10
11.01989774326042
 20
2.5651e-012
 10
10.92350731523185
 20
2.5571e-012
 10
10.61604212064901
 20
2.5056e-012
 10
10.30895726656484
 20
2.4558e-012
 10
10.00225344524821
 20
2.407e-012
 10
9.695931348108967
 20
2.3617e-012
 10
9.389991665696485
 20
2.3093e-012
 10
9.084435087697999
 20
2.2684e-012
 10
8.82465769544833
 20
2.2249e-012
  0
LWPOLYLINE
  5
B8
100
AcDbEntity
  8
0
  6
ByLayer
 62
  256
370
   -1
100
AcDbPolyline
 90
   26
 70
    0
 43
0
 10
8.82465769544833
 20
2.2249e-012
 10
8.838127146204709
 20
2.2222e-012
 10
9.07337419368111
 20
2.2453e-012
 10
9.408634607174308
 20
2.2959e-012
 10
9.515719458761264
 20
2.311e-012
 10
9.621626046730569
 20
2.3199e-012
 10
9.726251059460552
 20
2.343e-012
 10
9.829492435503008
 20
2.3563e-012
 10
9.931249463144059
 20
2.3732e-012
 10
10.03142287864806
 20
2.3874e-012
 10
10.12991496308925
 20
2.4034e-012
 10
10.22662963767623
 20
2.4176e-012
 10
10.32147255747667
 20
2.4292e-012
 10
10.41435120345049
 20
2.4469e-012
 10
10.50562890155607
 20
2.4469e-012
 10
10.59380223868469
 20
2.4505e-012
 10
10.67801045318823
 20
2.4576e-012
 10
10.75743149155396
 20
2.4611e-012
 10
10.83129003341733
 20
2.4718e-012
 10
10.89886506035827
 20
2.4798e-012
 10
10.95949689459373
 20
2.4869e-012
 10
11.01259363885323
 20
2.4958e-012
 10
11.05763695457104
 20
2.5064e-012
 10
11.09418712198676
 20
2.5064e-012
 10
11.12188733275704
 20
2.5215e-012
 10
11.14046717317345
 20
2.5304e-012
  0
LWPOLYLINE
  5
B9
100
AcDbEntity
  8
0
  6
ByLayer
 62
  256
370
   -1
100
AcDbPolyline
 90
    3
 70
    0
 43
0
 10
-1.354568730010465
 20
7.779e-013
 10
-1.02822388323822
 20
8.057e-013
 10
-0.2873933264283512
 20
9.215000000000001e-013
  0
LWPOLYLINE
  5
BA
100
AcDbEntity
  8
0
  6
ByLayer
 62
  256
370
   -1
100
AcDbPolyline
 90
    6
 70
    0
 43
0
 10
-1.315262775397914
 20
7.837e-013
 10
-1.303075020531141
 20
8.05e-013
 10
-1.348935688667497
 20
8.001e-013
 10
-1.451223860159518
 20
7.699e-013
 10
-1.451223860159588
 20
7.696e-013
 10
-1.354568730010465
 20
7.779e-013
  0
LWPOLYLINE
  5
BB
100
AcDbEntity
  8
0
  6
ByLayer
 62
  256
370
   -1
100
AcDbPolyline
 90
    3
 70
    0
 43
0
 10
3.052334310483061
 20
1.3893e-012
 10
3.158807287435376
 20
1.3893e-012
 10
3.212733303581399
 20
1.3891e-012
  0
LWPOLYLINE
  5
BC
100
AcDbEntity
  8
0
  6
ByLayer
 62
  256
370
   -1
100
AcDbPolyline
 90
    6
 70
    0
 43
0
 10
-0.8309132458135493
 20
3.797e-013
 10
-1.097093293967634
 20
4.284e-013
 10
-1.952170348972553
 20
4.703e-013
 10
-2.654337818073676
 20
3.659e-013
 10
-3.358290887830488
 20
1.561e-013
 10
-4.059659824282837
 20
-1.683e-013
  0
LWPOLYLINE
  5
BD
100
AcDbEntity
  8
0
  6
ByLayer
 62
  256
370
   -1
100
AcDbPolyline
 90
    7
 70
    0
 43
0
 10
-4.556171902704357
 20
-3.135e-013
 10
-4.587915982721329
 20
-3.166e-013
 10
-4.601783500112495
 20
-3.157e-013
 10
-4.597567680703252
 20
-3.122e-013
 10
-4.38094849367014
 20
-2.633e-013
 10
-4.201533214166481
 20
-2.18e-013
 10
-4.059659824282837
 20
-1.683e-013
  0
LWPOLYLINE
  5
BE
100
AcDbEntity
  8
0
  6
ByLayer
 62
  256
370
   -1
100
AcDbPolyline
 90
    6
 70
    0
 43
0
 10
-0.0356972601034472
 20
2.292e-013
 10
-0.9394837869775063
 20
1.568e-013
 10
-1.872447069672819
 20
6.349999999999999e-014
 10
-2.805474708007912
 20
-4.91e-014
 10
-3.70945229363319
 20
-1.765e-013
 10
-4.556171902704357
 20
-3.135e-013
  0
LWPOLYLINE
  5
BF
100
AcDbEntity
  8
0
  6
ByLayer
 62
  256
370
   -1
100
AcDbPolyline
 90
   10
 70
    0
 43
0
 10
-0.8309132458135493
 20
3.797e-013
 10
-0.8155989723367737
 20
3.736e-013
 10
-0.7302267683569075
 20
3.413e-013
 10
-0.57787392750467
 20
2.846e-013
 10
-0.4062365031889433
 20
2.247e-013
 10
-0.2643175928877859
 20
1.834e-013
 10
-0.1547912733424755
 20
1.635e-013
 10
-0.081490702021391
 20
1.648e-013
 10
-0.0417603172006125
 20
1.874e-013
 10
-0.0356972601034472
 20
2.292e-013
  0
LWPOLYLINE
  5
C0
100
AcDbEntity
  8
0
  6
ByLayer
 62
  256
370
   -1
100
AcDbPolyline
 90
    6
 70
    0
 43
0
 10
-6.278311401493848
 20
3.331e-013
 10
-5.353117915527095
 20
4.619e-013
 10
-4.445313259077187
 20
5.893e-013
 10
-3.563921118703559
 20
7.063e-013
 10
-2.71787274400477
 20
8.202e-013
 10
-1.915741242069887
 20
9.258e-013
  0
LWPOLYLINE
  5
C1
100
AcDbEntity
  8
0
  6
ByLayer
 62
  256
370
   -1
100
AcDbPolyline
 90
   27
 70
    0
 43
0
 10
-1.315262775397914
 20
7.837e-013
 10
-1.528845200002241
 20
7.377e-013
 10
-1.746284714571633
 20
6.959e-013
 10
-1.967518752694392
 20
6.577e-013
 10
-2.1924836561162
 20
6.233e-013
 10
-2.421114693057325
 20
5.942e-013
 10
-2.653346076838584
 20
5.669e-013
 10
-2.889110984810966
 20
5.445e-013
 10
-3.128341577583224
 20
5.26e-013
 10
-3.370969018542179
 20
5.116e-013
 10
-3.616923493659809
 20
5.012e-013
 10
-3.866134231581691
 20
4.936e-013
 10
-4.913877648862146
 20
4.388e-013
 10
-5.834418612021902
 20
3.286e-013
 10
-6.611578969445929
 20
1.559e-013
 10
-6.777131041122567
 20
1.217e-013
 10
-6.966351470825348
 20
9.899999999999999e-014
 10
-7.177473053267969
 20
1.017e-013
 10
-7.313130221124506
 20
1.021e-013
 10
-7.413134551882065
 20
9.64e-014
 10
-7.472911093487626
 20
8.57e-014
 10
-7.542037054115506
 20
6.349999999999999e-014
 10
-7.542062543503082
 20
6.57e-014
 10
-7.472911093487626
 20
8.57e-014
 10
-7.15959686714989
 20
1.688e-013
 10
-6.76092966052736
 20
2.514e-013
 10
-6.278311401493848
 20
3.331e-013
  0
LWPOLYLINE
  5
C2
100
AcDbEntity
  8
0
  6
ByLayer
 62
  256
370
   -1
100
AcDbPolyline
 90
    5
 70
    0
 43
0
 10
-0.2873933264283512
 20
9.215000000000001e-013
 10
-0.625861795271931
 20
8.815e-013
 10
-0.90069557438028
 20
8.514e-013
 10
-1.105598897324777
 20
8.329e-013
 10
-1.315262775397914
 20
7.837e-013
  0
LWPOLYLINE
  5
C3
100
AcDbEntity
  8
0
  6
ByLayer
 62
  256
370
   -1
100
AcDbPolyline
 90
    3
 70
    0
 43
0
 10
3.052334310483061
 20
1.3893e-012
 10
4.588590873774091
 20
1.6263e-012
 10
6.242079469706129
 20
1.8807e-012
  0
LWPOLYLINE
  5
C4
100
AcDbEntity
  8
0
  6
ByLayer
 62
  256
370
   -1
100
AcDbPolyline
 90
    8
 70
    0
 43
0
 10
4.45305241971148
 20
1.3234e-012
 10
4.79861062998897
 20
1.3336e-012
 10
4.97531254749221
 20
1.3918e-012
 10
5.211449294077497
 20
1.5028e-012
 10
5.438165850522915
 20
1.6094e-012
 10
5.62509756713284
 20
1.6671e-012
 10
5.798658102450348
 20
1.72e-012
 10
5.958552469680557
 20
1.7741e-012
  0
LWPOLYLINE
  5
C5
100
AcDbEntity
  8
0
  6
ByLayer
 62
  256
370
   -1
100
AcDbPolyline
 90
    3
 70
    0
 43
0
 10
-1.915741242069887
 20
9.258e-013
 10
-2.009406792743949
 20
8.956e-013
 10
-2.11346828497147
 20
8.675e-013
  0
LWPOLYLINE
  5
C6
100
AcDbEntity
  8
0
  6
ByLayer
 62
  256
370
   -1
100
AcDbPolyline
 90
   17
 70
    0
 43
0
 10
11.40677497042613
 20
2.7924e-012
 10
11.21794988265896
 20
2.7587e-012
 10
11.28384617669136
 20
2.7489e-012
 10
11.33780761858308
 20
2.7383e-012
 10
11.37980644634163
 20
2.7338e-012
 10
11.40982105248022
 20
2.7285e-012
 10
11.42783599513444
 20
2.7205e-012
 10
11.43384200600667
 20
2.7187e-012
 10
11.42783599513444
 20
2.7205e-012
 10
11.40982105248022
 20
2.7285e-012
 10
11.37980644634163
 20
2.7338e-012
 10
11.33780761858308
 20
2.7383e-012
 10
11.28384617669137
 20
2.7507e-012
 10
11.21794988265905
 20
2.7613e-012
 10
11.41960811673202
 20
2.724e-012
 10
11.45421009861147
 20
2.6867e-012
 10
11.32061690631878
 20
2.6379e-012
  0
LINE
  5
C7
100
AcDbEntity
  8
0
  6
ByLayer
 62
  256
370
   -1
100
AcDbLine
 10
6.476254238987021
 20
1.3429e-012
 11
5.423288677563171
 21
1.2781e-012
  0
LINE
  5
C8
100
AcDbEntity
  8
0
  6
ByLayer
 62
  256
370
   -1
100
AcDbLine
 10
2.834552201789487
 20
8.913e-013
 11
1.242830255873494
 21
6.065e-013
  0
LWPOLYLINE
  5
C9
100
AcDbEntity
  8
0
  6
ByLayer
 62
  256
370
   -1
100
AcDbPolyline
 90
   13
 70
    0
 43
0
 10
6.476254238987021
 20
1.3429e-012
 10
6.225701403772421
 20
1.3087e-012
 10
5.976502641861465
 20
1.2714e-012
 10
5.728709201169863
 20
1.2337e-012
 10
5.482372040607899
 20
1.2004e-012
 10
5.237541819600716
 20
1.1622e-012
 10
4.994268887670235
 20
1.124e-012
 10
4.752603274080677
 20
1.0898e-012
 10
4.512594677549967
 20
1.0543e-012
 10
4.274292456029279
 20
1.0179e-012
 10
4.037745616552432
 20
9.819000000000001e-013
 10
3.803002805157573
 20
9.452000000000001e-013
 10
1.242830255873494
 20
6.065e-013
  0
LINE
  5
CA
100
AcDbEntity
  8
0
  6
ByLayer
 62
  256
370
   -1
100
AcDbLine
 10
-4.059659824282837
 20
-1.683e-013
 11
-3.585066167883858
 21
-3.53e-014
  0
LINE
  5
CB
100
AcDbEntity
  8
0
  6
ByLayer
 62
  256
370
   -1
100
AcDbLine
 10
4.45305241971148
 20
1.3234e-012
 11
7.301383894041049
 21
1.5561e-012
  0
LWPOLYLINE
  5
CC
100
AcDbEntity
  8
0
  6
ByLayer
 62
  256
370
   -1
100
AcDbPolyline
 90
   15
 70
    0
 43
0
 10
1.242830255873494
 20
6.065e-013
 10
1.052244255644391
 20
5.812e-013
 10
1.009676972244032
 20
5.885e-013
 10
1.117088859900684
 20
6.157e-013
 10
1.368948540605305
 20
6.624e-013
 10
2.431752805678005
 20
8.666e-013
 10
2.405643220404317
 20
8.884e-013
 10
2.537604453782895
 20
9.466e-013
 10
2.832440388914155
 20
1.0463e-012
 10
3.288299639258593
 20
1.1831e-012
 10
3.896718127741464
 20
1.3538e-012
 10
3.974037921733699
 20
1.3523e-012
 10
4.124136622341183
 20
1.3394e-012
 10
4.283809394524107
 20
1.3296e-012
 10
4.45305241971148
 20
1.3234e-012
  0
LINE
  5
CD
100
AcDbEntity
  8
0
  6
ByLayer
 62
  256
370
   -1
100
AcDbLine
 10
5.958552469680557
 20
1.7741e-012
 11
3.212733303581399
 21
1.3891e-012
  0
LWPOLYLINE
  5
CE
100
AcDbEntity
  8
0
  6
ByLayer
 62
  256
370
   -1
100
AcDbPolyline
 90
   12
 70
    0
 43
0
 10
11.14046717317345
 20
2.5304e-012
 10
10.62849479436325
 20
2.4558e-012
 10
10.08118138049716
 20
2.3768e-012
 10
9.506469259940053
 20
2.2879e-012
 10
8.912698356876309
 20
2.216e-012
 10
8.308485166656006
 20
2.1236e-012
 10
7.981095723511414
 20
2.1574e-012
 10
6.980587549737496
 20
2.1854e-012
 10
5.991469030436585
 20
2.1227e-012
 10
5.025899845975519
 20
1.9669e-012
 10
4.095807628375483
 20
1.7208e-012
 10
3.212733303581399
 20
1.3891e-012
  0
LINE
  5
CF
100
AcDbEntity
  8
0
  6
ByLayer
 62
  256
370
   -1
100
AcDbLine
 10
1.463251364615902
 20
1.676e-012
 11
1.240022721246939
 21
1.6627e-012
  0
LINE
  5
D0
100
AcDbEntity
  8
0
  6
ByLayer
 62
  256
370
   -1
100
AcDbLine
 10
1.997865419578129
 20
1.7303e-012
 11
1.582604030794727
 21
1.6815e-012
  0
LINE
  5
D1
100
AcDbEntity
  8
0
  6
ByLayer
 62
  256
370
   -1
100
AcDbLine
 10
1.949110791435333
 20
1.9054e-012
 11
1.582604030794727
 21
1.6815e-012
  0
LWPOLYLINE
  5
D2
100
AcDbEntity
  8
0
  6
ByLayer
 62
  256
370
   -1
100
AcDbPolyline
 90
   25
 70
    0
 43
0
 10
6.295263357843616
 20
2.4336e-012
 10
5.731328134490485
 20
2.3497e-012
 10
5.134733993359748
 20
2.2626e-012
 10
4.517674848940899
 20
2.1734e-012
 10
3.892762904276536
 20
2.085e-012
 10
3.272770867463
 20
1.9988e-012
 10
2.986151550733386
 20
1.9416e-012
 10
2.715291573125695
 20
1.8943e-012
 10
2.506176489881423
 20
1.8625e-012
 10
2.319138714101026
 20
1.845e-012
 10
2.287775333769221
 20
1.8447e-012
 10
2.418630948791741
 20
1.8627e-012
 10
2.496995421874832
 20
1.8725e-012
 10
2.517214811399381
 20
1.8721e-012
 10
2.477618809636194
 20
1.8621e-012
 10
2.333131880385335
 20
1.8145e-012
 10
2.279218677756882
 20
1.7932e-012
 10
2.317375682697754
 20
1.797e-012
 10
2.03711119122192
 20
1.7568e-012
 10
1.997865419578129
 20
1.7303e-012
 10
1.928842020648925
 20
1.9874e-012
 10
1.777728621331536
 20
1.8886e-012
 10
1.569141917354692
 20
1.7853e-012
 10
1.30886194434443
 20
1.6783e-012
 10
1.240022721246939
 20
1.6627e-012
  0
LWPOLYLINE
  5
D3
100
AcDbEntity
  8
0
  6
ByLayer
 62
  256
370
   -1
100
AcDbPolyline
 90
    4
 70
    0
 43
0
 10
1.949110791435333
 20
1.9054e-012
 10
1.923841983992924
 20
1.9863e-012
 10
1.940151286567047
 20
1.928e-012
 10
1.997865419578129
 20
1.7303e-012
  0
LINE
  5
D4
100
AcDbEntity
  8
0
  6
ByLayer
 62
  256
370
   -1
100
AcDbLine
 10
7.625631904373243
 20
2.5255e-012
 11
7.875402093224358
 21
2.5815e-012
  0
LINE
  5
D5
100
AcDbEntity
  8
0
  6
ByLayer
 62
  256
370
   -1
100
AcDbLine
 10
8.103794360899018
 20
2.6485e-012
 11
7.991525904322009
 21
2.6117e-012
  0
LWPOLYLINE
  5
D6
100
AcDbEntity
  8
0
  6
ByLayer
 62
  256
370
   -1
100
AcDbPolyline
 90
    6
 70
    0
 43
0
 10
7.625631904373257
 20
2.5433e-012
 10
7.72915452175062
 20
2.558e-012
 10
7.832677139127967
 20
2.5864e-012
 10
7.832677139127967
 20
2.5864e-012
 10
8.027204071218188
 20
2.6201e-012
 10
8.103794360899018
 20
2.6485e-012
  0
LINE
  5
D7
100
AcDbEntity
  8
0
  6
ByLayer
 62
  256
370
   -1
100
AcDbLine
 10
-0.0562470893262984
 20
6.421e-013
 11
-3.585066167883858
 21
-3.53e-014
  0
ENDBLK
  5
50
330
4E
100
AcDbEntity
  8
0
100
AcDbBlockEnd
  0
BLOCK
  5
52
330
51
100
AcDbEntity
  8
0
100
AcDbBlockBegin
  2
GROUP1_1
 70
    0
 10
0
 20
0
  3
GROUP1_1
  1

  0
LINE
  5
D8
100
AcDbEntity
  8
0
  6
ByLayer
 62
  256
370
   -1
100
AcDbLine
 10
0
 20
0
 11
193.2012678988656
 21
0
  0
LINE
  5
D9
100
AcDbEntity
  8
0
  6
ByLayer
 62
  256
370
   -1
100
AcDbLine
 10
193.2012678988656
 20
0
 11
193.2012678988656
 21
80.42030096867531
  0
LINE
  5
DA
100
AcDbEntity
  8
0
  6
ByLayer
 62
  256
370
   -1
100
AcDbLine
 10
193.2012678988656
 20
80.42030096867531
 11
0
 21
80.42030096867531
  0
LINE
  5
DB
100
AcDbEntity
  8
0
  6
ByLayer
 62
  256
370
   -1
100
AcDbLine
 10
0
 20
80.42030096867531
 11
0
 21
0
  0
ENDBLK
  5
53
330
51
100
AcDbEntity
  8
0
100
AcDbBlockEnd
  0
BLOCK
  5
55
330
54
100
AcDbEntity
  8
0
100
AcDbBlockBegin
  2
GROUP2_1
 70
    0
 10
0
 20
0
  3
GROUP2_1
  1

  0
LINE
  5
DC
100
AcDbEntity
  8
0
  6
ByLayer
 62
  256
370
   -1
100
AcDbLine
 10
0
 20
0
 11
0
 21
80.09999999999999
  0
LINE
  5
DD
100
AcDbEntity
  8
0
  6
ByLayer
 62
  256
370
   -1
100
AcDbLine
 10
0
 20
80.09999999999999
 11
-36.00000000000006
 21
80.09999999999999
  0
LINE
  5
DE
100
AcDbEntity
  8
0
  6
ByLayer
 62
  256
370
   -1
100
AcDbLine
 10
-36.00000000000006
 20
80.09999999999999
 11
-36.00000000000006
 21
0
  0
LINE
  5
DF
100
AcDbEntity
  8
0
  6
ByLayer
 62
  256
370
   -1
100
AcDbLine
 10
-36.00000000000006
 20
0
 11
0
 21
0
  0
ENDBLK
  5
56
330
54
100
AcDbEntity
  8
0
100
AcDbBlockEnd
  0
BLOCK
  5
58
330
57
100
AcDbEntity
  8
0
100
AcDbBlockBegin
  2
GROUP3_1
 70
    0
 10
0
 20
0
  3
GROUP3_1
  1

  0
LINE
  5
E0
100
AcDbEntity
  8
0
  6
ByLayer
 62
  256
370
   -1
100
AcDbLine
 10
0
 20
0
 11
0
 21
79.99999999995195
  0
LINE
  5
E1
100
AcDbEntity
  8
0
  6
ByLayer
 62
  256
370
   -1
100
AcDbLine
 10
0
 20
79.99999999995195
 11
-35.70000000000003
 21
79.99999999994978
  0
LINE
  5
E2
100
AcDbEntity
  8
0
  6
ByLayer
 62
  256
370
   -1
100
AcDbLine
 10
-35.70000000000003
 20
79.99999999994978
 11
-35.70000000000003
 21
-2.1796e-012
  0
LINE
  5
E3
100
AcDbEntity
  8
0
  6
ByLayer
 62
  256
370
   -1
100
AcDbLine
 10
-35.70000000000003
 20
-2.1796e-012
 11
0
 21
0
  0
ENDBLK
  5
59
330
57
100
AcDbEntity
  8
0
100
AcDbBlockEnd
  0
BLOCK
  5
5B
330
5A
100
AcDbEntity
  8
0
100
AcDbBlockBegin
  2
GROUP4_1
 70
    0
 10
0
 20
0
  3
GROUP4_1
  1

  0
LINE
  5
E4
100
AcDbEntity
  8
0
  6
ByLayer
 62
  256
370
   -1
100
AcDbLine
 10
0
 20
0
 11
0
 21
-61.09175582401434
  0
LINE
  5
E5
100
AcDbEntity
  8
0
  6
ByLayer
 62
  256
370
   -1
100
AcDbLine
 10
0
 20
-61.09175582401434
 11
22.96675582401431
 21
-61.09175582401434
  0
LINE
  5
E6
100
AcDbEntity
  8
0
  6
ByLayer
 62
  256
370
   -1
100
AcDbLine
 10
22.96675582401431
 20
-61.09175582401434
 11
22.96675582401431
 21
0
  0
LINE
  5
E7
100
AcDbEntity
  8
0
  6
ByLayer
 62
  256
370
   -1
100
AcDbLine
 10
22.96675582401431
 20
0
 11
0
 21
0
  0
ENDBLK
  5
5C
330
5A
100
AcDbEntity
  8
0
100
AcDbBlockEnd
  0
BLOCK
  5
5E
330
5D
100
AcDbEntity
  8
0
100
AcDbBlockBegin
  2
GROUP5_1
 70
    0
 10
0
 20
0
  3
GROUP5_1
  1

  0
LINE
  5
E8
100
AcDbEntity
  8
0
  6
ByLayer
 62
  256
370
   -1
100
AcDbLine
 10
0
 20
0
 11
-22.08003121098642
 21
-14.86811474840788
  0
LINE
  5
E9
100
AcDbEntity
  8
0
  6
ByLayer
 62
  256
370
   -1
100
AcDbLine
 10
-22.08003121098642
 20
-14.86811474840788
 11
-22.08003121098642
 21
-25.88935088369335
  0
LINE
  5
EA
100
AcDbEntity
  8
0
  6
ByLayer
 62
  256
370
   -1
100
AcDbLine
 10
-22.08003121098642
 20
-25.88935088369335
 11
0
 21
-25.88935088369335
  0
LINE
  5
EB
100
AcDbEntity
  8
0
  6
ByLayer
 62
  256
370
   -1
100
AcDbLine
 10
0
 20
-25.88935088369335
 11
0
 21
0
  0
ENDBLK
  5
5F
330
5D
100
AcDbEntity
  8
0
100
AcDbBlockEnd
  0
BLOCK
  5
61
330
60
100
AcDbEntity
  8
0
100
AcDbBlockBegin
  2
GROUP6_1
 70
    0
 10
0
 20
0
  3
GROUP6_1
  1

  0
LINE
  5
EC
100
AcDbEntity
  8
0
  6
ByLayer
 62
  256
370
   -1
100
AcDbLine
 10
0
 20
0
 11
0
 21
-28.37214501053072
  0
LINE
  5
ED
100
AcDbEntity
  8
0
  6
ByLayer
 62
  256
370
   -1
100
AcDbLine
 10
0
 20
-28.37214501053072
 11
22.53213382911065
 21
-28.37214501053072
  0
LINE
  5
EE
100
AcDbEntity
  8
0
  6
ByLayer
 62
  256
370
   -1
100
AcDbLine
 10
22.53213382911065
 20
-28.37214501053072
 11
22.53213382911065
 21
-14.82504153466135
  0
LINE
  5
EF
100
AcDbEntity
  8
0
  6
ByLayer
 62
  256
370
   -1
100
AcDbLine
 10
22.53213382911065
 20
-14.82504153466135
 11
0
 21
0
  0
ENDBLK
  5
62
330
60
100
AcDbEntity
  8
0
100
AcDbBlockEnd
  0
BLOCK
  5
64
330
63
100
AcDbEntity
  8
0
100
AcDbBlockBegin
  2
GROUP7_1
 70
    0
 10
0
 20
0
  3
GROUP7_1
  1

  0
LINE
  5
F0
100
AcDbEntity
  8
0
  6
ByLayer
 62
  256
370
   -1
100
AcDbLine
 10
0
 20
0
 11
0
 21
48.33073704826842
  0
LINE
  5
F1
100
AcDbEntity
  8
0
  6
ByLayer
 62
  256
370
   -1
100
AcDbLine
 10
0
 20
48.33073704826842
 11
-35.89323704826835
 21
48.33073704826842
  0
LINE
  5
F2
100
AcDbEntity
  8
0
  6
ByLayer
 62
  256
370
   -1
100
AcDbLine
 10
-35.89323704826835
 20
48.33073704826842
 11
-35.89323704826835
 21
0
  0
LINE
  5
F3
100
AcDbEntity
  8
0
  6
ByLayer
 62
  256
370
   -1
100
AcDbLine
 10
-35.89323704826835
 20
0
 11
0
 21
0
  0
ENDBLK
  5
65
330
63
100
AcDbEntity
  8
0
100
AcDbBlockEnd
  0
BLOCK
  5
67
330
66
100
AcDbEntity
  8
0
100
AcDbBlockBegin
  2
GROUP8_1
 70
    0
 10
0
 20
0
  3
GROUP8_1
  1

  0
LINE
  5
F4
100
AcDbEntity
  8
0
  6
ByLayer
 62
  256
370
   -1
100
AcDbLine
 10
0
 20
0
 11
-0.3450010088232318
 21
2.620542831663016
  0
LINE
  5
F5
100
AcDbEntity
  8
0
  6
ByLayer
 62
  256
370
   -1
100
AcDbLine
 10
-0.3450010088232318
 20
2.620542831663016
 11
-1.356492786682594
 21
5.0625
  0
LINE
  5
F6
100
AcDbEntity
  8
0
  6
ByLayer
 62
  256
370
   -1
100
AcDbLine
 10
-1.356492786682594
 20
5.0625
 11
-2.965543840486248
 21
7.159456159513809
  0
LINE
  5
F7
100
AcDbEntity
  8
0
  6
ByLayer
 62
  256
370
   -1
100
AcDbLine
 10
-2.965543840486248
 20
7.159456159513809
 11
-5.062500000000028
 21
8.768507213317434
  0
LINE
  5
F8
100
AcDbEntity
  8
0
  6
ByLayer
 62
  256
370
   -1
100
AcDbLine
 10
-5.062500000000028
 20
8.768507213317434
 11
-7.504457168336984
 21
9.779998991176825
  0
LINE
  5
F9
100
AcDbEntity
  8
0
  6
ByLayer
 62
  256
370
   -1
100
AcDbLine
 10
-7.504457168336984
 20
9.779998991176825
 11
-10.12500000000003
 21
10.125
  0
LINE
  5
FA
100
AcDbEntity
  8
0
  6
ByLayer
 62
  256
370
   -1
100
AcDbLine
 10
-10.12500000000003
 20
10.125
 11
-12.74554283166304
 21
9.779998991176825
  0
LINE
  5
FB
100
AcDbEntity
  8
0
  6
ByLayer
 62
  256
370
   -1
100
AcDbLine
 10
-12.74554283166304
 20
9.779998991176825
 11
-15.18750000000003
 21
8.768507213317434
  0
LINE
  5
FC
100
AcDbEntity
  8
0
  6
ByLayer
 62
  256
370
   -1
100
AcDbLine
 10
-15.18750000000003
 20
8.768507213317434
 11
-17.28445615951384
 21
7.15945615951378
  0
LINE
  5
FD
100
AcDbEntity
  8
0
  6
ByLayer
 62
  256
370
   -1
100
AcDbLine
 10
-17.28445615951384
 20
7.15945615951378
 11
-18.89350721331743
 21
5.0625
  0
LINE
  5
FE
100
AcDbEntity
  8
0
  6
ByLayer
 62
  256
370
   -1
100
AcDbLine
 10
-18.89350721331743
 20
5.0625
 11
-19.90499899117683
 21
2.620542831663016
  0
LINE
  5
FF
100
AcDbEntity
  8
0
  6
ByLayer
 62
  256
370
   -1
100
AcDbLine
 10
-19.90499899117683
 20
2.620542831663016
 11
-20.25000000000006
 21
0
  0
LINE
  5
100
100
AcDbEntity
  8
0
  6
ByLayer
 62
  256
370
   -1
100
AcDbLine
 10
-20.25000000000006
 20
0
 11
-19.90499899117683
 21
-2.620542831663016
  0
LINE
  5
101
100
AcDbEntity
  8
0
  6
ByLayer
 62
  256
370
   -1
100
AcDbLine
 10
-19.90499899117683
 20
-2.620542831663016
 11
-18.89350721331743
 21
-5.0625
  0
LINE
  5
102
100
AcDbEntity
  8
0
  6
ByLayer
 62
  256
370
   -1
100
AcDbLine
 10
-18.89350721331743
 20
-5.0625
 11
-17.28445615951381
 21
-7.15945615951378
  0
LINE
  5
103
100
AcDbEntity
  8
0
  6
ByLayer
 62
  256
370
   -1
100
AcDbLine
 10
-17.28445615951381
 20
-7.15945615951378
 11
-15.18750000000003
 21
-8.768507213317434
  0
LINE
  5
104
100
AcDbEntity
  8
0
  6
ByLayer
 62
  256
370
   -1
100
AcDbLine
 10
-15.18750000000003
 20
-8.768507213317434
 11
-12.74554283166307
 21
-9.779998991176825
  0
LINE
  5
105
100
AcDbEntity
  8
0
  6
ByLayer
 62
  256
370
   -1
100
AcDbLine
 10
-12.74554283166307
 20
-9.779998991176825
 11
-10.12500000000003
 21
-10.125
  0
LINE
  5
106
100
AcDbEntity
  8
0
  6
ByLayer
 62
  256
370
   -1
100
AcDbLine
 10
-10.12500000000003
 20
-10.125
 11
-7.504457168337012
 21
-9.779998991176825
  0
LINE
  5
107
100
AcDbEntity
  8
0
  6
ByLayer
 62
  256
370
   -1
100
AcDbLine
 10
-7.504457168337012
 20
-9.779998991176825
 11
-5.062500000000028
 21
-8.768507213317434
  0
LINE
  5
108
100
AcDbEntity
  8
0
  6
ByLayer
 62
  256
370
   -1
100
AcDbLine
 10
-5.062500000000028
 20
-8.768507213317434
 11
-2.96554384048622
 21
-7.15945615951378
  0
LINE
  5
109
100
AcDbEntity
  8
0
  6
ByLayer
 62
  256
370
   -1
100
AcDbLine
 10
-2.96554384048622
 20
-7.15945615951378
 11
-1.356492786682566
 21
-5.0625
  0
LINE
  5
10A
100
AcDbEntity
  8
0
  6
ByLayer
 62
  256
370
   -1
100
AcDbLine
 10
-1.356492786682566
 20
-5.0625
 11
-0.3450010088232318
 21
-2.620542831663016
  0
LINE
  5
10B
100
AcDbEntity
  8
0
  6
ByLayer
 62
  256
370
   -1
100
AcDbLine
 10
-0.3450010088232318
 20
-2.620542831663016
 11
0
 21
0
  0
ENDBLK
  5
68
330
66
100
AcDbEntity
  8
0
100
AcDbBlockEnd
  0
BLOCK
  5
6A
330
69
100
AcDbEntity
  8
0
100
AcDbBlockBegin
  2
GROUP9_1
 70
    0
 10
0
 20
0
  3
GROUP9_1
  1

  0
LINE
  5
10C
100
AcDbEntity
  8
0
  6
ByLayer
 62
  256
370
   -1
100
AcDbLine
 10
0
 20
0
 11
-1.255130290643507
 21
2.491732974273589
  0
LINE
  5
10D
100
AcDbEntity
  8
0
  6
ByLayer
 62
  256
370
   -1
100
AcDbLine
 10
-1.255130290643507
 20
2.491732974273589
 11
-3.112401002785731
 21
4.573710583036871
  0
LINE
  5
10E
100
AcDbEntity
  8
0
  6
ByLayer
 62
  256
370
   -1
100
AcDbLine
 10
-3.112401002785731
 20
4.573710583036871
 11
-5.445242206679183
 21
6.104049492883377
  0
LINE
  5
10F
100
AcDbEntity
  8
0
  6
ByLayer
 62
  256
370
   -1
100
AcDbLine
 10
-5.445242206679183
 20
6.104049492883377
 11
-8.094674629480863
 21
6.978459636111666
  0
LINE
  5
110
100
AcDbEntity
  8
0
  6
ByLayer
 62
  256
370
   -1
100
AcDbLine
 10
-8.094674629480863
 20
6.978459636111666
 11
-10.88014382997088
 21
7.137351406491803
  0
LINE
  5
111
100
AcDbEntity
  8
0
  6
ByLayer
 62
  256
370
   -1
100
AcDbLine
 10
-10.88014382997088
 20
7.137351406491803
 11
-13.61182468534136
 21
6.56989659245346
  0
LINE
  5
112
100
AcDbEntity
  8
0
  6
ByLayer
 62
  256
370
   -1
100
AcDbLine
 10
-13.61182468534136
 20
6.56989659245346
 11
-16.10355765961495
 21
5.314766301809925
  0
LINE
  5
113
100
AcDbEntity
  8
0
  6
ByLayer
 62
  256
370
   -1
100
AcDbLine
 10
-16.10355765961495
 20
5.314766301809925
 11
-18.18553526837826
 21
3.457495589667673
  0
LINE
  5
114
100
AcDbEntity
  8
0
  6
ByLayer
 62
  256
370
   -1
100
AcDbLine
 10
-18.18553526837826
 20
3.457495589667673
 11
-19.71587417822477
 21
1.124654385774249
  0
LINE
  5
115
100
AcDbEntity
  8
0
  6
ByLayer
 62
  256
370
   -1
100
AcDbLine
 10
-19.71587417822477
 20
1.124654385774249
 11
-20.59028432145303
 21
-1.524778037027403
  0
LINE
  5
116
100
AcDbEntity
  8
0
  6
ByLayer
 62
  256
370
   -1
100
AcDbLine
 10
-20.59028432145303
 20
-1.524778037027403
 11
-20.74917609183316
 21
-4.310247237517416
  0
LINE
  5
117
100
AcDbEntity
  8
0
  6
ByLayer
 62
  256
370
   -1
100
AcDbLine
 10
-20.74917609183316
 20
-4.310247237517416
 11
-20.18172127779482
 21
-7.041928092887957
  0
LINE
  5
118
100
AcDbEntity
  8
0
  6
ByLayer
 62
  256
370
   -1
100
AcDbLine
 10
-20.18172127779482
 20
-7.041928092887957
 11
-18.92659098715129
 21
-9.533661067161518
  0
LINE
  5
119
100
AcDbEntity
  8
0
  6
ByLayer
 62
  256
370
   -1
100
AcDbLine
 10
-18.92659098715129
 20
-9.533661067161518
 11
-17.06932027500903
 21
-11.6156386759248
  0
LINE
  5
11A
100
AcDbEntity
  8
0
  6
ByLayer
 62
  256
370
   -1
100
AcDbLine
 10
-17.06932027500903
 20
-11.6156386759248
 11
-14.73647907111561
 21
-13.14597758577131
  0
LINE
  5
11B
100
AcDbEntity
  8
0
  6
ByLayer
 62
  256
370
   -1
100
AcDbLine
 10
-14.73647907111561
 20
-13.14597758577131
 11
-12.08704664831399
 21
-14.02038772899959
  0
LINE
  5
11C
100
AcDbEntity
  8
0
  6
ByLayer
 62
  256
370
   -1
100
AcDbLine
 10
-12.08704664831399
 20
-14.02038772899959
 11
-9.301577447823917
 21
-14.17927949937973
  0
LINE
  5
11D
100
AcDbEntity
  8
0
  6
ByLayer
 62
  256
370
   -1
100
AcDbLine
 10
-9.301577447823917
 20
-14.17927949937973
 11
-6.569896592453432
 21
-13.61182468534139
  0
LINE
  5
11E
100
AcDbEntity
  8
0
  6
ByLayer
 62
  256
370
   -1
100
AcDbLine
 10
-6.569896592453432
 20
-13.61182468534139
 11
-4.078163618179843
 21
-12.35669439469785
  0
LINE
  5
11F
100
AcDbEntity
  8
0
  6
ByLayer
 62
  256
370
   -1
100
AcDbLine
 10
-4.078163618179843
 20
-12.35669439469785
 11
-1.99618600941659
 21
-10.4994236825556
  0
LINE
  5
120
100
AcDbEntity
  8
0
  6
ByLayer
 62
  256
370
   -1
100
AcDbLine
 10
-1.99618600941659
 20
-10.4994236825556
 11
-0.4658470995700554
 21
-8.166582478662178
  0
LINE
  5
121
100
AcDbEntity
  8
0
  6
ByLayer
 62
  256
370
   -1
100
AcDbLine
 10
-0.4658470995700554
 20
-8.166582478662178
 11
0.4085630436582335
 21
-5.517150055860526
  0
LINE
  5
122
100
AcDbEntity
  8
0
  6
ByLayer
 62
  256
370
   -1
100
AcDbLine
 10
0.4085630436582335
 20
-5.517150055860526
 11
0.5674548140383706
 21
-2.731680855370513
  0
LINE
  5
123
100
AcDbEntity
  8
0
  6
ByLayer
 62
  256
370
   -1
100
AcDbLine
 10
0.5674548140383706
 20
-2.731680855370513
 11
0
 21
0
  0
ENDBLK
  5
6B
330
69
100
AcDbEntity
  8
0
100
AcDbBlockEnd
  0
ENDSEC
  0
SECTION
  2
ENTITIES
  0
LINE
  5
124
100
AcDbEntity
  8
0
  6
ByLayer
 62
  256
370
   -1
100
AcDbLine
 10
-530.701578539462
 20
26.0692419834714
 11
-381.580037394846
 21
25.0362575523497
  0
LINE
  5
125
100
AcDbEntity
  8
0
  6
ByLayer
 62
  256
370
   -1
100
AcDbLine
 10
-394.723246416708
 20
294.963750313586
 11
-394.808476362121
 21
282.663041693987
  0
LINE
  5
126
100
AcDbEntity
  8
0
  6
ByLayer
 62
  256
370
   -1
100
AcDbLine
 10
-379.796140775906
 20
282.559056920329
 11
-528.9176702003321
 21
283.592048310182
  0
LINE
  5
127
100
AcDbEntity
  8
0
  6
ByLayer
 62
  256
370
   -1
100
AcDbLine
 10
-400.435718025748
 20
156.039037103728
 11
-380.673521147
 21
155.902143538468
  0
LINE
  5
128
100
AcDbEntity
  8
0
  6
ByLayer
 62
  256
370
   -1
100
AcDbLine
 10
-396.677565386915
 20
12.8395503430855
 11
-396.59237299316
 21
25.1402499661107
  0
LINE
  5
129
100
AcDbEntity
  8
0
  6
ByLayer
 62
  256
370
   -1
100
AcDbLine
 10
-530.3275728916559
 20
80.06023574274622
 11
-530.701578539462
 21
26.0692419834714
  0
LINE
  5
12A
100
AcDbEntity
  8
0
  6
ByLayer
 62
  256
370
   -1
100
AcDbLine
 10
-530.701578539462
 20
26.0692419834714
 11
-530.701553327019
 21
26.0692418088199
  0
LINE
  5
12B
100
AcDbEntity
  8
0
  6
ByLayer
 62
  256
370
   -1
100
AcDbLine
 10
-381.580037394846
 20
25.0362575523497
 11
-396.59237299316
 21
25.1402499661107
  0
LINE
  5
12C
100
AcDbEntity
  8
0
  6
ByLayer
 62
  256
370
   -1
100
AcDbLine
 10
-530.701483784831
 20
26.0692413270884
 11
-530.701553327019
 21
26.0692418088199
  0
LINE
  5
12D
100
AcDbEntity
  8
0
  6
ByLayer
 62
  256
370
   -1
100
AcDbLine
 10
-530.701553327019
 20
26.0692418088199
 11
-381.580037394846
 21
25.0362575523497
  0
LINE
  5
12E
100
AcDbEntity
  8
0
  6
ByLayer
 62
  256
370
   -1
100
AcDbLine
 10
-383.182810997745
 20
25.0473601748954
 11
-452.504158028173
 21
25.5275582197398
  0
LINE
  5
12F
100
AcDbEntity
  8
0
  6
ByLayer
 62
  256
370
   -1
100
AcDbLine
 10
-452.504158028173
 20
25.5275582197398
 11
-452.504158028173
 21
25.5275582197398
  0
LINE
  5
130
100
AcDbEntity
  8
0
  6
ByLayer
 62
  256
370
   -1
100
AcDbLine
 10
-452.504158028173
 20
25.5275582197398
 11
-383.182810997745
 21
25.0473601748954
  0
LINE
  5
131
100
AcDbEntity
  8
0
  6
ByLayer
 62
  256
370
   -1
100
AcDbLine
 10
-383.182810997745
 20
25.0473601748954
 11
-383.182810997745
 21
25.0473601748954
  0
LINE
  5
132
100
AcDbEntity
  8
0
  6
ByLayer
 62
  256
370
   -1
100
AcDbLine
 10
-383.605806847249
 20
25.0502903225138
 11
-452.504158028173
 21
25.5275582197398
  0
LINE
  5
133
100
AcDbEntity
  8
0
  6
ByLayer
 62
  256
370
   -1
100
AcDbLine
 10
-452.504158028173
 20
25.5275582197398
 11
-452.504158028173
 21
25.5275582197398
  0
LINE
  5
134
100
AcDbEntity
  8
0
  6
ByLayer
 62
  256
370
   -1
100
AcDbLine
 10
-452.504158028173
 20
25.5275582197398
 11
-383.605806847249
 21
25.0502903225138
  0
LINE
  5
135
100
AcDbEntity
  8
0
  6
ByLayer
 62
  256
370
   -1
100
AcDbLine
 10
-383.605806847249
 20
25.0502903225138
 11
-383.605806847249
 21
25.0502903225138
  0
LINE
  5
136
100
AcDbEntity
  8
0
  6
ByLayer
 62
  256
370
   -1
100
AcDbLine
 10
-459.553988913567
 20
25.5763933210855
 11
-459.553988913567
 21
25.5763933210855
  0
LINE
  5
137
100
AcDbEntity
  8
0
  6
ByLayer
 62
  256
370
   -1
100
AcDbLine
 10
-459.553988913567
 20
25.5763933210855
 11
-524.552412869346
 21
26.0266459119337
  0
LINE
  5
138
100
AcDbEntity
  8
0
  6
ByLayer
 62
  256
370
   -1
100
AcDbLine
 10
-524.552412869346
 20
26.0266459119337
 11
-524.552412869346
 21
26.0266459119337
  0
LINE
  5
139
100
AcDbEntity
  8
0
  6
ByLayer
 62
  256
370
   -1
100
AcDbLine
 10
-524.552412869346
 20
26.0266459119337
 11
-459.553988913567
 21
25.5763933210855
  0
LINE
  5
13A
100
AcDbEntity
  8
0
  6
ByLayer
 62
  256
370
   -1
100
AcDbLine
 10
-459.553988913567
 20
25.5763933210855
 11
-459.553988913567
 21
25.5763933210855
  0
LINE
  5
13B
100
AcDbEntity
  8
0
  6
ByLayer
 62
  256
370
   -1
100
AcDbLine
 10
-459.553988913567
 20
25.5763933210855
 11
-524.552412869346
 21
26.0266459119337
  0
LINE
  5
13C
100
AcDbEntity
  8
0
  6
ByLayer
 62
  256
370
   -1
100
AcDbLine
 10
-524.552412869346
 20
26.0266459119337
 11
-524.552412869346
 21
26.0266459119337
  0
LINE
  5
13D
100
AcDbEntity
  8
0
  6
ByLayer
 62
  256
370
   -1
100
AcDbLine
 10
-524.552412869346
 20
26.0266459119337
 11
-459.553988913567
 21
25.5763933210855
  0
LINE
  5
13E
100
AcDbEntity
  8
0
  6
ByLayer
 62
  256
370
   -1
100
AcDbLine
 10
-530.667290950014
 20
31.0055361708824
 11
-530.667357859549
 21
31.0055366343772
  0
LINE
  5
13F
100
AcDbEntity
  8
0
  6
ByLayer
 62
  256
370
   -1
100
AcDbLine
 10
-529.544193880682
 20
193.134443092561
 11
-529.787559454468
 21
158.002489196796
  0
LINE
  5
140
100
AcDbEntity
  8
0
  6
ByLayer
 62
  256
370
   -1
100
AcDbLine
 10
-529.807487529524
 20
155.135356316269
 11
-529.807420619988
 21
155.135355852774
  0
LINE
  5
141
100
AcDbEntity
  8
0
  6
ByLayer
 62
  256
370
   -1
100
AcDbLine
 10
92.71565384752169
 20
-200.560749985102
 11
-398.132256635531
 21
-197.160581904133
  0
LINE
  5
142
100
AcDbEntity
  8
0
  6
ByLayer
 62
  256
370
   -1
100
AcDbLine
 10
-528.979080791725
 20
274.713471211851
 11
-529.244349301577
 21
236.419636495799
  0
LINE
  5
143
100
AcDbEntity
  8
0
  6
ByLayer
 62
  256
370
   -1
100
AcDbLine
 10
-529.267113134789
 20
233.133477626046
 11
-529.510478708575
 21
198.001523730281
  0
LINE
  5
144
100
AcDbEntity
  8
0
  6
ByLayer
 62
  256
370
   -1
100
AcDbLine
 10
-530.3275476792127
 20
80.06023556809393
 11
-530.701553327019
 21
26.0692418088199
  0
LINE
  5
145
100
AcDbEntity
  8
0
  6
ByLayer
 62
  256
370
   -1
100
AcDbLine
 10
-529.244349301577
 20
236.419636495799
 11
-529.244416211113
 21
236.419636959294
  0
LINE
  5
146
100
AcDbEntity
  8
0
  6
ByLayer
 62
  256
370
   -1
100
AcDbLine
 10
-529.244416211113
 20
236.419636959294
 11
-528.979147701261
 21
274.713471675346
  0
LINE
  5
147
100
AcDbEntity
  8
0
  6
ByLayer
 62
  256
370
   -1
100
AcDbLine
 10
-530.0488741459621
 20
120.2928427306634
 11
-530.3275728916559
 21
80.06023574274622
  0
LINE
  5
148
100
AcDbEntity
  8
0
  6
ByLayer
 62
  256
370
   -1
100
AcDbLine
 10
-530.667357859549
 20
31.0055366343772
 11
-530.340868013232
 21
78.13720792976819
  0
LINE
  5
149
100
AcDbEntity
  8
0
  6
ByLayer
 62
  256
370
   -1
100
AcDbLine
 10
-530.3275728916559
 20
80.06023574274622
 11
-530.3275476792127
 21
80.06023556809393
  0
LINE
  5
14A
100
AcDbEntity
  8
0
  6
ByLayer
 62
  256
370
   -1
100
AcDbLine
 10
-530.340801103696
 20
78.1372074662734
 11
-530.667290950014
 21
31.0055361708824
  0
LINE
  5
14B
100
AcDbEntity
  8
0
  6
ByLayer
 62
  256
370
   -1
100
AcDbLine
 10
-530.340868013232
 20
78.13720792976819
 11
-530.340801103696
 21
78.1372074662734
  0
LINE
  5
14C
100
AcDbEntity
  8
0
  6
ByLayer
 62
  256
370
   -1
100
AcDbLine
 10
-529.807420619988
 20
155.135355852774
 11
-530.050786193774
 21
120.003401957009
  0
LINE
  5
14D
100
AcDbEntity
  8
0
  6
ByLayer
 62
  256
370
   -1
100
AcDbLine
 10
-530.050786193774
 20
120.003401957009
 11
-530.05085310331
 21
120.003402420504
  0
LINE
  5
14E
100
AcDbEntity
  8
0
  6
ByLayer
 62
  256
370
   -1
100
AcDbLine
 10
-530.05085310331
 20
120.003402420504
 11
-529.807487529524
 21
155.135356316269
  0
LINE
  5
14F
100
AcDbEntity
  8
0
  6
ByLayer
 62
  256
370
   -1
100
AcDbLine
 10
-528.979147701261
 20
274.713471675346
 11
-528.979080791725
 21
274.713471211851
  0
LINE
  5
150
100
AcDbEntity
  8
0
  6
ByLayer
 62
  256
370
   -1
100
AcDbLine
 10
-529.787626364003
 20
158.002489660291
 11
-529.544260790218
 21
193.134443556056
  0
LINE
  5
151
100
AcDbEntity
  8
0
  6
ByLayer
 62
  256
370
   -1
100
AcDbLine
 10
-529.544260790218
 20
193.134443556056
 11
-529.544193880682
 21
193.134443092561
  0
LINE
  5
152
100
AcDbEntity
  8
0
  6
ByLayer
 62
  256
370
   -1
100
AcDbLine
 10
-529.787559454468
 20
158.002489196796
 11
-529.787626364003
 21
158.002489660291
  0
LINE
  5
153
100
AcDbEntity
  8
0
  6
ByLayer
 62
  256
370
   -1
100
AcDbLine
 10
-529.510545618111
 20
198.001524193776
 11
-529.267180044325
 21
233.13347808954
  0
LINE
  5
154
100
AcDbEntity
  8
0
  6
ByLayer
 62
  256
370
   -1
100
AcDbLine
 10
-529.267180044325
 20
233.13347808954
 11
-529.267113134789
 21
233.133477626046
  0
LINE
  5
155
100
AcDbEntity
  8
0
  6
ByLayer
 62
  256
370
   -1
100
AcDbLine
 10
-529.510478708575
 20
198.001523730281
 11
-529.510545618111
 21
198.001524193776
  0
LINE
  5
156
100
AcDbEntity
  8
0
  6
ByLayer
 62
  256
370
   -1
100
AcDbLine
 10
79.6312112652974
 20
186.12517781064
 11
57.2567474185012
 21
186.280152929111
  0
LINE
  5
157
100
AcDbEntity
  8
0
  6
ByLayer
 62
  256
370
   -1
100
AcDbLine
 10
-381.821910226055
 20
282.573080629299
 11
-381.821910226055
 21
282.573080629299
  0
LINE
  5
158
100
AcDbEntity
  8
0
  6
ByLayer
 62
  256
370
   -1
100
AcDbLine
 10
-522.768516238839
 20
283.549451642869
 11
-457.770092316077
 21
283.099191939275
  0
LINE
  5
159
100
AcDbEntity
  8
0
  6
ByLayer
 62
  256
370
   -1
100
AcDbLine
 10
84.75788859189919
 20
493.1197140222577
 11
84.9320449560721
 21
518.260431025457
  0
LINE
  5
15A
100
AcDbEntity
  8
0
  6
ByLayer
 62
  256
370
   -1
100
AcDbLine
 10
-539.453386321781
 20
295.966309825266
 11
-541.407705291988
 21
13.8421145480449
  0
LINE
  5
15B
100
AcDbEntity
  8
0
  6
ByLayer
 62
  256
370
   -1
100
AcDbLine
 10
83.23873457574069
 20
273.815330434078
 11
83.36042121145874
 21
291.3818650066679
  0
LINE
  5
15C
100
AcDbEntity
  8
0
  6
ByLayer
 62
  256
370
   -1
100
AcDbLine
 10
80.0780415404772
 20
-182.460102538967
 11
81.5393884692845
 21
28.4989166464635
  0
LINE
  5
15D
100
AcDbEntity
  8
0
  6
ByLayer
 62
  256
370
   -1
100
AcDbLine
 10
81.1986669410072
 20
-20.6874045506654
 11
80.0780415404772
 21
-182.460102538967
  0
LINE
  5
15E
100
AcDbEntity
  8
0
  6
ByLayer
 62
  256
370
   -1
100
AcDbLine
 10
-381.398914376871
 20
282.570150435393
 11
-450.720261354751
 21
283.050356065919
  0
LINE
  5
15F
100
AcDbEntity
  8
0
  6
ByLayer
 62
  256
370
   -1
100
AcDbLine
 10
-528.917644987889
 20
283.592048135531
 11
-528.917575445701
 21
283.592047653799
  0
LINE
  5
160
100
AcDbEntity
  8
0
  6
ByLayer
 62
  256
370
   -1
100
AcDbLine
 10
-457.770092316077
 20
283.099191939275
 11
-522.768516238839
 21
283.549451642869
  0
LINE
  5
161
100
AcDbEntity
  8
0
  6
ByLayer
 62
  256
370
   -1
100
AcDbLine
 10
-450.720261354751
 20
283.050356065919
 11
-450.720261354751
 21
283.050356065919
  0
LINE
  5
162
100
AcDbEntity
  8
0
  6
ByLayer
 62
  256
370
   -1
100
AcDbLine
 10
-450.720261354751
 20
283.050356065919
 11
-381.821910226055
 21
282.573080629299
  0
LINE
  5
163
100
AcDbEntity
  8
0
  6
ByLayer
 62
  256
370
   -1
100
AcDbLine
 10
-522.768516238839
 20
283.549451642869
 11
-522.768516238839
 21
283.549451642869
  0
LINE
  5
164
100
AcDbEntity
  8
0
  6
ByLayer
 62
  256
370
   -1
100
AcDbLine
 10
-457.770092316077
 20
283.099191939275
 11
-522.768516238839
 21
283.549451642869
  0
LINE
  5
165
100
AcDbEntity
  8
0
  6
ByLayer
 62
  256
370
   -1
100
AcDbLine
 10
81.2194479231232
 20
-17.6874765263984
 11
81.5393884692845
 21
28.4989166464635
  0
LINE
  5
166
100
AcDbEntity
  8
0
  6
ByLayer
 62
  256
370
   -1
100
AcDbLine
 10
99.9119713550478
 20
152.573059862993
 11
99.9119713550478
 21
152.573059862993
  0
LINE
  5
167
100
AcDbEntity
  8
0
  6
ByLayer
 62
  256
370
   -1
100
AcDbLine
 10
-381.821910226055
 20
282.573080629299
 11
-450.720261354751
 21
283.050356065919
  0
LINE
  5
168
100
AcDbEntity
  8
0
  6
ByLayer
 62
  256
370
   -1
100
AcDbLine
 10
-541.407705291988
 20
13.8421145480449
 11
-541.407705291988
 21
13.8421145480449
  0
LINE
  5
169
100
AcDbEntity
  8
0
  6
ByLayer
 62
  256
370
   -1
100
AcDbLine
 10
-379.796140840207
 20
282.55904763791
 11
-528.917644987889
 21
283.592048135531
  0
LINE
  5
16A
100
AcDbEntity
  8
0
  6
ByLayer
 62
  256
370
   -1
100
AcDbLine
 10
-457.770092316077
 20
283.099191939275
 11
-457.770092316077
 21
283.099191939275
  0
LINE
  5
16B
100
AcDbEntity
  8
0
  6
ByLayer
 62
  256
370
   -1
100
AcDbLine
 10
-522.768516238839
 20
283.549451642869
 11
-457.770092316077
 21
283.099191939275
  0
LINE
  5
16C
100
AcDbEntity
  8
0
  6
ByLayer
 62
  256
370
   -1
100
AcDbLine
 10
-457.770092316077
 20
283.099191939275
 11
-457.770092316077
 21
283.099191939275
  0
LINE
  5
16D
100
AcDbEntity
  8
0
  6
ByLayer
 62
  256
370
   -1
100
AcDbLine
 10
-522.768516238839
 20
283.549451642869
 11
-522.768516238839
 21
283.549451642869
  0
LINE
  5
16E
100
AcDbEntity
  8
0
  6
ByLayer
 62
  256
370
   -1
100
AcDbLine
 10
-450.720261354751
 20
283.050356065919
 11
-450.720261354751
 21
283.050356065919
  0
LINE
  5
16F
100
AcDbEntity
  8
0
  6
ByLayer
 62
  256
370
   -1
100
AcDbLine
 10
-450.720261354751
 20
283.050356065919
 11
-381.398914376871
 21
282.570150435393
  0
LINE
  5
170
100
AcDbEntity
  8
0
  6
ByLayer
 62
  256
370
   -1
100
AcDbLine
 10
-381.398914376871
 20
282.570150435393
 11
-381.398914376871
 21
282.570150435393
  0
LINE
  5
171
100
AcDbEntity
  8
0
  6
ByLayer
 62
  256
370
   -1
100
AcDbLine
 10
82.63114689910491
 20
186.104398960161
 11
79.6312112652974
 21
186.12517781064
  0
LINE
  5
172
100
AcDbEntity
  8
0
  6
ByLayer
 62
  256
370
   -1
100
AcDbLine
 10
-394.930163706382
 20
284.169114480807
 11
-400.435718025748
 21
156.039037103728
  0
LINE
  5
173
100
AcDbEntity
  8
0
  6
ByLayer
 62
  256
370
   -1
100
AcDbLine
 10
-400.435718025748
 20
156.039037103728
 11
-396.705762607845
 21
27.8449809457373
  0
LINE
  5
174
100
AcDbEntity
  8
0
  6
ByLayer
 62
  256
370
   -1
100
AcDbLine
 10
-541.407705291988
 20
13.8421145480449
 11
-396.677565386915
 21
12.8395503430855
  0
LINE
  5
175
100
AcDbEntity
  8
0
  6
ByLayer
 62
  256
370
   -1
100
AcDbLine
 10
-400.435718025748
 20
156.039037103728
 11
-400.435718025748
 21
156.039037103728
  0
LINE
  5
176
100
AcDbEntity
  8
0
  6
ByLayer
 62
  256
370
   -1
100
AcDbLine
 10
-396.677565386915
 20
12.8395503430855
 11
-541.407705291988
 21
13.8421145480449
  0
LINE
  5
177
100
AcDbEntity
  8
0
  6
ByLayer
 62
  256
370
   -1
100
AcDbLine
 10
79.6312112652974
 20
186.12517781064
 11
79.6312112652974
 21
186.12517781064
  0
LINE
  5
178
100
AcDbEntity
  8
0
  6
ByLayer
 62
  256
370
   -1
100
AcDbLine
 10
-396.691419946866
 20
10.8395986200318
 11
-543.812879427211
 21
11.8587277536317
  0
LINE
  5
179
100
AcDbEntity
  8
0
  6
ByLayer
 62
  256
370
   -1
100
AcDbLine
 10
-539.453386321781
 20
295.966309825266
 11
-541.407705291988
 21
13.8421145480449
  0
LINE
  5
17A
100
AcDbEntity
  8
0
  6
ByLayer
 62
  256
370
   -1
100
AcDbLine
 10
-541.830888883335
 20
297.982824130321
 11
-394.709391856757
 21
296.963706729919
  0
LINE
  5
17B
100
AcDbEntity
  8
0
  6
ByLayer
 62
  256
370
   -1
100
AcDbLine
 10
81.5854391713781
 20
35.1472750423461
 11
82.1795904815598
 21
120.918030771778
  0
LINE
  5
17C
100
AcDbEntity
  8
0
  6
ByLayer
 62
  256
370
   -1
100
AcDbLine
 10
81.5854391713664
 20
35.147275040666
 11
78.58551114727361
 21
35.1680560479265
  0
LINE
  5
17D
100
AcDbEntity
  8
0
  6
ByLayer
 62
  256
370
   -1
100
AcDbLine
 10
96.07528138348439
 20
284.434866717481
 11
99.9119713550478
 21
152.573059862993
  0
LINE
  5
17E
100
AcDbEntity
  8
0
  6
ByLayer
 62
  256
370
   -1
100
AcDbLine
 10
94.24889181542579
 20
20.7770621682715
 11
81.4865103572664
 21
20.8654694288166
  0
LINE
  5
17F
100
AcDbEntity
  8
0
  6
ByLayer
 62
  256
370
   -1
100
AcDbLine
 10
82.63114689910491
 20
186.104398960161
 11
79.6312112652974
 21
186.12517781064
  0
LINE
  5
180
100
AcDbEntity
  8
0
  6
ByLayer
 62
  256
370
   -1
100
AcDbLine
 10
79.6312112652974
 20
186.12517781064
 11
57.2567474185012
 21
186.280152929111
  0
LINE
  5
181
100
AcDbEntity
  8
0
  6
ByLayer
 62
  256
370
   -1
100
AcDbLine
 10
-530.315899470596
 20
81.74531173991571
 11
-530.315810558317
 21
81.745311124004
  0
LINE
  5
182
100
AcDbEntity
  8
0
  6
ByLayer
 62
  256
370
   -1
100
AcDbLine
 10
-530.315810558317
 20
81.745311124004
 11
-530.060826581873
 21
118.554483289292
  0
LINE
  5
183
100
AcDbEntity
  8
0
  6
ByLayer
 62
  256
370
   -1
100
AcDbLine
 10
99.9119713550478
 20
152.573059862993
 11
94.24889181542579
 21
20.7770621682715
  0
LINE
  5
184
100
AcDbEntity
  8
0
  6
ByLayer
 62
  256
370
   -1
100
AcDbLine
 10
-280.181216442679
 20
-99.5377855976735
 11
-152.026433644332
 21
-100.425528729056
  0
LINE
  5
185
100
AcDbEntity
  8
0
  6
ByLayer
 62
  256
370
   -1
100
AcDbLine
 10
-152.026433644332
 20
-100.425528729056
 11
-23.8716555392648
 21
-101.313271860438
  0
LINE
  5
186
100
AcDbEntity
  8
0
  6
ByLayer
 62
  256
370
   -1
100
AcDbLine
 10
82.1588076944426
 20
117.918102760015
 11
82.1795904815598
 21
120.918030771778
  0
LINE
  5
187
100
AcDbEntity
  8
0
  6
ByLayer
 62
  256
370
   -1
100
AcDbLine
 10
-530.060915494152
 20
118.554483905204
 11
-530.315899470596
 21
81.74531173991571
  0
LINE
  5
188
100
AcDbEntity
  8
0
  6
ByLayer
 62
  256
370
   -1
100
AcDbLine
 10
83.23873457574069
 20
273.815330434078
 11
83.3129101838985
 21
284.523269278707
  0
LINE
  5
189
100
AcDbEntity
  8
0
  6
ByLayer
 62
  256
370
   -1
100
AcDbLine
 10
99.9119713550478
 20
152.573059862993
 11
82.39971028683721
 21
152.694371700289
  0
LINE
  5
18A
100
AcDbEntity
  8
0
  6
ByLayer
 62
  256
370
   -1
100
AcDbLine
 10
82.1795904815598
 20
120.918030771778
 11
82.1588076944426
 21
117.918102760015
  0
LINE
  5
18B
100
AcDbEntity
  8
0
  6
ByLayer
 62
  256
370
   -1
100
AcDbLine
 10
-530.060826581873
 20
118.554483289292
 11
-530.060915494152
 21
118.554483905204
  0
LINE
  5
18C
100
AcDbEntity
  8
0
  6
ByLayer
 62
  256
370
   -1
100
AcDbLine
 10
56.7844111149705
 20
118.093875449473
 11
82.1588076944426
 21
117.918102760015
  0
LINE
  5
18D
100
AcDbEntity
  8
0
  6
ByLayer
 62
  256
370
   -1
100
AcDbLine
 10
82.1588076944426
 20
117.918102760015
 11
82.1588076944426
 21
117.918102760015
  0
LINE
  5
18E
100
AcDbEntity
  8
0
  6
ByLayer
 62
  256
370
   -1
100
AcDbLine
 10
-379.796140840207
 20
282.55904763791
 11
-394.808476362121
 21
282.663041693987
  0
LINE
  5
18F
100
AcDbEntity
  8
0
  6
ByLayer
 62
  256
370
   -1
100
AcDbLine
 10
81.5854391713664
 20
35.147275040666
 11
81.5854391713781
 21
35.1472750423461
  0
LINE
  5
190
100
AcDbEntity
  8
0
  6
ByLayer
 62
  256
370
   -1
100
AcDbLine
 10
81.5854391713781
 20
35.1472750423461
 11
81.5854391713781
 21
35.1472750423461
  0
LINE
  5
191
100
AcDbEntity
  8
0
  6
ByLayer
 62
  256
370
   -1
100
AcDbLine
 10
81.5854391713781
 20
35.1472750423461
 11
81.4865103572664
 21
20.8654694288166
  0
LINE
  5
192
100
AcDbEntity
  8
0
  6
ByLayer
 62
  256
370
   -1
100
AcDbLine
 10
81.4865103572664
 20
20.8654694288166
 11
81.5393887166902
 21
28.4989166447497
  0
LINE
  5
193
100
AcDbEntity
  8
0
  6
ByLayer
 62
  256
370
   -1
100
AcDbLine
 10
81.5393884692845
 20
28.4989166464635
 11
81.5393884692845
 21
28.4989166464635
  0
LINE
  5
194
100
AcDbEntity
  8
0
  6
ByLayer
 62
  256
370
   -1
100
AcDbLine
 10
81.5393884692845
 20
28.4989166464635
 11
81.5854391713664
 21
35.147275040666
  0
LINE
  5
195
100
AcDbEntity
  8
0
  6
ByLayer
 62
  256
370
   -1
100
AcDbLine
 10
-381.555444612278
 20
28.58780735121
 11
-380.673521147
 21
155.902143538468
  0
LINE
  5
196
100
AcDbEntity
  8
0
  6
ByLayer
 62
  256
370
   -1
100
AcDbLine
 10
-380.673521147
 20
155.902143538468
 11
-379.791597681721
 21
283.216472685806
  0
LINE
  5
197
100
AcDbEntity
  8
0
  6
ByLayer
 62
  256
370
   -1
100
AcDbLine
 10
84.9320449560721
 20
518.260431025457
 11
84.9320449560721
 21
518.260431025457
  0
LINE
  5
198
100
AcDbEntity
  8
0
  6
ByLayer
 62
  256
370
   -1
100
AcDbLine
 10
84.9320449560721
 20
518.260431025457
 11
84.95281061788241
 21
521.26035915585
  0
LINE
  5
199
100
AcDbEntity
  8
0
  6
ByLayer
 62
  256
370
   -1
100
AcDbLine
 10
84.95281061788241
 20
521.26035915585
 11
84.9320449560721
 21
518.260431025457
  0
LINE
  5
19A
100
AcDbEntity
  8
0
  6
ByLayer
 62
  256
370
   -1
100
AcDbLine
 10
57.65503061943941
 20
243.7762403356554
 11
57.42687374407549
 21
210.839530562361
  0
LINE
  5
19B
100
AcDbEntity
  8
0
  6
ByLayer
 62
  256
370
   -1
100
AcDbLine
 10
-393.028747378372
 20
539.584422674705
 11
97.81918187779701
 21
536.1842733668529
  0
LINE
  5
19C
100
AcDbEntity
  8
0
  6
ByLayer
 62
  256
370
   -1
100
AcDbLine
 10
96.07528138348439
 20
284.434866717481
 11
83.3129101838985
 21
284.523269278707
  0
LINE
  5
19D
100
AcDbEntity
  8
0
  6
ByLayer
 62
  256
370
   -1
100
AcDbLine
 10
83.3129101838985
 20
284.523269278707
 11
84.9320449560721
 21
518.260431025457
  0
LINE
  5
19E
100
AcDbEntity
  8
0
  6
ByLayer
 62
  256
370
   -1
100
AcDbLine
 10
-276.441442684864
 20
440.336963323158
 11
-148.28665049996
 21
439.449220191775
  0
LINE
  5
19F
100
AcDbEntity
  8
0
  6
ByLayer
 62
  256
370
   -1
100
AcDbLine
 10
-148.28665049996
 20
439.449220191775
 11
-20.1318723948922
 21
438.561477060393
  0
LINE
  5
1A0
100
AcDbEntity
  8
0
  6
ByLayer
 62
  256
370
   -1
100
AcDbLine
 10
82.63114689910491
 20
186.104398960161
 11
82.63114689910491
 21
186.104398960161
  0
LINE
  5
1A1
100
AcDbEntity
  8
0
  6
ByLayer
 62
  256
370
   -1
100
AcDbLine
 10
82.6103659169889
 20
183.104470935894
 11
82.63114689910491
 21
186.104398960161
  0
LINE
  5
1A2
100
AcDbEntity
  8
0
  6
ByLayer
 62
  256
370
   -1
100
AcDbLine
 10
80.21801196853519
 20
270.836183516876
 11
83.21793999258929
 21
270.815402504027
  0
LINE
  5
1A3
100
AcDbEntity
  8
0
  6
ByLayer
 62
  256
370
   -1
100
AcDbLine
 10
83.2179535936247
 20
270.815402409811
 11
80.21801196853519
 21
270.836183516876
  0
LINE
  5
1A4
100
AcDbEntity
  8
0
  6
ByLayer
 62
  256
370
   -1
100
AcDbLine
 10
80.46425692151884
 20
-126.706398458601
 11
80.4642569512587
 21
-126.706398458807
  0
LINE
  5
1A5
100
AcDbEntity
  8
0
  6
ByLayer
 62
  256
370
   -1
100
AcDbLine
 10
80.4642569512587
 20
-126.706398458807
 11
80.689817174811
 21
-94.14467969527196
  0
LINE
  5
1A6
100
AcDbEntity
  8
0
  6
ByLayer
 62
  256
370
   -1
100
AcDbLine
 10
80.689817174811
 20
-94.14467969527196
 11
80.68981714507113
 21
-94.14467969506593
  0
LINE
  5
1A7
100
AcDbEntity
  8
0
  6
ByLayer
 62
  256
370
   -1
100
AcDbLine
 10
-382.487357384353
 20
-105.9440551293537
 11
-379.2999338582957
 21
-105.9661348833336
  0
LINE
  5
1A8
100
AcDbEntity
  8
0
  6
ByLayer
 62
  256
370
   -1
100
AcDbLine
 10
-379.5670555878167
 20
-144.5277096985769
 11
-382.754479113874
 21
-144.5056299445972
  0
LINE
  5
1A9
100
AcDbEntity
  8
0
  6
ByLayer
 62
  256
370
   -1
100
AcDbLine
 10
57.45703819953434
 20
215.194069137334
 11
57.62486616398056
 21
239.4217017606824
  0
LINE
  5
1AA
100
AcDbEntity
  8
0
  6
ByLayer
 62
  256
370
   -1
100
AcDbLine
 10
80.4895597134264
 20
-123.0537088900814
 11
80.66451440956968
 21
-97.79736926397625
  0
LINE
  5
1AB
100
AcDbEntity
  8
0
  6
ByLayer
 62
  256
370
   -1
100
AcDbLine
 10
80.66451440956968
 20
-97.79736926397625
 11
80.66451438290343
 21
-97.79736926379154
  0
LINE
  5
1AC
100
AcDbEntity
  8
0
  6
ByLayer
 62
  256
370
   -1
100
AcDbLine
 10
80.66451438290343
 20
-97.79736926379154
 11
80.48955968676016
 21
-123.0537088898967
  0
LINE
  5
1AD
100
AcDbEntity
  8
0
  6
ByLayer
 62
  256
370
   -1
100
AcDbLine
 10
80.48955968676016
 20
-123.0537088898967
 11
80.4895597134264
 21
-123.0537088900814
  0
LINE
  5
1AE
100
AcDbEntity
  8
0
  6
ByLayer
 62
  256
370
   -1
100
AcDbLine
 10
-224.83793708232
 20
-183.3479734544677
 11
-224.8158572969758
 21
-180.1605499286277
  0
LINE
  5
1AF
100
AcDbEntity
  8
0
  6
ByLayer
 62
  256
370
   -1
100
AcDbLine
 10
80.68981714507113
 20
-94.14467969506593
 11
80.46425692151884
 21
-126.706398458601
  0
LINE
  5
1B0
100
AcDbEntity
  8
0
  6
ByLayer
 62
  256
370
   -1
100
AcDbLine
 10
-382.754479113874
 20
-144.5056299445972
 11
-379.5670555878167
 21
-144.5277096985769
  0
LINE
  5
1B1
100
AcDbEntity
  8
0
  6
ByLayer
 62
  256
370
   -1
100
AcDbLine
 10
-379.5670555878167
 20
-144.5277096985769
 11
-379.2999338582957
 21
-105.9661348833336
  0
LINE
  5
1B2
100
AcDbEntity
  8
0
  6
ByLayer
 62
  256
370
   -1
100
AcDbLine
 10
-379.2999338582957
 20
-105.9661348833336
 11
-382.487357384353
 21
-105.9440551293537
  0
LINE
  5
1B3
100
AcDbEntity
  8
0
  6
ByLayer
 62
  256
370
   -1
100
AcDbLine
 10
57.62486616398056
 20
239.4217017606824
 11
57.62486616398056
 21
239.4217017606824
  0
LINE
  5
1B4
100
AcDbEntity
  8
0
  6
ByLayer
 62
  256
370
   -1
100
AcDbLine
 10
-186.2763622697051
 20
-183.6150955634364
 11
-186.2542824843609
 21
-180.4276720375964
  0
LINE
  5
1B5
100
AcDbEntity
  8
0
  6
ByLayer
 62
  256
370
   -1
100
AcDbLine
 10
-379.5670555878167
 20
-144.5277096985769
 11
-379.5670555878167
 21
-144.5277096985769
  0
LINE
  5
1B6
100
AcDbEntity
  8
0
  6
ByLayer
 62
  256
370
   -1
100
AcDbLine
 10
-379.5670555878167
 20
-144.5277096985769
 11
-379.2999338582957
 21
-105.9661348833336
  0
LINE
  5
1B7
100
AcDbEntity
  8
0
  6
ByLayer
 62
  256
370
   -1
100
AcDbLine
 10
-379.2999338582957
 20
-105.9661348833336
 11
-379.2999338582957
 21
-105.9661348833336
  0
LINE
  5
1B8
100
AcDbEntity
  8
0
  6
ByLayer
 62
  256
370
   -1
100
AcDbLine
 10
57.45703819953434
 20
215.194069137334
 11
57.45703819953434
 21
215.194069137334
  0
LINE
  5
1B9
100
AcDbEntity
  8
0
  6
ByLayer
 62
  256
370
   -1
100
AcDbLine
 10
-224.8158572969758
 20
-180.1605499286277
 11
-186.2542824843609
 21
-180.4276720375964
  0
LINE
  5
1BA
100
AcDbEntity
  8
0
  6
ByLayer
 62
  256
370
   -1
100
AcDbLine
 10
57.62486616398056
 20
239.4217017606824
 11
57.45703819953434
 21
215.194069137334
  0
LINE
  5
1BB
100
AcDbEntity
  8
0
  6
ByLayer
 62
  256
370
   -1
100
AcDbLine
 10
-378.120414854035
 20
524.468121566172
 11
84.95281061788241
 21
521.26035915585
  0
LINE
  5
1BC
100
AcDbEntity
  8
0
  6
ByLayer
 62
  256
370
   -1
100
AcDbLine
 10
-224.83793708232
 20
-183.3479734544677
 11
-224.8158572969758
 21
-180.1605499286277
  0
LINE
  5
1BD
100
AcDbEntity
  8
0
  6
ByLayer
 62
  256
370
   -1
100
AcDbLine
 10
-224.8158572969758
 20
-180.1605499286277
 11
-224.8158572969758
 21
-180.1605499286277
  0
LINE
  5
1BE
100
AcDbEntity
  8
0
  6
ByLayer
 62
  256
370
   -1
100
AcDbLine
 10
-289.6358947658335
 20
520.6676024681352
 11
-289.6138151101496
 21
523.8550259948734
  0
LINE
  5
1BF
100
AcDbEntity
  8
0
  6
ByLayer
 62
  256
370
   -1
100
AcDbLine
 10
-289.6138151101496
 20
523.8550259948734
 11
-289.6138151101496
 21
523.8550259948734
  0
LINE
  5
1C0
100
AcDbEntity
  8
0
  6
ByLayer
 62
  256
370
   -1
100
AcDbLine
 10
-381.580037394846
 20
25.0362575523497
 11
-383.015955526998
 21
-182.252249379796
  0
LINE
  5
1C1
100
AcDbEntity
  8
0
  6
ByLayer
 62
  256
370
   -1
100
AcDbLine
 10
-379.796140840207
 20
282.55904763791
 11
-378.120414854035
 21
524.468121566172
  0
LINE
  5
1C2
100
AcDbEntity
  8
0
  6
ByLayer
 62
  256
370
   -1
100
AcDbLine
 10
-381.580037394846
 20
25.0362575523497
 11
-379.796140840207
 21
282.55904763791
  0
LINE
  5
1C3
100
AcDbEntity
  8
0
  6
ByLayer
 62
  256
370
   -1
100
AcDbLine
 10
-379.796140840207
 20
282.55904763791
 11
-379.796140840207
 21
282.55904763791
  0
LINE
  5
1C4
100
AcDbEntity
  8
0
  6
ByLayer
 62
  256
370
   -1
100
AcDbLine
 10
-379.796140840207
 20
282.55904763791
 11
-379.7961421433537
 21
282.5590522883692
  0
LINE
  5
1C5
100
AcDbEntity
  8
0
  6
ByLayer
 62
  256
370
   -1
100
AcDbLine
 10
-328.1753899336308
 20
524.1221465352058
 11
-289.6138151101496
 21
523.8550259948734
  0
LINE
  5
1C6
100
AcDbEntity
  8
0
  6
ByLayer
 62
  256
370
   -1
100
AcDbLine
 10
-383.015955526998
 20
-182.252249379796
 11
80.05726055836109
 21
-185.460030563234
  0
LINE
  5
1C7
100
AcDbEntity
  8
0
  6
ByLayer
 62
  256
370
   -1
100
AcDbLine
 10
-186.2542824843609
 20
-180.4276720375964
 11
-186.2763622697051
 21
-183.6150955634364
  0
LINE
  5
1C8
100
AcDbEntity
  8
0
  6
ByLayer
 62
  256
370
   -1
100
AcDbLine
 10
-289.6358947658335
 20
520.6676024681352
 11
-289.6358947658335
 21
520.6676024681352
  0
LINE
  5
1C9
100
AcDbEntity
  8
0
  6
ByLayer
 62
  256
370
   -1
100
AcDbLine
 10
-186.2542824843609
 20
-180.4276720375964
 11
-224.8158572969758
 21
-180.1605499286277
  0
LINE
  5
1CA
100
AcDbEntity
  8
0
  6
ByLayer
 62
  256
370
   -1
100
AcDbLine
 10
-328.1974695893146
 20
520.9347230084677
 11
-328.1974695893146
 21
520.9347230084677
  0
LINE
  5
1CB
100
AcDbEntity
  8
0
  6
ByLayer
 62
  256
370
   -1
100
AcDbLine
 10
-328.1753899336308
 20
524.1221465352058
 11
-328.1974695893146
 21
520.9347230084677
  0
LINE
  5
1CC
100
AcDbEntity
  8
0
  6
ByLayer
 62
  256
370
   -1
100
AcDbLine
 10
-289.6358947658335
 20
520.6676024681352
 11
-289.6138151101496
 21
523.8550259948734
  0
LINE
  5
1CD
100
AcDbEntity
  8
0
  6
ByLayer
 62
  256
370
   -1
100
AcDbLine
 10
-328.1753899336308
 20
524.1221465352058
 11
-328.1974695893146
 21
520.9347230084677
  0
LINE
  5
1CE
100
AcDbEntity
  8
0
  6
ByLayer
 62
  256
370
   -1
100
AcDbLine
 10
-383.0159518614644
 20
-182.2522494051877
 11
-383.015955526998
 21
-182.252249379796
  0
LINE
  5
1CF
100
AcDbEntity
  8
0
  6
ByLayer
 62
  256
370
   -1
100
AcDbLine
 10
-328.1753899336308
 20
524.1221465352058
 11
-328.1753899336308
 21
524.1221465352058
  0
LINE
  5
1D0
100
AcDbEntity
  8
0
  6
ByLayer
 62
  256
370
   -1
100
AcDbLine
 10
-186.2542824843609
 20
-180.4276720375964
 11
-186.2542824843609
 21
-180.4276720375964
  0
LINE
  5
1D1
100
AcDbEntity
  8
0
  6
ByLayer
 62
  256
370
   -1
100
AcDbLine
 10
-289.6358947658335
 20
520.6676024681352
 11
-328.1974695893146
 21
520.9347230084677
  0
LINE
  5
1D2
100
AcDbEntity
  8
0
  6
ByLayer
 62
  256
370
   -1
100
AcDbLine
 10
-328.1974695893146
 20
520.9347230084677
 11
-289.6358947658335
 21
520.6676024681352
  0
LINE
  5
1D3
100
AcDbEntity
  8
0
  6
ByLayer
 62
  256
370
   -1
100
AcDbLine
 10
-378.1204078713188
 20
524.468121517802
 11
-378.120414854035
 21
524.468121566172
  0
LINE
  5
1D4
100
AcDbEntity
  8
0
  6
ByLayer
 62
  256
370
   -1
100
AcDbLine
 10
84.95281061788241
 20
521.26035915585
 11
84.95281057568279
 21
521.2603530639159
  0
LINE
  5
1D5
100
AcDbEntity
  8
0
  6
ByLayer
 62
  256
370
   -1
100
AcDbLine
 10
-328.1753899336308
 20
524.1221465352058
 11
-289.6138151101496
 21
523.8550259948734
  0
LINE
  5
1D6
100
AcDbEntity
  8
0
  6
ByLayer
 62
  256
370
   -1
100
AcDbLine
 10
79.48101974847749
 20
489.26060593973
 11
84.73090649429309
 21
489.224223550757
  0
LINE
  5
1D7
100
AcDbEntity
  8
0
  6
ByLayer
 62
  256
370
   -1
100
AcDbLine
 10
84.73089360815329
 20
489.224223640021
 11
79.48101974847749
 21
489.26060593973
  0
LINE
  5
1D8
100
AcDbEntity
  8
0
  6
ByLayer
 62
  256
370
   -1
100
AcDbLine
 10
80.05726064664947
 20
-185.4600178179346
 11
80.05726055836109
 21
-185.460030563234
  0
LINE
  5
1D9
100
AcDbEntity
  8
0
  6
ByLayer
 62
  256
370
   -1
100
AcDbLine
 10
80.05726055836109
 20
-185.460030563234
 11
80.0780415404772
 21
-182.460102538967
  0
LINE
  5
1DA
100
AcDbEntity
  8
0
  6
ByLayer
 62
  256
370
   -1
100
AcDbLine
 10
80.0780415404772
 20
-182.460102538967
 11
80.0780415404772
 21
-182.460102538967
  0
LINE
  5
1DB
100
AcDbEntity
  8
0
  6
ByLayer
 62
  256
370
   -1
100
AcDbLine
 10
80.0780415404772
 20
-182.460102538967
 11
80.05726055836109
 21
-185.460030563234
  0
LINE
  5
1DC
100
AcDbEntity
  8
0
  6
ByLayer
 62
  256
370
   -1
100
AcDbLine
 10
83.2179535936247
 20
270.815402409811
 11
83.21793999258929
 21
270.815402504027
  0
LINE
  5
1DD
100
AcDbEntity
  8
0
  6
ByLayer
 62
  256
370
   -1
100
AcDbLine
 10
83.21793999258929
 20
270.815402504027
 11
83.23873457574069
 21
273.815330434078
  0
LINE
  5
1DE
100
AcDbEntity
  8
0
  6
ByLayer
 62
  256
370
   -1
100
AcDbLine
 10
83.23873457574069
 20
273.815330434078
 11
83.23873457574069
 21
273.815330434078
  0
LINE
  5
1DF
100
AcDbEntity
  8
0
  6
ByLayer
 62
  256
370
   -1
100
AcDbLine
 10
83.39260255392431
 20
296.027604002918
 11
78.14271712866351
 21
296.063967577116
  0
LINE
  5
1E0
100
AcDbEntity
  8
0
  6
ByLayer
 62
  256
370
   -1
100
AcDbLine
 10
79.1588796703208
 20
117.938883763084
 11
82.1588076944426
 21
117.918102760015
  0
LINE
  5
1E1
100
AcDbEntity
  8
0
  6
ByLayer
 62
  256
370
   -1
100
AcDbLine
 10
79.1588796703208
 20
117.938883763084
 11
79.1588796703208
 21
117.938883763084
  0
LINE
  5
1E2
100
AcDbEntity
  8
0
  6
ByLayer
 62
  256
370
   -1
100
AcDbLine
 10
82.1588076944426
 20
117.918102760015
 11
82.1588076944426
 21
117.918102760015
  0
LINE
  5
1E3
100
AcDbEntity
  8
0
  6
ByLayer
 62
  256
370
   -1
100
AcDbLine
 10
78.14271712866351
 20
296.063967577116
 11
83.3925956816185
 21
296.027604050524
  0
LINE
  5
1E4
100
AcDbEntity
  8
0
  6
ByLayer
 62
  256
370
   -1
100
AcDbLine
 10
-394.709391856757
 20
296.963706729919
 11
-394.709391856757
 21
296.963706729919
  0
LINE
  5
1E5
100
AcDbEntity
  8
0
  6
ByLayer
 62
  256
370
   -1
100
AcDbLine
 10
-530.701483784831
 20
26.0692413270884
 11
-528.917575445701
 21
283.592047653799
  0
LINE
  5
1E6
100
AcDbEntity
  8
0
  6
ByLayer
 62
  256
370
   -1
100
AcDbLine
 10
-379.7961421433537
 20
282.5590522883692
 11
-378.1204078713188
 21
524.468121517802
  0
LINE
  5
1E7
100
AcDbEntity
  8
0
  6
ByLayer
 62
  256
370
   -1
100
AcDbLine
 10
-378.120414854035
 20
524.468121566172
 11
-379.796140775906
 21
282.559056920329
  0
LINE
  5
1E8
100
AcDbEntity
  8
0
  6
ByLayer
 62
  256
370
   -1
100
AcDbLine
 10
-148.28665049996
 20
439.449220191775
 11
-297.771870620607
 21
440.484707749735
  0
LINE
  5
1E9
100
AcDbEntity
  8
0
  6
ByLayer
 62
  256
370
   -1
100
AcDbLine
 10
-396.59237299316
 20
25.1402499661107
 11
-530.701483784831
 21
26.0692413270884
  0
LINE
  5
1EA
100
AcDbEntity
  8
0
  6
ByLayer
 62
  256
370
   -1
100
AcDbLine
 10
-20.1318723948922
 20
438.561477060393
 11
1.19857292065001
 21
438.413695087583
  0
LINE
  5
1EB
100
AcDbEntity
  8
0
  6
ByLayer
 62
  256
370
   -1
100
AcDbLine
 10
-393.028747378372
 20
539.584422674705
 11
-394.709391856757
 21
296.963706729919
  0
LINE
  5
1EC
100
AcDbEntity
  8
0
  6
ByLayer
 62
  256
370
   -1
100
AcDbLine
 10
-379.796140775906
 20
282.559056920329
 11
-381.580037394846
 21
25.0362575523497
  0
LINE
  5
1ED
100
AcDbEntity
  8
0
  6
ByLayer
 62
  256
370
   -1
100
AcDbLine
 10
97.81918187779701
 20
536.1842733668529
 11
1.19857292065001
 21
438.413695087583
  0
LINE
  5
1EE
100
AcDbEntity
  8
0
  6
ByLayer
 62
  256
370
   -1
100
AcDbLine
 10
-379.7961421433537
 20
282.5590522883692
 11
-379.796140775906
 21
282.559056920329
  0
LINE
  5
1EF
100
AcDbEntity
  8
0
  6
ByLayer
 62
  256
370
   -1
100
AcDbLine
 10
-381.580037394846
 20
25.0362575523497
 11
-381.580037394846
 21
25.0362575523497
  0
LINE
  5
1F0
100
AcDbEntity
  8
0
  6
ByLayer
 62
  256
370
   -1
100
AcDbLine
 10
-382.487357384353
 20
-105.9440551293537
 11
-382.754479113874
 21
-144.5056299445972
  0
LINE
  5
1F1
100
AcDbEntity
  8
0
  6
ByLayer
 62
  256
370
   -1
100
AcDbLine
 10
1.19857292065001
 20
438.413695087583
 11
-148.28665049996
 21
439.449220191775
  0
LINE
  5
1F2
100
AcDbEntity
  8
0
  6
ByLayer
 62
  256
370
   -1
100
AcDbLine
 10
-528.917575445701
 20
283.592047653799
 11
-394.808476362121
 21
282.663041693987
  0
LINE
  5
1F3
100
AcDbEntity
  8
0
  6
ByLayer
 62
  256
370
   -1
100
AcDbLine
 10
-394.808476362121
 20
282.663041693987
 11
-396.59237299316
 21
25.1402499661107
  0
LINE
  5
1F4
100
AcDbEntity
  8
0
  6
ByLayer
 62
  256
370
   -1
100
AcDbLine
 10
-398.132256635531
 20
-197.160581904133
 11
92.71565384752169
 21
-200.560749985102
  0
LINE
  5
1F5
100
AcDbEntity
  8
0
  6
ByLayer
 62
  256
370
   -1
100
AcDbLine
 10
60.4074442480493
 20
-17.5433095515244
 11
60.7273850853988
 21
28.6430824460007
  0
LINE
  5
1F6
100
AcDbEntity
  8
0
  6
ByLayer
 62
  256
370
   -1
100
AcDbLine
 10
-398.132256635531
 20
-197.160581904133
 11
-301.511663151538
 21
-99.39003178453819
  0
LINE
  5
1F7
100
AcDbEntity
  8
0
  6
ByLayer
 62
  256
370
   -1
100
AcDbLine
 10
60.4376173394871
 20
-13.1880990632876
 11
60.6971228216577
 21
24.2742004356985
  0
LINE
  5
1F8
100
AcDbEntity
  8
0
  6
ByLayer
 62
  256
370
   -1
100
AcDbLine
 10
-297.771870620607
 20
440.484707749735
 11
-276.441442684864
 21
440.336963323158
  0
LINE
  5
1F9
100
AcDbEntity
  8
0
  6
ByLayer
 62
  256
370
   -1
100
AcDbLine
 10
-23.8716555392648
 20
-101.313271860438
 11
-280.181216442679
 21
-99.5377855976735
  0
LINE
  5
1FA
100
AcDbEntity
  8
0
  6
ByLayer
 62
  256
370
   -1
100
AcDbLine
 10
-394.772657259243
 20
287.835034798449
 11
-394.772657259243
 21
287.835034798449
  0
LINE
  5
1FB
100
AcDbEntity
  8
0
  6
ByLayer
 62
  256
370
   -1
100
AcDbLine
 10
97.81918187779701
 20
536.1842733668529
 11
-393.028747378372
 21
539.584422674705
  0
LINE
  5
1FC
100
AcDbEntity
  8
0
  6
ByLayer
 62
  256
370
   -1
100
AcDbLine
 10
-276.441442684864
 20
440.336963323158
 11
-20.1318723948922
 21
438.561477060393
  0
LINE
  5
1FD
100
AcDbEntity
  8
0
  6
ByLayer
 62
  256
370
   -1
100
AcDbLine
 10
-280.181216442679
 20
-99.5377855976735
 11
-301.511663151538
 21
-99.39003178453819
  0
LINE
  5
1FE
100
AcDbEntity
  8
0
  6
ByLayer
 62
  256
370
   -1
100
AcDbLine
 10
-393.028747378372
 20
539.584422674705
 11
-393.028747378372
 21
539.584422674705
  0
LINE
  5
1FF
100
AcDbEntity
  8
0
  6
ByLayer
 62
  256
370
   -1
100
AcDbLine
 10
-301.511663151538
 20
-99.39003178453819
 11
-152.026433644332
 21
-100.425528729056
  0
LINE
  5
200
100
AcDbEntity
  8
0
  6
ByLayer
 62
  256
370
   -1
100
AcDbLine
 10
60.7273850853988
 20
28.6430824460007
 11
60.4074442480493
 21
-17.5433095515244
  0
LINE
  5
201
100
AcDbEntity
  8
0
  6
ByLayer
 62
  256
370
   -1
100
AcDbLine
 10
60.4376173394871
 20
-13.1880990632876
 11
60.4376173394871
 21
-13.1880990632876
  0
LINE
  5
202
100
AcDbEntity
  8
0
  6
ByLayer
 62
  256
370
   -1
100
AcDbLine
 10
60.6971228216577
 20
24.2742004356985
 11
60.6971228216577
 21
24.2742004356985
  0
LINE
  5
203
100
AcDbEntity
  8
0
  6
ByLayer
 62
  256
370
   -1
100
AcDbLine
 10
60.6971228216577
 20
24.2742004356985
 11
60.4376173394871
 21
-13.1880990632876
  0
LINE
  5
204
100
AcDbEntity
  8
0
  6
ByLayer
 62
  256
370
   -1
100
AcDbLine
 10
-393.028747378372
 20
539.584422674705
 11
-394.772657259243
 21
287.835034798449
  0
LINE
  5
205
100
AcDbEntity
  8
0
  6
ByLayer
 62
  256
370
   -1
100
AcDbLine
 10
-150.075747272161
 20
181.176343302088
 11
-148.28665049996
 21
439.449220191775
  0
LINE
  5
206
100
AcDbEntity
  8
0
  6
ByLayer
 62
  256
370
   -1
100
AcDbLine
 10
-2.54120971039524
 20
-101.461035060132
 11
-23.8716555392648
 21
-101.313271860438
  0
LINE
  5
207
100
AcDbEntity
  8
0
  6
ByLayer
 62
  256
370
   -1
100
AcDbLine
 10
-393.028747378372
 20
539.584422674705
 11
-297.771870620607
 21
440.484707749735
  0
LINE
  5
208
100
AcDbEntity
  8
0
  6
ByLayer
 62
  256
370
   -1
100
AcDbLine
 10
81.21944787934071
 20
-17.6874765260952
 11
81.1986669410072
 21
-20.6874045506654
  0
LINE
  5
209
100
AcDbEntity
  8
0
  6
ByLayer
 62
  256
370
   -1
100
AcDbLine
 10
80.05726055836109
 20
-185.460030563234
 11
-383.015955526998
 21
-182.252249379796
  0
LINE
  5
20A
100
AcDbEntity
  8
0
  6
ByLayer
 62
  256
370
   -1
100
AcDbLine
 10
84.95281061788241
 20
521.26035915585
 11
-378.120414854035
 21
524.468121566172
  0
LINE
  5
20B
100
AcDbEntity
  8
0
  6
ByLayer
 62
  256
370
   -1
100
AcDbLine
 10
-186.2763622697051
 20
-183.6150955634364
 11
-224.83793708232
 21
-183.3479734544677
  0
LINE
  5
20C
100
AcDbEntity
  8
0
  6
ByLayer
 62
  256
370
   -1
100
AcDbLine
 10
84.95281057568279
 20
521.2603530639159
 11
84.95281061788241
 21
521.26035915585
  0
LINE
  5
20D
100
AcDbEntity
  8
0
  6
ByLayer
 62
  256
370
   -1
100
AcDbLine
 10
-378.120414854035
 20
524.468121566172
 11
-378.1204078713188
 21
524.468121517802
  0
LINE
  5
20E
100
AcDbEntity
  8
0
  6
ByLayer
 62
  256
370
   -1
100
AcDbLine
 10
-382.754479113874
 20
-144.5056299445972
 11
-382.487357384353
 21
-105.9440551293537
  0
LINE
  5
20F
100
AcDbEntity
  8
0
  6
ByLayer
 62
  256
370
   -1
100
AcDbLine
 10
-383.0159518614644
 20
-182.2522494051877
 11
80.05726064664947
 21
-185.4600178179346
  0
LINE
  5
210
100
AcDbEntity
  8
0
  6
ByLayer
 62
  256
370
   -1
100
AcDbLine
 10
82.6103659169889
 20
183.104470935894
 11
82.6103659169889
 21
183.104470935894
  0
LINE
  5
211
100
AcDbEntity
  8
0
  6
ByLayer
 62
  256
370
   -1
100
AcDbLine
 10
81.1986669410072
 20
-20.6874045506654
 11
81.1986669410072
 21
-20.6874045506654
  0
LINE
  5
212
100
AcDbEntity
  8
0
  6
ByLayer
 62
  256
370
   -1
100
AcDbLine
 10
81.5393884692845
 20
28.4989166464635
 11
81.5393887166902
 21
28.4989166447497
  0
LINE
  5
213
100
AcDbEntity
  8
0
  6
ByLayer
 62
  256
370
   -1
100
AcDbLine
 10
81.1986669410072
 20
-20.6874045506654
 11
81.2194479231232
 21
-17.6874765263984
  0
LINE
  5
214
100
AcDbEntity
  8
0
  6
ByLayer
 62
  256
370
   -1
100
AcDbLine
 10
-394.772657259243
 20
287.835034798449
 11
-394.709391856757
 21
296.963706729919
  0
LINE
  5
215
100
AcDbEntity
  8
0
  6
ByLayer
 62
  256
370
   -1
100
AcDbLine
 10
-396.705762607845
 20
27.8449809457373
 11
-381.555444612278
 21
28.58780735121
  0
LINE
  5
216
100
AcDbEntity
  8
0
  6
ByLayer
 62
  256
370
   -1
100
AcDbLine
 10
-543.812879427211
 20
11.8587277536317
 11
-396.691419946866
 21
10.8395986200318
  0
LINE
  5
217
100
AcDbEntity
  8
0
  6
ByLayer
 62
  256
370
   -1
100
AcDbLine
 10
-382.487357384353
 20
-105.9440551293537
 11
-382.487357384353
 21
-105.9440551293537
  0
LINE
  5
218
100
AcDbEntity
  8
0
  6
ByLayer
 62
  256
370
   -1
100
AcDbLine
 10
-224.83793708232
 20
-183.3479734544677
 11
-186.2763622697051
 21
-183.6150955634364
  0
LINE
  5
219
100
AcDbEntity
  8
0
  6
ByLayer
 62
  256
370
   -1
100
AcDbLine
 10
-381.580037394846
 20
25.0362575523497
 11
-381.580037394846
 21
25.0362575523497
  0
LINE
  5
21A
100
AcDbEntity
  8
0
  6
ByLayer
 62
  256
370
   -1
100
AcDbLine
 10
81.5393887166902
 20
28.4989166447497
 11
78.5394606901589
 21
28.5196972999872
  0
LINE
  5
21B
100
AcDbEntity
  8
0
  6
ByLayer
 62
  256
370
   -1
100
AcDbLine
 10
78.5394606901589
 20
28.5196972999872
 11
81.5393884692845
 21
28.4989166464635
  0
LINE
  5
21C
100
AcDbEntity
  8
0
  6
ByLayer
 62
  256
370
   -1
100
AcDbLine
 10
82.1795904815598
 20
120.918030771778
 11
82.1795904815598
 21
120.918030771778
  0
LINE
  5
21D
100
AcDbEntity
  8
0
  6
ByLayer
 62
  256
370
   -1
100
AcDbLine
 10
82.1795904815598
 20
120.918030771778
 11
82.6103659169889
 21
183.104470935894
  0
LINE
  5
21E
100
AcDbEntity
  8
0
  6
ByLayer
 62
  256
370
   -1
100
AcDbLine
 10
-382.754479113874
 20
-144.5056299445972
 11
-382.754479113874
 21
-144.5056299445972
  0
LINE
  5
21F
100
AcDbEntity
  8
0
  6
ByLayer
 62
  256
370
   -1
100
AcDbLine
 10
78.14271712866351
 20
296.063967577116
 11
79.48101974847749
 21
489.26060593973
  0
LINE
  5
220
100
AcDbEntity
  8
0
  6
ByLayer
 62
  256
370
   -1
100
AcDbLine
 10
79.48101974847749
 20
489.26060593973
 11
79.48101974847749
 21
489.26060593973
  0
LINE
  5
221
100
AcDbEntity
  8
0
  6
ByLayer
 62
  256
370
   -1
100
AcDbLine
 10
79.48101974847749
 20
489.26060593973
 11
78.14271712866351
 21
296.063967577116
  0
LINE
  5
222
100
AcDbEntity
  8
0
  6
ByLayer
 62
  256
370
   -1
100
AcDbLine
 10
78.14271712866351
 20
296.063967577116
 11
78.14271712866351
 21
296.063967577116
  0
LINE
  5
223
100
AcDbEntity
  8
0
  6
ByLayer
 62
  256
370
   -1
100
AcDbLine
 10
82.39971028683721
 20
152.694371700289
 11
82.1795904815598
 21
120.918030771778
  0
LINE
  5
224
100
AcDbEntity
  8
0
  6
ByLayer
 62
  256
370
   -1
100
AcDbLine
 10
82.1795904815598
 20
120.918030771778
 11
82.1795904815598
 21
120.918030771778
  0
LINE
  5
225
100
AcDbEntity
  8
0
  6
ByLayer
 62
  256
370
   -1
100
AcDbLine
 10
82.61036591698888
 20
183.104470935894
 11
82.39971028683721
 21
152.694371700289
  0
LINE
  5
226
100
AcDbEntity
  8
0
  6
ByLayer
 62
  256
370
   -1
100
AcDbLine
 10
-186.2763622697051
 20
-183.6150955634364
 11
-186.2763622697051
 21
-183.6150955634364
  0
LINE
  5
227
100
AcDbEntity
  8
0
  6
ByLayer
 62
  256
370
   -1
100
AcDbLine
 10
80.05726064664947
 20
-185.4600178179346
 11
80.05726055836109
 21
-185.460030563234
  0
LINE
  5
228
100
AcDbEntity
  8
0
  6
ByLayer
 62
  256
370
   -1
100
AcDbLine
 10
-381.555444612278
 20
28.58780735121
 11
-379.791597681721
 21
283.216472685806
  0
LINE
  5
229
100
AcDbEntity
  8
0
  6
ByLayer
 62
  256
370
   -1
100
AcDbLine
 10
-381.580037394846
 20
25.0362575523497
 11
-383.0159518614644
 21
-182.2522494051877
  0
LINE
  5
22A
100
AcDbEntity
  8
0
  6
ByLayer
 62
  256
370
   -1
100
AcDbLine
 10
-383.015955526998
 20
-182.252249379796
 11
-381.580037394846
 21
25.0362575523497
  0
LINE
  5
22B
100
AcDbEntity
  8
0
  6
ByLayer
 62
  256
370
   -1
100
AcDbLine
 10
-381.580037394846
 20
25.0362575523497
 11
-381.580037394846
 21
25.0362575523497
  0
LINE
  5
22C
100
AcDbEntity
  8
0
  6
ByLayer
 62
  256
370
   -1
100
AcDbLine
 10
-383.015955526998
 20
-182.252249379796
 11
-383.0159518614644
 21
-182.2522494051877
  0
LINE
  5
22D
100
AcDbEntity
  8
0
  6
ByLayer
 62
  256
370
   -1
100
AcDbLine
 10
-224.83793708232
 20
-183.3479734544677
 11
-224.83793708232
 21
-183.3479734544677
  0
LINE
  5
22E
100
AcDbEntity
  8
0
  6
ByLayer
 62
  256
370
   -1
100
AcDbLine
 10
-394.930163706382
 20
284.169114480807
 11
-394.772657259243
 21
287.835034798449
  0
LINE
  5
22F
100
AcDbEntity
  8
0
  6
ByLayer
 62
  256
370
   -1
100
AcDbLine
 10
-396.599018667627
 20
24.1772302492397
 11
-396.705762607845
 21
27.8449809457373
  0
LINE
  5
230
100
AcDbEntity
  8
0
  6
ByLayer
 62
  256
370
   -1
100
AcDbLine
 10
-379.791597681721
 20
283.216472685806
 11
-394.930163706382
 21
284.169114480807
  0
LINE
  5
231
100
AcDbEntity
  8
0
  6
ByLayer
 62
  256
370
   -1
100
AcDbLine
 10
-394.709391856757
 20
296.963706729919
 11
-541.830888883335
 21
297.982824130321
  0
LINE
  5
232
100
AcDbEntity
  8
0
  6
ByLayer
 62
  256
370
   -1
100
AcDbLine
 10
58.0067315083612
 20
186.274971547673
 11
58.0067315083612
 21
186.274971547673
  0
LINE
  5
233
100
AcDbEntity
  8
0
  6
ByLayer
 62
  256
370
   -1
100
AcDbLine
 10
-378.1204078713188
 20
524.468121517802
 11
84.95281057568279
 21
521.2603530639159
  0
LINE
  5
234
100
AcDbEntity
  8
0
  6
ByLayer
 62
  256
370
   -1
100
AcDbLine
 10
-396.677565386915
 20
12.8395503430855
 11
-396.691419946866
 21
10.8395986200318
  0
LINE
  5
235
100
AcDbEntity
  8
0
  6
ByLayer
 62
  256
370
   -1
100
AcDbLine
 10
86.00605754401739
 20
186.081007709653
 11
86.00605754401739
 21
186.081007709653
  0
LINE
  5
236
100
AcDbEntity
  8
0
  6
ByLayer
 62
  256
370
   -1
100
AcDbLine
 10
84.73089360815329
 20
489.224223640021
 11
84.73090649429309
 21
489.224223550757
  0
LINE
  5
237
100
AcDbEntity
  8
0
  6
ByLayer
 62
  256
370
   -1
100
AcDbLine
 10
78.2195198539391
 20
-17.6666957077715
 11
81.21944787934071
 21
-17.6874765260952
  0
LINE
  5
238
100
AcDbEntity
  8
0
  6
ByLayer
 62
  256
370
   -1
100
AcDbLine
 10
81.21944787934071
 20
-17.6874765260952
 11
81.2194479231232
 21
-17.6874765263984
  0
LINE
  5
239
100
AcDbEntity
  8
0
  6
ByLayer
 62
  256
370
   -1
100
AcDbLine
 10
81.2194479231232
 20
-17.6874765263984
 11
78.2195198539391
 21
-17.6666957077715
  0
LINE
  5
23A
100
AcDbEntity
  8
0
  6
ByLayer
 62
  256
370
   -1
100
AcDbLine
 10
-530.0488741459621
 20
120.2928427306634
 11
-530.0488489335194
 21
120.2928425560111
  0
LINE
  5
23B
100
AcDbEntity
  8
0
  6
ByLayer
 62
  256
370
   -1
100
AcDbLine
 10
55.0068034900455
 20
186.295753388893
 11
55.0068034900455
 21
186.295753388893
  0
LINE
  5
23C
100
AcDbEntity
  8
0
  6
ByLayer
 62
  256
370
   -1
100
AcDbLine
 10
54.5344671865148
 20
118.109457136139
 11
54.5344671865148
 21
118.109457136139
  0
LINE
  5
23D
100
AcDbEntity
  8
0
  6
ByLayer
 62
  256
370
   -1
100
AcDbLine
 10
-396.691419946866
 20
10.8395986200318
 11
-396.691419946866
 21
10.8395986200318
  0
LINE
  5
23E
100
AcDbEntity
  8
0
  6
ByLayer
 62
  256
370
   -1
100
AcDbLine
 10
83.2179535936247
 20
270.815402409811
 11
83.23873457574069
 21
273.815330434078
  0
LINE
  5
23F
100
AcDbEntity
  8
0
  6
ByLayer
 62
  256
370
   -1
100
AcDbLine
 10
83.0061295257116
 20
186.101789552299
 11
83.0061295257116
 21
186.101789552299
  0
LINE
  5
240
100
AcDbEntity
  8
0
  6
ByLayer
 62
  256
370
   -1
100
AcDbLine
 10
83.23873457574069
 20
273.815330434078
 11
82.61036591698888
 21
183.104470935894
  0
LINE
  5
241
100
AcDbEntity
  8
0
  6
ByLayer
 62
  256
370
   -1
100
AcDbLine
 10
83.36042121145874
 20
291.3818650066679
 11
83.39260255392431
 21
296.027604002918
  0
LINE
  5
242
100
AcDbEntity
  8
0
  6
ByLayer
 62
  256
370
   -1
100
AcDbLine
 10
84.75788859189919
 20
493.1197140222577
 11
84.75788322398431
 21
493.119714059442
  0
LINE
  5
243
100
AcDbEntity
  8
0
  6
ByLayer
 62
  256
370
   -1
100
AcDbLine
 10
83.39260255392431
 20
296.027604002918
 11
83.3925956816185
 21
296.027604050524
  0
LINE
  5
244
100
AcDbEntity
  8
0
  6
ByLayer
 62
  256
370
   -1
100
AcDbLine
 10
82.61036591698888
 20
183.104470935894
 11
82.6103659169889
 21
183.104470935894
  0
LINE
  5
245
100
AcDbEntity
  8
0
  6
ByLayer
 62
  256
370
   -1
100
AcDbLine
 10
82.6103659169889
 20
183.104470935894
 11
82.63114689910491
 21
186.104398960161
  0
LINE
  5
246
100
AcDbEntity
  8
0
  6
ByLayer
 62
  256
370
   -1
100
AcDbLine
 10
82.63114689910491
 20
186.104398960161
 11
83.2179535936247
 21
270.815402409811
  0
LINE
  5
247
100
AcDbEntity
  8
0
  6
ByLayer
 62
  256
370
   -1
100
AcDbLine
 10
83.23873457574069
 20
273.815330434078
 11
83.23873457574069
 21
273.815330434078
  0
LINE
  5
248
100
AcDbEntity
  8
0
  6
ByLayer
 62
  256
370
   -1
100
AcDbLine
 10
85.53372593376579
 20
117.894720843458
 11
85.53372593376579
 21
117.894720843458
  0
LINE
  5
249
100
AcDbEntity
  8
0
  6
ByLayer
 62
  256
370
   -1
100
AcDbLine
 10
-396.677565386915
 20
12.8395503430855
 11
-396.677565386915
 21
12.8395503430855
  0
LINE
  5
24A
100
AcDbEntity
  8
0
  6
ByLayer
 62
  256
370
   -1
100
AcDbLine
 10
84.73090649429309
 20
489.224223550757
 11
84.75788859189919
 21
493.1197140222577
  0
LINE
  5
24B
100
AcDbEntity
  8
0
  6
ByLayer
 62
  256
370
   -1
100
AcDbLine
 10
-396.691419946866
 20
10.8395986200318
 11
-396.677565386915
 21
12.8395503430855
  0
LINE
  5
24C
100
AcDbEntity
  8
0
  6
ByLayer
 62
  256
370
   -1
100
AcDbLine
 10
83.36041888721059
 20
291.3818650227683
 11
83.36042121145874
 21
291.3818650066679
  0
LINE
  5
24D
100
AcDbEntity
  8
0
  6
ByLayer
 62
  256
370
   -1
100
AcDbLine
 10
83.3925956816185
 20
296.027604050524
 11
84.73089360815329
 21
489.224223640021
  0
LINE
  5
24E
100
AcDbEntity
  8
0
  6
ByLayer
 62
  256
370
   -1
100
AcDbLine
 10
84.75788322398431
 20
493.119714059442
 11
83.36041888721059
 21
291.3818650227683
  0
LINE
  5
24F
100
AcDbEntity
  8
0
  6
ByLayer
 62
  256
370
   -1
100
AcDbLine
 10
-528.917644987889
 20
283.592048135531
 11
-528.9176702003321
 21
283.592048310182
  0
LINE
  5
250
100
AcDbEntity
  8
0
  6
ByLayer
 62
  256
370
   -1
100
AcDbLine
 10
-528.9176702003321
 20
283.592048310182
 11
-530.0488741459621
 21
120.2928427306634
  0
LINE
  5
251
100
AcDbEntity
  8
0
  6
ByLayer
 62
  256
370
   -1
100
AcDbLine
 10
-530.0488489335194
 20
120.2928425560111
 11
-528.917644987889
 21
283.592048135531
  0
LINE
  5
252
100
AcDbEntity
  8
0
  6
ByLayer
 62
  256
370
   -1
100
AcDbLine
 10
-394.709391856757
 20
296.963706729919
 11
-394.709391856757
 21
296.963706729919
  0
LINE
  5
253
100
AcDbEntity
  8
0
  6
ByLayer
 62
  256
370
   -1
100
AcDbLine
 10
-539.453386321781
 20
295.966309825266
 11
-394.723246416708
 21
294.963750313586
  0
LINE
  5
254
100
AcDbEntity
  8
0
  6
ByLayer
 62
  256
370
   -1
100
AcDbLine
 10
-394.723246416708
 20
294.963750313586
 11
-394.709391856757
 21
296.963706729919
  0
LINE
  5
255
100
AcDbEntity
  8
0
  6
ByLayer
 62
  256
370
   -1
100
AcDbLine
 10
-394.709391856757
 20
296.963706729919
 11
-394.723246416708
 21
294.963750313586
  0
LINE
  5
256
100
AcDbEntity
  8
0
  6
ByLayer
 62
  256
370
   -1
100
AcDbLine
 10
-394.723246416708
 20
294.963750313586
 11
-394.723246416708
 21
294.963750313586
  0
LINE
  5
257
100
AcDbEntity
  8
0
  6
ByLayer
 62
  256
370
   -1
100
AcDbLine
 10
-394.723246416708
 20
294.963750313586
 11
-539.453386321781
 21
295.966309825266
  0
LINE
  5
258
100
AcDbEntity
  8
0
  6
ByLayer
 62
  256
370
   -1
100
AcDbLine
 10
-539.453386321781
 20
295.966309825266
 11
-539.453386321781
 21
295.966309825266
  0
LINE
  5
259
100
AcDbEntity
  8
0
  6
ByLayer
 62
  256
370
   -1
100
AcDbLine
 10
57.42687374407549
 20
210.839530562361
 11
57.2567474185012
 21
186.280152929111
  0
LINE
  5
25A
100
AcDbEntity
  8
0
  6
ByLayer
 62
  256
370
   -1
100
AcDbLine
 10
56.2110472851851
 20
35.323047731805
 11
56.7844111149705
 21
118.093875449473
  0
LINE
  5
25B
100
AcDbEntity
  8
0
  6
ByLayer
 62
  256
370
   -1
100
AcDbLine
 10
57.2567474185012
 20
186.280152929111
 11
57.8435527996754
 21
270.991175193486
  0
LINE
  5
25C
100
AcDbEntity
  8
0
  6
ByLayer
 62
  256
370
   -1
100
AcDbLine
 10
57.65503061943941
 20
243.7762403356554
 11
57.65503061943941
 21
243.7762403356554
  0
LINE
  5
25D
100
AcDbEntity
  8
0
  6
ByLayer
 62
  256
370
   -1
100
AcDbLine
 10
57.65503061943941
 20
243.7762403356554
 11
57.42687374407549
 21
210.839530562361
  0
LINE
  5
25E
100
AcDbEntity
  8
0
  6
ByLayer
 62
  256
370
   -1
100
AcDbLine
 10
57.42687374407549
 20
210.839530562361
 11
57.42687374407549
 21
210.839530562361
  0
LINE
  5
25F
100
AcDbEntity
  8
0
  6
ByLayer
 62
  256
370
   -1
100
AcDbLine
 10
57.2567474185012
 20
186.280152929111
 11
57.2567474185012
 21
186.280152929111
  0
LINE
  5
260
100
AcDbEntity
  8
0
  6
ByLayer
 62
  256
370
   -1
100
AcDbLine
 10
57.8435527996754
 20
270.991175193486
 11
57.65503061943941
 21
243.7762403356554
  0
LINE
  5
261
100
AcDbEntity
  8
0
  6
ByLayer
 62
  256
370
   -1
100
AcDbLine
 10
57.65411316882967
 20
243.6439430234498
 11
57.65411316882966
 21
243.6439430234498
  0
LINE
  5
262
100
AcDbEntity
  8
0
  6
ByLayer
 62
  256
370
   -1
100
AcDbLine
 10
57.42855348034821
 20
211.0822242562082
 11
57.65411316882967
 21
243.6439430234498
  0
LINE
  5
263
100
AcDbEntity
  8
0
  6
ByLayer
 62
  256
370
   -1
100
AcDbLine
 10
56.38456005709187
 20
60.37135912543626
 11
56.60795464473472
 21
92.62058539302618
  0
LINE
  5
264
100
AcDbEntity
  8
0
  6
ByLayer
 62
  256
370
   -1
100
AcDbLine
 10
56.60795464473472
 20
92.62058539302618
 11
56.60795464473472
 21
92.62058539302618
  0
LINE
  5
265
100
AcDbEntity
  8
0
  6
ByLayer
 62
  256
370
   -1
100
AcDbLine
 10
56.41390921796069
 20
64.60820183326334
 11
56.41390921796069
 21
64.60820183326334
  0
LINE
  5
266
100
AcDbEntity
  8
0
  6
ByLayer
 62
  256
370
   -1
100
AcDbLine
 10
56.41390921796069
 20
64.60820183326334
 11
56.57860548386589
 21
88.38374268519908
  0
LINE
  5
267
100
AcDbEntity
  8
0
  6
ByLayer
 62
  256
370
   -1
100
AcDbLine
 10
56.57860548386589
 20
88.38374268519908
 11
56.57860548386589
 21
88.38374268519908
  0
LINE
  5
268
100
AcDbEntity
  8
0
  6
ByLayer
 62
  256
370
   -1
100
AcDbLine
 10
56.57860548386589
 20
88.38374268519908
 11
56.41390921796069
 21
64.60820183326334
  0
LINE
  5
269
100
AcDbEntity
  8
0
  6
ByLayer
 62
  256
370
   -1
100
AcDbLine
 10
57.42855348034821
 20
211.0822242562082
 11
57.4285534803482
 21
211.0822242562082
  0
LINE
  5
26A
100
AcDbEntity
  8
0
  6
ByLayer
 62
  256
370
   -1
100
AcDbLine
 10
57.4285534803482
 20
211.0822242562082
 11
57.65411316882966
 21
243.6439430234498
  0
LINE
  5
26B
100
AcDbEntity
  8
0
  6
ByLayer
 62
  256
370
   -1
100
AcDbLine
 10
57.45385618402986
 20
214.734913825339
 11
57.45385618402987
 21
214.734913825339
  0
LINE
  5
26C
100
AcDbEntity
  8
0
  6
ByLayer
 62
  256
370
   -1
100
AcDbLine
 10
57.45385618402987
 20
214.734913825339
 11
57.62881046514802
 21
239.9912534543191
  0
LINE
  5
26D
100
AcDbEntity
  8
0
  6
ByLayer
 62
  256
370
   -1
100
AcDbLine
 10
57.62881046514802
 20
239.9912534543191
 11
57.62881046514801
 21
239.9912534543191
  0
LINE
  5
26E
100
AcDbEntity
  8
0
  6
ByLayer
 62
  256
370
   -1
100
AcDbLine
 10
57.62881046514801
 20
239.9912534543191
 11
57.45385618402986
 21
214.734913825339
  0
LINE
  5
26F
100
AcDbEntity
  8
0
  6
ByLayer
 62
  256
370
   -1
100
AcDbLine
 10
56.58716807288589
 20
89.61986120789925
 11
56.41221426346765
 21
64.36352157565162
  0
LINE
  5
270
100
AcDbEntity
  8
0
  6
ByLayer
 62
  256
370
   -1
100
AcDbLine
 10
56.58716807288589
 20
89.61986120789925
 11
56.58716807288589
 21
89.61986120789925
  0
LINE
  5
271
100
AcDbEntity
  8
0
  6
ByLayer
 62
  256
370
   -1
100
AcDbLine
 10
56.38691162800545
 20
60.71083200604831
 11
56.61247070834809
 21
93.27255077750254
  0
LINE
  5
272
100
AcDbEntity
  8
0
  6
ByLayer
 62
  256
370
   -1
100
AcDbLine
 10
56.38691162800545
 20
60.71083200604831
 11
56.38691162800545
 21
60.71083200604831
  0
LINE
  5
273
100
AcDbEntity
  8
0
  6
ByLayer
 62
  256
370
   -1
100
AcDbLine
 10
56.7844111149705
 20
118.093875449473
 11
56.7844111149705
 21
118.093875449473
  0
LINE
  5
274
100
AcDbEntity
  8
0
  6
ByLayer
 62
  256
370
   -1
100
AcDbLine
 10
56.41221426346765
 20
64.36352157565162
 11
56.58716807288589
 21
89.61986120789925
  0
LINE
  5
275
100
AcDbEntity
  8
0
  6
ByLayer
 62
  256
370
   -1
100
AcDbLine
 10
56.61247070834809
 20
93.27255077750254
 11
56.38691162800545
 21
60.71083200604831
  0
LINE
  5
276
100
AcDbEntity
  8
0
  6
ByLayer
 62
  256
370
   -1
100
AcDbLine
 10
56.41221426346765
 20
64.36352157565162
 11
56.41221426346765
 21
64.36352157565162
  0
LINE
  5
277
100
AcDbEntity
  8
0
  6
ByLayer
 62
  256
370
   -1
100
AcDbLine
 10
56.38456005709187
 20
60.37135912543626
 11
56.38456005709187
 21
60.37135912543626
  0
LINE
  5
278
100
AcDbEntity
  8
0
  6
ByLayer
 62
  256
370
   -1
100
AcDbLine
 10
56.61247070834809
 20
93.27255077750254
 11
56.61247070834809
 21
93.27255077750254
  0
LINE
  5
279
100
AcDbEntity
  8
0
  6
ByLayer
 62
  256
370
   -1
100
AcDbLine
 10
81.5854391713781
 20
35.1472750423461
 11
78.58551114727361
 21
35.1680560479265
  0
LINE
  5
27A
100
AcDbEntity
  8
0
  6
ByLayer
 62
  256
370
   -1
100
AcDbLine
 10
78.58551114727361
 20
35.1680560479265
 11
56.2110472851851
 21
35.323047731805
  0
LINE
  5
27B
100
AcDbEntity
  8
0
  6
ByLayer
 62
  256
370
   -1
100
AcDbLine
 10
56.2110472851851
 20
35.323047731805
 11
56.38456005709187
 21
60.37135912543626
  0
LINE
  5
27C
100
AcDbEntity
  8
0
  6
ByLayer
 62
  256
370
   -1
100
AcDbLine
 10
56.38456005709187
 20
60.37135912543626
 11
56.60795464473472
 21
92.62058539302618
  0
LINE
  5
27D
100
AcDbEntity
  8
0
  6
ByLayer
 62
  256
370
   -1
100
AcDbLine
 10
56.60795464473472
 20
92.62058539302618
 11
56.7844111149705
 21
118.093875449473
  0
LINE
  5
27E
100
AcDbEntity
  8
0
  6
ByLayer
 62
  256
370
   -1
100
AcDbLine
 10
56.7844111149705
 20
118.093875449473
 11
79.1588796703208
 21
117.938883763084
  0
LINE
  5
27F
100
AcDbEntity
  8
0
  6
ByLayer
 62
  256
370
   -1
100
AcDbLine
 10
79.1588796703208
 20
117.938883763084
 11
82.1588076944426
 21
117.918102760015
  0
LINE
  5
280
100
AcDbEntity
  8
0
  6
ByLayer
 62
  256
370
   -1
100
AcDbLine
 10
82.1588076944426
 20
117.918102760015
 11
81.5854391713781
 21
35.1472750423461
  0
LINE
  5
281
100
AcDbEntity
  8
0
  6
ByLayer
 62
  256
370
   -1
100
AcDbLine
 10
85.53372593376579
 20
117.894720843458
 11
85.5545065617042
 21
120.894648870178
  0
LINE
  5
282
100
AcDbEntity
  8
0
  6
ByLayer
 62
  256
370
   -1
100
AcDbLine
 10
78.58551114727361
 20
35.1680560479265
 11
56.2110472851851
 21
35.323047731805
  0
LINE
  5
283
100
AcDbEntity
  8
0
  6
ByLayer
 62
  256
370
   -1
100
AcDbLine
 10
54.5344671865148
 20
118.109457136139
 11
57.5343952111792
 21
118.088676211406
  0
LINE
  5
284
100
AcDbEntity
  8
0
  6
ByLayer
 62
  256
370
   -1
100
AcDbLine
 10
60.4074442480493
 20
-17.5433095515244
 11
78.2195198539391
 21
-17.6666957077715
  0
LINE
  5
285
100
AcDbEntity
  8
0
  6
ByLayer
 62
  256
370
   -1
100
AcDbLine
 10
78.2195198539391
 20
-17.6666957077715
 11
78.2195198539391
 21
-17.6666957077715
  0
LINE
  5
286
100
AcDbEntity
  8
0
  6
ByLayer
 62
  256
370
   -1
100
AcDbLine
 10
78.2195198539391
 20
-17.6666957077715
 11
60.4074442480493
 21
-17.5433095515244
  0
LINE
  5
287
100
AcDbEntity
  8
0
  6
ByLayer
 62
  256
370
   -1
100
AcDbLine
 10
60.4074442480493
 20
-17.5433095515244
 11
60.4074442480493
 21
-17.5433095515244
  0
LINE
  5
288
100
AcDbEntity
  8
0
  6
ByLayer
 62
  256
370
   -1
100
AcDbLine
 10
78.58551114727361
 20
35.1680560479265
 11
78.58551114727361
 21
35.1680560479265
  0
LINE
  5
289
100
AcDbEntity
  8
0
  6
ByLayer
 62
  256
370
   -1
100
AcDbLine
 10
56.2110472851851
 20
35.323047731805
 11
56.2110472851851
 21
35.323047731805
  0
LINE
  5
28A
100
AcDbEntity
  8
0
  6
ByLayer
 62
  256
370
   -1
100
AcDbLine
 10
55.0068034900455
 20
186.295753388893
 11
54.9860246059684
 21
183.295825350093
  0
LINE
  5
28B
100
AcDbEntity
  8
0
  6
ByLayer
 62
  256
370
   -1
100
AcDbLine
 10
-541.830888883335
 20
297.982824130321
 11
-543.812879427211
 21
11.8587277536317
  0
LINE
  5
28C
100
AcDbEntity
  8
0
  6
ByLayer
 62
  256
370
   -1
100
AcDbLine
 10
60.7273850853988
 20
28.6430824460007
 11
78.5394606901589
 21
28.5196972999872
  0
LINE
  5
28D
100
AcDbEntity
  8
0
  6
ByLayer
 62
  256
370
   -1
100
AcDbLine
 10
60.7273850853988
 20
28.6430824460007
 11
60.7273850853988
 21
28.6430824460007
  0
LINE
  5
28E
100
AcDbEntity
  8
0
  6
ByLayer
 62
  256
370
   -1
100
AcDbLine
 10
-543.812879427211
 20
11.8587277536317
 11
-543.812879427211
 21
11.8587277536317
  0
LINE
  5
28F
100
AcDbEntity
  8
0
  6
ByLayer
 62
  256
370
   -1
100
AcDbLine
 10
86.00605754401739
 20
186.081007709653
 11
83.0061295257116
 21
186.101789552299
  0
LINE
  5
290
100
AcDbEntity
  8
0
  6
ByLayer
 62
  256
370
   -1
100
AcDbLine
 10
85.9852744901345
 20
183.081079699738
 11
86.00605754401739
 21
186.081007709653
  0
LINE
  5
291
100
AcDbEntity
  8
0
  6
ByLayer
 62
  256
370
   -1
100
AcDbLine
 10
85.9852744901345
 20
183.081079699738
 11
85.5545065617042
 21
120.894648870178
  0
LINE
  5
292
100
AcDbEntity
  8
0
  6
ByLayer
 62
  256
370
   -1
100
AcDbLine
 10
85.9852744901345
 20
183.081079699738
 11
85.9852744901345
 21
183.081079699738
  0
LINE
  5
293
100
AcDbEntity
  8
0
  6
ByLayer
 62
  256
370
   -1
100
AcDbLine
 10
78.5394606901589
 20
28.5196972999872
 11
78.5394606901589
 21
28.5196972999872
  0
LINE
  5
294
100
AcDbEntity
  8
0
  6
ByLayer
 62
  256
370
   -1
100
AcDbLine
 10
-541.830888883335
 20
297.982824130321
 11
-541.830888883335
 21
297.982824130321
  0
LINE
  5
295
100
AcDbEntity
  8
0
  6
ByLayer
 62
  256
370
   -1
100
AcDbLine
 10
-543.812879427211
 20
11.8587277536317
 11
-541.830888883335
 21
297.982824130321
  0
LINE
  5
296
100
AcDbEntity
  8
0
  6
ByLayer
 62
  256
370
   -1
100
AcDbLine
 10
92.71565384752169
 20
-200.560749985102
 11
94.24889181542579
 21
20.7770621682715
  0
LINE
  5
297
100
AcDbEntity
  8
0
  6
ByLayer
 62
  256
370
   -1
100
AcDbLine
 10
94.24889181542579
 20
20.7770621682715
 11
94.24889181542579
 21
20.7770621682715
  0
LINE
  5
298
100
AcDbEntity
  8
0
  6
ByLayer
 62
  256
370
   -1
100
AcDbLine
 10
92.71565384752169
 20
-200.560749985102
 11
92.71565384752169
 21
-200.560749985102
  0
LINE
  5
299
100
AcDbEntity
  8
0
  6
ByLayer
 62
  256
370
   -1
100
AcDbLine
 10
54.9860246059684
 20
183.295825350093
 11
54.9860246059684
 21
183.295825350093
  0
LINE
  5
29A
100
AcDbEntity
  8
0
  6
ByLayer
 62
  256
370
   -1
100
AcDbLine
 10
54.5552482147291
 20
121.109385160087
 11
54.5552482147291
 21
121.109385160087
  0
LINE
  5
29B
100
AcDbEntity
  8
0
  6
ByLayer
 62
  256
370
   -1
100
AcDbLine
 10
85.5545065617042
 20
120.894648870178
 11
85.5545065617042
 21
120.894648870178
  0
LINE
  5
29C
100
AcDbEntity
  8
0
  6
ByLayer
 62
  256
370
   -1
100
AcDbLine
 10
78.5394606901589
 20
28.5196972999872
 11
60.7273850853988
 21
28.6430824460007
  0
LINE
  5
29D
100
AcDbEntity
  8
0
  6
ByLayer
 62
  256
370
   -1
100
AcDbLine
 10
54.5552482147291
 20
121.109385160087
 11
54.5344671865148
 21
118.109457136139
  0
LINE
  5
29E
100
AcDbEntity
  8
0
  6
ByLayer
 62
  256
370
   -1
100
AcDbLine
 10
58.0067315083612
 20
186.274971547673
 11
55.0068034900455
 21
186.295753388893
  0
LINE
  5
29F
100
AcDbEntity
  8
0
  6
ByLayer
 62
  256
370
   -1
100
AcDbLine
 10
83.0061295257116
 20
186.101789552299
 11
58.0067315083612
 21
186.274971547673
  0
LINE
  5
2A0
100
AcDbEntity
  8
0
  6
ByLayer
 62
  256
370
   -1
100
AcDbLine
 10
57.8435527996754
 20
270.991175193486
 11
80.21801196853519
 21
270.836183516876
  0
LINE
  5
2A1
100
AcDbEntity
  8
0
  6
ByLayer
 62
  256
370
   -1
100
AcDbLine
 10
80.21801196853519
 20
270.836183516876
 11
80.21801196853519
 21
270.836183516876
  0
LINE
  5
2A2
100
AcDbEntity
  8
0
  6
ByLayer
 62
  256
370
   -1
100
AcDbLine
 10
80.21801196853519
 20
270.836183516876
 11
57.8435527996754
 21
270.991175193486
  0
LINE
  5
2A3
100
AcDbEntity
  8
0
  6
ByLayer
 62
  256
370
   -1
100
AcDbLine
 10
57.8435527996754
 20
270.991175193486
 11
57.8435527996754
 21
270.991175193486
  0
LINE
  5
2A4
100
AcDbEntity
  8
0
  6
ByLayer
 62
  256
370
   -1
100
AcDbLine
 10
54.9860246059684
 20
183.295825350093
 11
54.5552482147291
 21
121.109385160087
  0
LINE
  5
2A5
100
AcDbEntity
  8
0
  6
ByLayer
 62
  256
370
   -1
100
AcDbLine
 10
82.5337979091408
 20
117.915501773888
 11
85.53372593376579
 21
117.894720843458
  0
LINE
  5
2A6
100
AcDbEntity
  8
0
  6
ByLayer
 62
  256
370
   -1
100
AcDbLine
 10
86.00605754401739
 20
186.081007709653
 11
85.9852744901345
 21
183.081079699738
  0
LINE
  5
2A7
100
AcDbEntity
  8
0
  6
ByLayer
 62
  256
370
   -1
100
AcDbLine
 10
-150.448008785098
 20
127.435753664632
 11
-152.026433644332
 21
-100.425528729056
  0
LINE
  5
2A8
100
AcDbEntity
  8
0
  6
ByLayer
 62
  256
370
   -1
100
AcDbLine
 10
58.0067315083612
 20
186.274971547673
 11
83.0061295257116
 21
186.101789552299
  0
LINE
  5
2A9
100
AcDbEntity
  8
0
  6
ByLayer
 62
  256
370
   -1
100
AcDbLine
 10
83.0061295257116
 20
186.101789552299
 11
86.00605754401739
 21
186.081007709653
  0
LINE
  5
2AA
100
AcDbEntity
  8
0
  6
ByLayer
 62
  256
370
   -1
100
AcDbLine
 10
85.9852744901345
 20
183.081079699738
 11
85.7746225642407
 21
152.670989825031
  0
LINE
  5
2AB
100
AcDbEntity
  8
0
  6
ByLayer
 62
  256
370
   -1
100
AcDbLine
 10
85.7746225642407
 20
152.670989825031
 11
99.9119713550478
 21
152.573059862993
  0
LINE
  5
2AC
100
AcDbEntity
  8
0
  6
ByLayer
 62
  256
370
   -1
100
AcDbLine
 10
99.9119713550478
 20
152.573059862993
 11
96.07528138348439
 21
284.434866717481
  0
LINE
  5
2AD
100
AcDbEntity
  8
0
  6
ByLayer
 62
  256
370
   -1
100
AcDbLine
 10
96.07528138348439
 20
284.434866717481
 11
-150.075747272161
 21
181.176343302088
  0
LINE
  5
2AE
100
AcDbEntity
  8
0
  6
ByLayer
 62
  256
370
   -1
100
AcDbLine
 10
-150.075747272161
 20
181.176343302088
 11
-394.772657259243
 21
287.835034798449
  0
LINE
  5
2AF
100
AcDbEntity
  8
0
  6
ByLayer
 62
  256
370
   -1
100
AcDbLine
 10
-394.772657259243
 20
287.835034798449
 11
-400.435718025748
 21
156.039037103728
  0
LINE
  5
2B0
100
AcDbEntity
  8
0
  6
ByLayer
 62
  256
370
   -1
100
AcDbLine
 10
-400.435718025748
 20
156.039037103728
 11
54.7753685102688
 21
152.885726117712
  0
LINE
  5
2B1
100
AcDbEntity
  8
0
  6
ByLayer
 62
  256
370
   -1
100
AcDbLine
 10
54.7753685102688
 20
152.885726117712
 11
54.9860246059684
 21
183.295825350093
  0
LINE
  5
2B2
100
AcDbEntity
  8
0
  6
ByLayer
 62
  256
370
   -1
100
AcDbLine
 10
54.9860246059684
 20
183.295825350093
 11
55.0068034900455
 21
186.295753388893
  0
LINE
  5
2B3
100
AcDbEntity
  8
0
  6
ByLayer
 62
  256
370
   -1
100
AcDbLine
 10
55.0068034900455
 20
186.295753388893
 11
58.0067315083612
 21
186.274971547673
  0
LINE
  5
2B4
100
AcDbEntity
  8
0
  6
ByLayer
 62
  256
370
   -1
100
AcDbLine
 10
54.5344671865148
 20
118.109457136139
 11
54.5552482147291
 21
121.109385160087
  0
LINE
  5
2B5
100
AcDbEntity
  8
0
  6
ByLayer
 62
  256
370
   -1
100
AcDbLine
 10
-398.132256635531
 20
-197.160581904133
 11
-398.132256635531
 21
-197.160581904133
  0
LINE
  5
2B6
100
AcDbEntity
  8
0
  6
ByLayer
 62
  256
370
   -1
100
AcDbLine
 10
85.7746225642407
 20
152.670989825031
 11
85.5545065617042
 21
120.894648870178
  0
LINE
  5
2B7
100
AcDbEntity
  8
0
  6
ByLayer
 62
  256
370
   -1
100
AcDbLine
 10
96.07528138348439
 20
284.434866717481
 11
96.07528138348439
 21
284.434866717481
  0
LINE
  5
2B8
100
AcDbEntity
  8
0
  6
ByLayer
 62
  256
370
   -1
100
AcDbLine
 10
54.5552482147291
 20
121.109385160087
 11
54.7753685102688
 21
152.885726117712
  0
LINE
  5
2B9
100
AcDbEntity
  8
0
  6
ByLayer
 62
  256
370
   -1
100
AcDbLine
 10
-398.132256635531
 20
-197.160581904133
 11
-396.599018667627
 21
24.1772302492397
  0
LINE
  5
2BA
100
AcDbEntity
  8
0
  6
ByLayer
 62
  256
370
   -1
100
AcDbLine
 10
-396.599018667627
 20
24.1772302492397
 11
-396.599018667627
 21
24.1772302492397
  0
LINE
  5
2BB
100
AcDbEntity
  8
0
  6
ByLayer
 62
  256
370
   -1
100
AcDbLine
 10
-396.599018667627
 20
24.1772302492397
 11
-396.691419946866
 21
10.8395986200318
  0
LINE
  5
2BC
100
AcDbEntity
  8
0
  6
ByLayer
 62
  256
370
   -1
100
AcDbLine
 10
-396.691419946866
 20
10.8395986200318
 11
-396.691419946866
 21
10.8395986200318
  0
LINE
  5
2BD
100
AcDbEntity
  8
0
  6
ByLayer
 62
  256
370
   -1
100
AcDbLine
 10
-396.691419946866
 20
10.8395986200318
 11
-398.132256635531
 21
-197.160581904133
  0
LINE
  5
2BE
100
AcDbEntity
  8
0
  6
ByLayer
 62
  256
370
   -1
100
AcDbLine
 10
57.5343952111792
 20
118.088676211406
 11
82.5337979091408
 21
117.915501773888
  0
LINE
  5
2BF
100
AcDbEntity
  8
0
  6
ByLayer
 62
  256
370
   -1
100
AcDbLine
 10
82.5337979091408
 20
117.915501773888
 11
82.5337979091408
 21
117.915501773888
  0
LINE
  5
2C0
100
AcDbEntity
  8
0
  6
ByLayer
 62
  256
370
   -1
100
AcDbLine
 10
82.5337979091408
 20
117.915501773888
 11
57.5343952111792
 21
118.088676211406
  0
LINE
  5
2C1
100
AcDbEntity
  8
0
  6
ByLayer
 62
  256
370
   -1
100
AcDbLine
 10
57.5343952111792
 20
118.088676211406
 11
57.5343952111792
 21
118.088676211406
  0
LINE
  5
2C2
100
AcDbEntity
  8
0
  6
ByLayer
 62
  256
370
   -1
100
AcDbLine
 10
96.07528138348439
 20
284.434866717481
 11
97.81918187779701
 21
536.1842733668529
  0
LINE
  5
2C3
100
AcDbEntity
  8
0
  6
ByLayer
 62
  256
370
   -1
100
AcDbLine
 10
97.81918187779701
 20
536.1842733668529
 11
97.81918187779701
 21
536.1842733668529
  0
LINE
  5
2C4
100
AcDbEntity
  8
0
  6
ByLayer
 62
  256
370
   -1
100
AcDbLine
 10
97.81918187779701
 20
536.1842733668529
 11
96.07528138348439
 21
284.434866717481
  0
LINE
  5
2C5
100
AcDbEntity
  8
0
  6
ByLayer
 62
  256
370
   -1
100
AcDbLine
 10
85.53372593376579
 20
117.894720843458
 11
82.5337979091408
 21
117.915501773888
  0
LINE
  5
2C6
100
AcDbEntity
  8
0
  6
ByLayer
 62
  256
370
   -1
100
AcDbLine
 10
57.5343952111792
 20
118.088676211406
 11
54.5344671865148
 21
118.109457136139
  0
LINE
  5
2C7
100
AcDbEntity
  8
0
  6
ByLayer
 62
  256
370
   -1
100
AcDbLine
 10
92.71565384752169
 20
-200.560749985102
 11
94.24889181542579
 21
20.7770621682715
  0
LINE
  5
2C8
100
AcDbEntity
  8
0
  6
ByLayer
 62
  256
370
   -1
100
AcDbLine
 10
-396.599018667627
 20
24.1772302492397
 11
-150.448008785098
 21
127.435753664632
  0
LINE
  5
2C9
100
AcDbEntity
  8
0
  6
ByLayer
 62
  256
370
   -1
100
AcDbLine
 10
-400.435718025748
 20
156.039037103728
 11
-396.599018667627
 21
24.1772302492397
  0
LINE
  5
2CA
100
AcDbEntity
  8
0
  6
ByLayer
 62
  256
370
   -1
100
AcDbLine
 10
94.24889181542579
 20
20.7770621682715
 11
99.9119713550478
 21
152.573059862993
  0
LINE
  5
2CB
100
AcDbEntity
  8
0
  6
ByLayer
 62
  256
370
   -1
100
AcDbLine
 10
85.5545065617042
 20
120.894648870178
 11
85.53372593376579
 21
117.894720843458
  0
LINE
  5
2CC
100
AcDbEntity
  8
0
  6
ByLayer
 62
  256
370
   -1
100
AcDbLine
 10
-152.026433644332
 20
-100.425528729056
 11
-2.54120971039524
 21
-101.461035060132
  0
LINE
  5
2CD
100
AcDbEntity
  8
0
  6
ByLayer
 62
  256
370
   -1
100
AcDbLine
 10
-2.54120971039524
 20
-101.461035060132
 11
92.71565384752169
 21
-200.560749985102
  0
LINE
  5
2CE
100
AcDbEntity
  8
0
  6
ByLayer
 62
  256
370
   -1
100
AcDbLine
 10
94.24889181542579
 20
20.7770621682715
 11
-150.448008785098
 21
127.435753664632
  0
INSERT
  5
2CF
100
AcDbEntity
  8
ANNOTATIONS
  6
ByLayer
 62
  256
370
   -1
100
AcDbBlockReference
  2
GROUP4_1
 10
65.89783732690638
 20
94.15077318568041
 30
0
 41
1
 42
1.09
 43
0
 50
360
 70
    1
 71
    1
 44
0
 45
0
  0
INSERT
  5
2D0
100
AcDbEntity
  8
ANNOTATIONS
  6
ByLayer
 62
  256
370
   -1
100
AcDbBlockReference
  2
GROUP2_1
 10
23.96246425305377
 20
13.8968698720455
 30
0
 41
1
 42
1
 43
0
 50
0
 70
    1
 71
    1
 44
0
 45
0
  0
INSERT
  5
2D1
100
AcDbEntity
  8
ANNOTATIONS
  6
ByLayer
 62
  256
370
   -1
100
AcDbBlockReference
  2
GROUP9_1
 10
-143.662933114117
 20
187.5820010018326
 30
0
 41
1
 42
1
 43
0
 50
360
 70
    1
 71
    1
 44
0
 45
0
  0
INSERT
  5
2D2
100
AcDbEntity
  8
ANNOTATIONS
  6
ByLayer
 62
  256
370
   -1
100
AcDbBlockReference
  2
GROUP1_1
 10
296.598158291867
 20
8.5
 30
0
 41
1
 42
1
 43
0
 50
0
 70
    1
 71
    1
 44
0
 45
0
  0
INSERT
  5
2D3
100
AcDbEntity
  8
ANNOTATIONS
  6
ByLayer
 62
  256
370
   -1
100
AcDbBlockReference
  2
GROUP5_1
 10
87.925500134532
 20
134.4094717412349
 30
0
 41
1
 42
1
 43
0
 50
0
 70
    1
 71
    1
 44
0
 45
0
  0
INSERT
  5
2D4
100
AcDbEntity
  8
ANNOTATIONS
  6
ByLayer
 62
  256
370
   -1
100
AcDbBlockReference
  2
GROUP8_1
 10
-147.8439492590506
 20
208.511627267393
 30
0
 41
1
 42
1
 43
0
 50
0
 70
    1
 71
    1
 44
0
 45
0
  0
INSERT
  5
2D5
100
AcDbEntity
  8
ANNOTATIONS
  6
ByLayer
 62
  256
370
   -1
100
AcDbBlockReference
  2
GROUP3_1
 10
-78.62487109200946
 20
4.839416654828916
 30
0
 41
1
 42
1
 43
0
 50
0
 70
    1
 71
    1
 44
0
 45
0
  0
INSERT
  5
2D6
100
AcDbEntity
  8
ANNOTATIONS
  6
ByLayer
 62
  256
370
   -1
100
AcDbBlockReference
  2
GROUP6_1
 10
216.4349491331252
 20
138.1822238599831
 30
0
 41
1
 42
1
 43
0
 50
0
 70
    1
 71
    1
 44
0
 45
0
  0
INSERT
  5
2D7
100
AcDbEntity
  8
ANNOTATIONS
  6
ByLayer
 62
  256
370
   -1
100
AcDbBlockReference
  2
GROUP4_1
 10
-121.348111063491
 20
91.78610230594957
 30
0
 41
1
 42
1.09
 43
0
 50
360
 70
    1
 71
    1
 44
0
 45
0
  0
INSERT
  5
2D8
100
AcDbEntity
  8
ANNOTATIONS
  6
ByLayer
 62
  256
370
   -1
100
AcDbBlockReference
  2
GROUP7_1
 10
145.8188647646601
 20
47.32720246411574
 30
0
 41
1
 42
1
 43
0
 50
0
 70
    1
 71
    1
 44
0
 45
0
  0
INSERT
  5
2D9
100
AcDbEntity
  8
ANNOTATIONS
  6
ByLayer
 62
  256
370
   -1
100
AcDbBlockReference
  2
GROUP4_1
 10
216.2728383721368
 20
94.15077318568042
 30
0
 41
1
 42
1.09
 43
0
 50
360
 70
    1
 71
    1
 44
0
 45
0
  0
INSERT
  5
2DA
100
AcDbEntity
  8
ANNOTATIONS
  6
ByLayer
 62
  256
370
   -1
100
AcDbBlockReference
  2
GROUP7_1
 10
-186.3346244202964
 20
46.54461175480273
 30
0
 41
1
 42
1
 43
0
 50
0
 70
    1
 71
    1
 44
0
 45
0
  0
INSERT
  5
2DB
100
AcDbEntity
  8
ANNOTATIONS
  6
ByLayer
 62
  256
370
   -1
100
AcDbBlockReference
  2
GROUP7_1
 10
330.4634533250034
 20
47.06481718502034
 30
0
 41
0.9999999999999999
 42
1
 43
0
 50
0
 70
    1
 71
    1
 44
0
 45
0
  0
ENDSEC
  0
SECTION
  2
OBJECTS
  0
DICTIONARY
  5
C
330
0
100
AcDbDictionary
281
    1
  3
ACAD_GROUP
350
D
  0
DICTIONARY
  5
D
330
C
100
AcDbDictionary
281
    1
  0
ENDSEC
  0
EOF
